<svg width="24" height="24" viewBox="0 0 24 24" fill="none" xmlns="http://www.w3.org/2000/svg">
<g clip-path="url(#clip0_15_2)">
<mask id="mask0_15_2" style="mask-type:luminance" maskUnits="userSpaceOnUse" x="0" y="0" width="24" height="24">
<path d="M24 0H0V24H24V0Z" fill="white"/>
</mask>
<g mask="url(#mask0_15_2)">
<path d="M5.69357 18.5743C4.94535 18.5743 4.21392 18.3525 3.59177 17.9368C2.96964 17.5211 2.48472 16.9303 2.19838 16.239C1.91204 15.5477 1.83711 14.787 1.98308 14.0532C2.12905 13.3193 2.48935 12.6452 3.01843 12.1161C3.54751 11.5871 4.2216 11.2268 4.95547 11.0808C5.68932 10.9348 6.44998 11.0097 7.14125 11.2961C7.83252 11.5825 8.42338 12.0674 8.83906 12.6895C9.25474 13.3116 9.47659 14.0431 9.47657 14.7913C9.47539 15.7942 9.07644 16.7558 8.36724 17.465C7.65807 18.1742 6.69653 18.5731 5.69357 18.5743ZM5.69357 11.9462C5.13077 11.9462 4.58059 12.113 4.11262 12.4257C3.64467 12.7384 3.27991 13.1828 3.06454 13.7027C2.84914 14.2227 2.79276 14.7949 2.90256 15.3469C3.01234 15.8989 3.28335 16.4059 3.68131 16.8039C4.07928 17.2018 4.58631 17.4729 5.13831 17.5827C5.69031 17.6925 6.26247 17.6361 6.78243 17.4208C7.30239 17.2054 7.74682 16.8407 8.05951 16.3727C8.37219 15.9047 8.53908 15.3546 8.53908 14.7918C8.53839 14.0373 8.23839 13.3138 7.70491 12.7803C7.17144 12.2467 6.44808 11.9466 5.69357 11.9457V11.9462Z" fill="black"/>
<path d="M10.3081 24H1.0793C0.954979 24 0.835749 23.9506 0.747842 23.8627C0.659935 23.7748 0.61055 23.6555 0.61055 23.5312V22.5831C0.61055 20.5675 2.19492 19.1595 4.46443 19.1595H6.92302C9.19176 19.1595 10.7769 20.5673 10.7769 22.5831V23.5312C10.7769 23.6555 10.7275 23.7748 10.6396 23.8627C10.5517 23.9506 10.4325 24 10.3081 24ZM1.54805 23.0625H9.8394V22.5831C9.8394 20.8657 8.37463 20.097 6.92302 20.097H4.46443C3.01279 20.097 1.54805 20.8657 1.54805 22.5831V23.0625Z" fill="black"/>
<path d="M12 24C11.8757 24 11.7564 23.9506 11.6685 23.8627C11.5806 23.7748 11.5313 23.6556 11.5313 23.5313C11.5313 23.4069 11.5806 23.2877 11.6685 23.1998C11.7564 23.1119 11.8757 23.0625 12 23.0625C14.188 23.0625 16.3268 22.4137 18.146 21.1981C19.9652 19.9826 21.3831 18.2549 22.2204 16.2334C23.0577 14.212 23.2768 11.9877 22.8499 9.84182C22.4231 7.69591 21.3695 5.72474 19.8224 4.17763C18.2753 2.63052 16.3041 1.57692 14.1582 1.15007C12.0123 0.723218 9.78797 0.942293 7.76657 1.77959C5.74517 2.61689 4.01743 4.03478 2.80186 5.85401C1.5863 7.67323 0.9375 9.81204 0.9375 12C0.9375 12.1243 0.888113 12.2436 0.800206 12.3315C0.712298 12.4194 0.593071 12.4687 0.468749 12.4687C0.344429 12.4687 0.225201 12.4194 0.137294 12.3315C0.049386 12.2436 0 12.1243 0 12C0 9.62664 0.703788 7.30656 2.02236 5.33316C3.34094 3.35978 5.21508 1.8217 7.40779 0.913452C9.6005 0.00519945 12.0133 -0.232441 14.3411 0.230582C16.6689 0.693605 18.807 1.83649 20.4853 3.51473C22.1635 5.19295 23.3064 7.33116 23.7694 9.65892C24.2326 11.9867 23.9948 14.3995 23.0866 16.5922C22.1783 18.7849 20.6402 20.6591 18.6668 21.9776C16.6935 23.2962 14.3734 24 12 24Z" fill="black"/>
<path d="M14.7648 14.0654C14.6825 14.0654 14.6016 14.0437 14.5304 14.0025L11.7648 12.4059C11.6937 12.3647 11.6347 12.3055 11.5937 12.2342C11.5527 12.1629 11.5312 12.0822 11.5313 12V5.40102C11.5313 5.33946 11.5434 5.2785 11.5669 5.22162C11.5905 5.16476 11.625 5.11309 11.6685 5.06955C11.7121 5.02602 11.7637 4.99151 11.8206 4.96794C11.8775 4.9444 11.9384 4.93225 12 4.93225C12.0616 4.93225 12.1225 4.9444 12.1794 4.96794C12.2363 4.99151 12.2879 5.02602 12.3315 5.06955C12.375 5.11309 12.4095 5.16476 12.4331 5.22162C12.4566 5.2785 12.4687 5.33946 12.4687 5.40102V11.7291L15 13.1906C15.0894 13.2422 15.1593 13.3218 15.1988 13.4172C15.2383 13.5125 15.2453 13.6183 15.2185 13.718C15.1918 13.8177 15.133 13.9057 15.0511 13.9686C14.9692 14.0314 14.8688 14.0654 14.7656 14.0654H14.7648Z" fill="black"/>
<path d="M12.0001 21.7814C11.8758 21.7814 11.7566 21.732 11.6687 21.6441C11.5807 21.5562 11.5314 21.437 11.5314 21.3127C11.5314 21.1883 11.5807 21.0691 11.6687 20.9812C11.7566 20.8933 11.8758 20.8439 12.0001 20.8439C13.6916 20.8443 15.3478 20.3599 16.7724 19.4479C18.197 18.5359 19.3303 17.2346 20.038 15.6983C20.7457 14.1619 20.9981 12.4549 20.7654 10.7795C20.5326 9.10405 19.8245 7.53047 18.7248 6.24519C17.6251 4.95992 16.18 4.01684 14.5608 3.5277C12.9415 3.03855 11.216 3.02387 9.58867 3.48536C7.96135 3.94686 6.5004 4.86519 5.379 6.13155C4.2576 7.39791 3.52274 8.95919 3.26148 10.6304C3.25248 10.6916 3.23143 10.7504 3.19958 10.8035C3.16771 10.8566 3.12569 10.9028 3.07586 10.9395C3.02606 10.9762 2.96947 11.0027 2.90938 11.0174C2.8493 11.0322 2.78688 11.0348 2.72573 11.0253C2.6646 11.0158 2.60594 10.9943 2.55314 10.962C2.50037 10.9298 2.4545 10.8873 2.41819 10.8372C2.38187 10.7871 2.35584 10.7303 2.34159 10.6701C2.32733 10.6099 2.32515 10.5475 2.33514 10.4864C2.62437 8.63886 3.43711 6.91295 4.67709 5.51312C5.91708 4.1133 7.5323 3.09822 9.33146 2.58817C11.1306 2.07812 13.0382 2.09446 14.8284 2.63526C16.6185 3.17605 18.2161 4.21866 19.4319 5.63951C20.6478 7.06038 21.4308 8.79997 21.6883 10.6522C21.9459 12.5044 21.6671 14.3917 20.885 16.0903C20.103 17.789 18.8504 19.2278 17.2757 20.2365C15.701 21.2451 13.8702 21.7813 12.0001 21.7814Z" fill="black"/>
</g>
</g>
<defs>
<clipPath id="clip0_15_2">
<rect width="24" height="24" fill="white"/>
</clipPath>
</defs>
</svg>
