<svg width="67" height="67" viewBox="0 0 67 67" fill="none" xmlns="http://www.w3.org/2000/svg">
    <g clip-path="url(#clip0_309_278)">
        <path d="M33.066 66.136C14.834 66.136 0 51.302 0 33.069C0 14.835 14.834 0.000976562 33.066 0.000976562C51.3 0.000976562 66.137 14.835 66.137 33.069C66.137 51.302 51.301 66.136 33.066 66.136ZM33.066 4.00098C17.039 4.00098 4 17.041 4 33.069C4 49.097 17.039 62.136 33.066 62.136C49.096 62.136 62.137 49.096 62.137 33.069C62.137 17.042 49.096 4.00098 33.066 4.00098Z" fill="white"/>
        <path d="M35.658 45.575L25.342 33.068L35.658 20.562L38.744 23.106L30.527 33.068L38.744 43.03L35.658 45.575Z" fill="white"/>
    </g>
    <defs>
        <clipPath id="clip0_309_278">
            <rect width="66.137" height="66.137" fill="white"/>
        </clipPath>
    </defs>
</svg>
