<svg width="19" height="14" viewBox="0 0 19 14" fill="none" xmlns="http://www.w3.org/2000/svg">
<path d="M1.47149 3.01389C1.17681 2.81754 1 2.48717 1 2.1333V2.13242C1 1.50684 1.50718 0.999695 2.1328 0.999695H16.8672C17.4928 0.999695 18 1.50684 18 2.13242V2.13299V2.1333C18 2.48717 17.8232 2.81754 17.5285 3.01389C16.0906 3.9727 11.7579 6.86098 10.1287 7.94729C9.74795 8.20116 9.25209 8.20116 8.87131 7.94729C7.24213 6.86098 2.9094 3.9727 1.47149 3.01389Z" stroke="#002333" stroke-miterlimit="10" stroke-linecap="round" stroke-linejoin="round"/>
<path d="M1 2.13298V12.333C1 12.6336 1.11928 12.9217 1.33207 13.1342C1.54457 13.347 1.83272 13.4663 2.13333 13.4663H16.8667C17.1673 13.4663 17.4554 13.347 17.6679 13.1342C17.8807 12.9217 18 12.6336 18 12.333V2.13298" stroke="#002333" stroke-miterlimit="10" stroke-linecap="round" stroke-linejoin="round"/>
</svg>
