<svg width="34" height="34" viewBox="0 0 34 34" fill="none" xmlns="http://www.w3.org/2000/svg">
<rect width="34" height="34" rx="5" fill="#6FD943"/>
<path fill-rule="evenodd" clip-rule="evenodd" d="M7 24C7 23.4477 7.44772 23 8 23H9.5C10.0523 23 10.5 23.4477 10.5 24C10.5 24.5523 10.0523 25 9.5 25H8C7.44772 25 7 24.5523 7 24Z" fill="white"/>
<path fill-rule="evenodd" clip-rule="evenodd" d="M12.5 24C12.5 23.4477 12.9477 23 13.5 23H26C26.5523 23 27 23.4477 27 24C27 24.5523 26.5523 25 26 25H13.5C12.9477 25 12.5 24.5523 12.5 24Z" fill="white"/>
<path fill-rule="evenodd" clip-rule="evenodd" d="M7 18C7 17.4477 7.44772 17 8 17H9.5C10.0523 17 10.5 17.4477 10.5 18C10.5 18.5523 10.0523 19 9.5 19H8C7.44772 19 7 18.5523 7 18Z" fill="white"/>
<path fill-rule="evenodd" clip-rule="evenodd" d="M12.5 18C12.5 17.4477 12.9477 17 13.5 17H26C26.5523 17 27 17.4477 27 18C27 18.5523 26.5523 19 26 19H13.5C12.9477 19 12.5 18.5523 12.5 18Z" fill="white"/>
<path fill-rule="evenodd" clip-rule="evenodd" d="M15.5 12C15.5 11.4477 15.9477 11 16.5 11H26C26.5523 11 27 11.4477 27 12C27 12.5523 26.5523 13 26 13H16.5C15.9477 13 15.5 12.5523 15.5 12Z" fill="white"/>
<path fill-rule="evenodd" clip-rule="evenodd" d="M15.7071 8.29289C16.0976 8.68342 16.0976 9.31658 15.7071 9.70711L10.7071 14.7071C10.3166 15.0976 9.68342 15.0976 9.29289 14.7071L7.29289 12.7071C6.90237 12.3166 6.90237 11.6834 7.29289 11.2929C7.68342 10.9024 8.31658 10.9024 8.70711 11.2929L10 12.5858L14.2929 8.29289C14.6834 7.90237 15.3166 7.90237 15.7071 8.29289Z" fill="white"/>
</svg>
