<svg width="20" height="20" viewBox="0 0 20 20" fill="none" xmlns="http://www.w3.org/2000/svg">
<circle cx="10" cy="10" r="10" fill="#666666"/>
<g clip-path="url(#clip0_2001_293)">
<path d="M12.3897 9.86299C12.6627 9.73268 12.8934 9.57869 13.0687 9.40666V10.8755C13.0687 11.2242 12.7457 11.5531 12.2235 11.8022C11.6575 12.0727 10.8714 12.2393 9.99977 12.2393C9.12813 12.2393 8.34227 12.0724 7.77602 11.8022C7.25453 11.5531 6.93086 11.2242 6.93086 10.8755V9.40666C7.10688 9.57869 7.3368 9.73291 7.60984 9.86299C8.22438 10.1567 9.07023 10.3388 9.99953 10.3388C10.9302 10.3388 11.7752 10.1567 12.3897 9.86299ZM12.9159 7.25275C12.9105 7.25744 12.9046 7.26213 12.8985 7.26658H12.8978L12.8884 7.27455C12.8837 7.27783 12.8791 7.28111 12.8751 7.28439L12.8652 7.29166L12.8512 7.30174L12.8413 7.309C12.8373 7.31228 12.8327 7.31557 12.8287 7.31838L12.8153 7.32775C12.8113 7.33104 12.8073 7.33361 12.8027 7.33643C12.798 7.33971 12.7933 7.34299 12.7888 7.3465L12.7787 7.35307C12.7741 7.35635 12.7689 7.36033 12.7635 7.36361L12.753 7.37088C12.7476 7.37416 12.7431 7.37744 12.7377 7.38096L12.7277 7.38752C12.7218 7.3908 12.7157 7.39478 12.7096 7.39877L12.703 7.40275C12.6965 7.40674 12.6904 7.41072 12.6838 7.41471L12.6752 7.4201C12.6686 7.42478 12.6611 7.42877 12.6545 7.43275L12.6491 7.43603C12.6412 7.44072 12.6339 7.44541 12.6266 7.44939L12.6234 7.45127C12.6147 7.45666 12.606 7.46111 12.5973 7.4658L12.5941 7.46838C12.5861 7.47236 12.5781 7.47705 12.5709 7.48103L12.5655 7.48361C12.5575 7.4883 12.5495 7.49299 12.5409 7.49768L12.5395 7.49838L12.5387 7.49908H12.538C12.5294 7.50377 12.5202 7.50846 12.5116 7.51291L12.5076 7.51549C12.4989 7.52018 12.4902 7.52486 12.4811 7.52885L12.4797 7.52955C12.4703 7.53494 12.4612 7.53939 12.4518 7.54408L12.4485 7.54549C12.4398 7.55018 12.4305 7.55486 12.422 7.55885L12.4188 7.56072C12.4094 7.56541 12.3995 7.5701 12.3895 7.57478C11.7752 7.86846 10.9302 8.04986 10 8.04986C9.07047 8.04986 8.22484 7.86846 7.61031 7.57478C7.60023 7.5701 7.59109 7.56541 7.58102 7.56072L7.57844 7.55885C7.56906 7.55486 7.55992 7.55018 7.55125 7.54549L7.54867 7.54408C7.53883 7.53939 7.52945 7.53471 7.52008 7.52955L7.51867 7.52885C7.51 7.52486 7.50062 7.52018 7.49219 7.51549L7.4882 7.51291C7.47953 7.50822 7.47016 7.50354 7.46172 7.49908L7.46102 7.49838L7.45914 7.49768C7.45117 7.49299 7.4425 7.4883 7.43453 7.48361L7.42984 7.48103C7.42188 7.47705 7.41391 7.47236 7.40664 7.46838L7.40266 7.4658C7.39398 7.46111 7.38531 7.45643 7.37734 7.45127L7.37336 7.44939C7.36609 7.44541 7.35883 7.44072 7.35133 7.43603L7.34594 7.43275C7.33867 7.42877 7.33141 7.42478 7.32461 7.4201L7.31594 7.41471C7.31008 7.41072 7.30328 7.40674 7.29742 7.40275L7.29086 7.39877C7.285 7.39478 7.2782 7.3908 7.27234 7.38752L7.2625 7.38096C7.25711 7.37768 7.25242 7.37439 7.24727 7.37088L7.23672 7.36361C7.23133 7.36033 7.22664 7.35635 7.22148 7.35307L7.21164 7.3465C7.20695 7.34322 7.20227 7.33994 7.19758 7.33643C7.19359 7.33385 7.18961 7.33104 7.18492 7.32775C7.18094 7.32518 7.17625 7.32166 7.17227 7.31838C7.16758 7.3158 7.16359 7.31228 7.15891 7.309L7.14883 7.30174C7.14414 7.29846 7.13945 7.29518 7.135 7.29166L7.12563 7.28439C7.12094 7.28111 7.11625 7.27783 7.11227 7.27455L7.10219 7.26658H7.10148C7.09562 7.26189 7.09023 7.25721 7.08414 7.25275L7.08156 7.25088C7.02766 7.20846 6.97797 7.16393 6.93133 7.11869V8.58705C6.93133 8.9358 7.25477 9.26463 7.77648 9.51447C8.3425 9.78424 9.12836 9.95158 10.0002 9.95158C10.8721 9.95158 11.6577 9.78424 12.224 9.51447C12.7462 9.26463 13.0691 8.9358 13.0691 8.58705V7.11869C13.0227 7.16393 12.9728 7.20846 12.9189 7.25088L12.9159 7.25275ZM12.2238 5.37189C11.6575 5.10143 10.8716 4.93408 10 4.93408C9.12836 4.93408 8.3425 5.10143 7.77648 5.37189C7.255 5.62104 6.93133 5.94986 6.93133 6.29861C6.93133 6.64736 7.25477 6.97619 7.77648 7.22533C8.3425 7.4958 9.12836 7.66314 10.0002 7.66314C10.8721 7.66314 11.6577 7.4958 12.224 7.22533C12.7462 6.97619 13.0691 6.64736 13.0691 6.29861C13.0687 5.94986 12.7459 5.62104 12.2238 5.37189ZM12.3325 14.1954C12.3351 14.1821 12.3365 14.1689 12.3365 14.1549V13.3542C12.3365 13.2474 12.2502 13.1609 12.1431 13.1609H11.6793V12.4128C11.5518 12.4479 11.4229 12.4786 11.2919 12.5044V13.3542C11.2919 13.4611 11.3788 13.5476 11.4852 13.5476H11.9495V14.1549C11.9495 14.1689 11.9509 14.1821 11.9535 14.1954C11.7967 14.2671 11.687 14.426 11.687 14.6107C11.687 14.862 11.8909 15.0659 12.1429 15.0659C12.3946 15.0659 12.5988 14.862 12.5988 14.6107C12.599 14.4258 12.4893 14.2671 12.3325 14.1954ZM10.1894 14.1954C10.192 14.1821 10.1934 14.1689 10.1934 14.1549V12.6242C10.1289 12.626 10.0637 12.6267 10 12.6267C9.93625 12.6267 9.8718 12.626 9.80664 12.6242V14.1549C9.80664 14.1689 9.80805 14.1821 9.81063 14.1954C9.65383 14.2671 9.54414 14.426 9.54414 14.6107C9.54414 14.862 9.74805 15.0659 10 15.0659C10.252 15.0659 10.4559 14.862 10.4559 14.6107C10.4559 14.4258 10.3469 14.2671 10.1894 14.1954ZM8.32117 13.1609H7.85687C7.75 13.1609 7.66352 13.2471 7.66352 13.3542V14.1549C7.66352 14.1689 7.66492 14.1821 7.6682 14.1954C7.5107 14.2671 7.40102 14.426 7.40102 14.6107C7.40102 14.862 7.60492 15.0659 7.85687 15.0659C8.10883 15.0659 8.31273 14.862 8.31273 14.6107C8.31273 14.426 8.20375 14.2674 8.04625 14.1954C8.04883 14.1821 8.05094 14.1689 8.05094 14.1549V13.5476H8.51477C8.62164 13.5476 8.70813 13.4611 8.70813 13.3542V12.5044C8.57781 12.4784 8.44844 12.4479 8.32141 12.4128V13.1609H8.32117ZM5.90547 6.44346C5.90547 6.33658 5.81852 6.2501 5.71141 6.2501H4.91148C4.89766 6.2501 4.88359 6.2515 4.87023 6.25479C4.79852 6.09729 4.63961 5.9876 4.45562 5.9876C4.20414 5.98783 4 6.19174 4 6.44346C4 6.69518 4.20391 6.89932 4.45586 6.89932C4.63984 6.89932 4.79875 6.79033 4.87047 6.63283C4.88383 6.63541 4.89766 6.63752 4.91172 6.63752H5.51828V7.10135C5.51828 7.20822 5.60523 7.29471 5.71164 7.29471H6.54484V6.90799H5.90547V6.44346ZM5.51828 10.0723V10.5366H4.91148C4.89766 10.5366 4.88359 10.538 4.87023 10.5406C4.79852 10.3838 4.63961 10.2741 4.45562 10.2741C4.20414 10.2743 4 10.4782 4 10.7299C4 10.9817 4.20391 11.1858 4.45586 11.1858C4.63984 11.1858 4.79875 11.0768 4.87047 10.9193C4.88383 10.9219 4.89766 10.9233 4.91172 10.9233H5.71164C5.81852 10.9233 5.9057 10.8368 5.9057 10.7299V10.2661H6.54484V9.87869H5.71141C5.60523 9.87893 5.51828 9.96588 5.51828 10.0723ZM4.87047 8.39744C4.79875 8.24064 4.63984 8.13096 4.45586 8.13096C4.20414 8.13096 4 8.33486 4 8.58682C4 8.83854 4.20391 9.04268 4.45586 9.04268C4.63984 9.04268 4.79875 8.93369 4.87047 8.77619C4.88383 8.77877 4.89766 8.78088 4.91172 8.78088H6.54484V8.39346H4.91148C4.89766 8.39346 4.88359 8.39486 4.87047 8.39744ZM14.482 7.10111V6.63728H15.0885C15.103 6.63728 15.1164 6.63541 15.1298 6.6326C15.2015 6.7901 15.3604 6.89908 15.5444 6.89908C15.7961 6.89908 16.0002 6.69518 16.0002 6.44322C16.0002 6.19127 15.7963 5.98736 15.5444 5.98736C15.3604 5.98736 15.2015 6.09705 15.1298 6.25455C15.1164 6.25127 15.1033 6.24986 15.0885 6.24986H14.2886C14.1817 6.24986 14.0952 6.33635 14.0952 6.44322V6.90752H13.4554V7.29424H14.2886C14.3955 7.29447 14.482 7.20822 14.482 7.10111ZM15.5441 8.13096C15.3602 8.13096 15.2013 8.24064 15.1295 8.39744C15.1162 8.39486 15.103 8.39346 15.0883 8.39346H13.4552V8.78088H15.0883C15.1028 8.78088 15.1162 8.779 15.1295 8.77619C15.2013 8.93369 15.3602 9.04268 15.5441 9.04268C15.7959 9.04268 16 8.83877 16 8.58682C16 8.33486 15.7959 8.13096 15.5441 8.13096ZM15.5441 10.2743C15.3602 10.2743 15.2013 10.384 15.1295 10.5408C15.1162 10.5382 15.103 10.5368 15.0883 10.5368H14.4817V10.0725C14.4817 9.96611 14.3952 9.87916 14.2884 9.87916H13.4552V10.2666H14.095V10.7304C14.095 10.8373 14.1815 10.9238 14.2884 10.9238H15.0883C15.1028 10.9238 15.1162 10.9224 15.1295 10.9198C15.2013 11.0773 15.3602 11.1863 15.5441 11.1863C15.7959 11.1863 16 10.9824 16 10.7304C16 10.4785 15.7959 10.2743 15.5441 10.2743Z" fill="white"/>
</g>
<defs>
<clipPath id="clip0_2001_293">
<rect width="12" height="12" fill="white" transform="translate(4 4)"/>
</clipPath>
</defs>
</svg>
