<svg width="35" height="35" viewBox="0 0 35 35" fill="none" xmlns="http://www.w3.org/2000/svg">
<rect width="35" height="35" rx="5" fill="#0CAF60"/>
<path d="M24.8235 8.99998H23.0588V10.7647C23.0588 11.1176 22.7647 11.3529 22.4706 11.3529C22.1765 11.3529 21.8824 11.1176 21.8824 10.7647V8.99998H12.4706V10.7647C12.4706 11.1176 12.1765 11.3529 11.8824 11.3529C11.5882 11.3529 11.2941 11.1176 11.2941 10.7647V8.99998H9.52941C8.64706 8.99998 8 9.76469 8 10.7647V12.8823H26.8235V10.7647C26.8235 9.76469 25.7647 8.99998 24.8235 8.99998ZM8 14.1176V24.8823C8 25.9412 8.64706 26.647 9.58824 26.647H24.8824C25.8235 26.647 26.8824 25.8823 26.8824 24.8823V14.1176H8ZM13.2353 24H11.8235C11.5882 24 11.3529 23.8235 11.3529 23.5294V22.0588C11.3529 21.8235 11.5294 21.5882 11.8235 21.5882H13.2941C13.5294 21.5882 13.7647 21.7647 13.7647 22.0588V23.5294C13.7059 23.8235 13.5294 24 13.2353 24ZM13.2353 18.7059H11.8235C11.5882 18.7059 11.3529 18.5294 11.3529 18.2353V16.7647C11.3529 16.5294 11.5294 16.2941 11.8235 16.2941H13.2941C13.5294 16.2941 13.7647 16.4706 13.7647 16.7647V18.2353C13.7059 18.5294 13.5294 18.7059 13.2353 18.7059ZM17.9412 24H16.4706C16.2353 24 16 23.8235 16 23.5294V22.0588C16 21.8235 16.1765 21.5882 16.4706 21.5882H17.9412C18.1765 21.5882 18.4118 21.7647 18.4118 22.0588V23.5294C18.4118 23.8235 18.2353 24 17.9412 24ZM17.9412 18.7059H16.4706C16.2353 18.7059 16 18.5294 16 18.2353V16.7647C16 16.5294 16.1765 16.2941 16.4706 16.2941H17.9412C18.1765 16.2941 18.4118 16.4706 18.4118 16.7647V18.2353C18.4118 18.5294 18.2353 18.7059 17.9412 18.7059ZM22.6471 24H21.1765C20.9412 24 20.7059 23.8235 20.7059 23.5294V22.0588C20.7059 21.8235 20.8824 21.5882 21.1765 21.5882H22.6471C22.8824 21.5882 23.1176 21.7647 23.1176 22.0588V23.5294C23.1176 23.8235 22.9412 24 22.6471 24ZM22.6471 18.7059H21.1765C20.9412 18.7059 20.7059 18.5294 20.7059 18.2353V16.7647C20.7059 16.5294 20.8824 16.2941 21.1765 16.2941H22.6471C22.8824 16.2941 23.1176 16.4706 23.1176 16.7647V18.2353C23.1176 18.5294 22.9412 18.7059 22.6471 18.7059Z" fill="white"/>
</svg>
