<svg width="42" height="42" viewBox="0 0 42 42" fill="none" xmlns="http://www.w3.org/2000/svg">
<g clip-path="url(#clip0_1_37)">
<path d="M41.79 18.69L37.59 19.11C37.59 19.74 37.59 20.37 37.59 21C37.59 30.24 30.03 37.8 20.79 37.8C11.55 37.8 3.99 30.24 3.99 21C3.99 11.76 11.55 4.2 20.79 4.2C21.42 4.2 22.05 4.2 22.47 4.2L22.89 0C22.47 0 21.63 0 21 0C9.45 0 0 9.45 0 21C0 32.55 9.45 42 21 42C32.55 42 42 32.55 42 21C42 20.16 42 19.53 41.79 18.69Z" fill="#013D29"/>
<path d="M23.1 18.9V8.39999H18.9V23.1H29.4V18.9H23.1Z" fill="#013D29"/>
<path d="M42 2.94L39.06 0L31.5 7.56V2.1H27.3V14.7H39.9V10.5H34.44L42 2.94Z" fill="#013D29"/>
</g>
<defs>
<clipPath id="clip0_1_37">
<rect width="42" height="42" fill="white"/>
</clipPath>
</defs>
</svg>
