<svg width="14" height="14" viewBox="0 0 14 14" fill="none" xmlns="http://www.w3.org/2000/svg">
<path fill-rule="evenodd" clip-rule="evenodd" d="M0.538452 1.61538V12.3846C0.538452 12.813 0.708692 13.2239 1.01161 13.5268C1.31453 13.8298 1.72548 14 2.15384 14H11.8461C12.2745 14 12.6855 13.8298 12.9884 13.5268C13.2913 13.2239 13.4615 12.813 13.4615 12.3846C13.4615 9.95077 13.4615 4.04923 13.4615 1.61538C13.4615 1.18703 13.2913 0.776074 12.9884 0.473157C12.6855 0.17024 12.2745 0 11.8461 0C9.59339 0 4.40659 0 2.15384 0C1.72548 0 1.31453 0.17024 1.01161 0.473157C0.708692 0.776074 0.538452 1.18703 0.538452 1.61538ZM3.23076 12.3846H10.2308C10.528 12.3846 10.7692 12.1434 10.7692 11.8462C10.7692 11.5489 10.528 11.3077 10.2308 11.3077H3.23076C2.93353 11.3077 2.6923 11.5489 2.6923 11.8462C2.6923 12.1434 2.93353 12.3846 3.23076 12.3846ZM10.3903 6.97105C10.6427 6.71862 10.7846 6.37625 10.7846 6.01922C10.7846 5.6622 10.6427 5.31983 10.3903 5.0674C10.2657 4.94282 10.1341 4.81118 10.0095 4.6866C9.75709 4.43417 9.41471 4.29236 9.05769 4.29236C8.70067 4.29236 8.35829 4.43417 8.10586 4.6866C6.95071 5.84175 4.44605 8.34641 4.44605 8.34641C4.34335 8.44911 4.28649 8.58885 4.28838 8.7341L4.30768 10.2377C4.31147 10.5297 4.54719 10.7654 4.83925 10.7692L6.34281 10.7885C6.48806 10.7904 6.62781 10.7336 6.7305 10.6309L10.3903 6.97105ZM9.62889 6.20962L6.12966 9.70868L5.37789 9.69903L5.36824 8.94725L8.86729 5.44802C8.91778 5.39754 8.98635 5.36928 9.05769 5.36928C9.12902 5.36928 9.1976 5.39754 9.24809 5.44802L9.62889 5.82882C9.67938 5.87931 9.70763 5.94789 9.70763 6.01922C9.70763 6.09056 9.67938 6.15914 9.62889 6.20962ZM6.05764 2.96145H7.94234C8.2394 2.96162 8.4808 2.72022 8.4808 2.42316C8.4808 2.12593 8.2394 1.8847 7.94234 1.88453H6.05764C5.76058 1.8847 5.51918 2.12593 5.51918 2.42316C5.51918 2.72022 5.76058 2.96162 6.05764 2.96145Z" fill="white"/>
</svg>
