
<svg width="42" height="42" viewBox="0 0 42 42" fill="none" xmlns="http://www.w3.org/2000/svg">
<g clip-path="url(#clip0_1_48)">
<path d="M41.79 18.69L37.8 19.11C37.8 19.74 37.8 20.37 37.8 21C37.8 30.24 30.24 37.8 21 37.8C11.76 37.8 4.2 30.24 4.2 21C4.2 11.76 11.76 4.2 21 4.2C21.63 4.2 22.05 4.2 22.68 4.2L23.1 0C22.47 0 21.63 0 21 0C9.45 0 0 9.45 0 21C0 32.55 9.45 42 21 42C32.55 42 42 32.55 42 21C42 20.16 42 19.53 41.79 18.69Z" fill="#013D29"/>
<path d="M23.1 18.9V8.39999H18.9V23.1H29.4V18.9H23.1Z" fill="#013D29"/>
<path d="M29.4 0V4.2H34.86L27.3 11.76L30.24 14.7L37.8 7.14V12.6H42V0H29.4Z" fill="#013D29"/>
</g>
<defs>
<clipPath id="clip0_1_48">
<rect width="42" height="42" fill="white"/>
</clipPath>
</defs>
</svg>
