<svg width="100" height="100" viewBox="0 0 100 100" fill="none" xmlns="http://www.w3.org/2000/svg">
<g clip-path="url(#clip0_868_6)">
<path d="M79.5263 39.4403H79.3858C77.4679 39.4297 75.6149 40.1344 74.1881 41.4166C73.0333 38.2206 70.0984 35.9232 66.661 35.9232C64.5541 35.938 62.5417 36.8029 61.0821 38.3233C59.74 35.6061 57.0475 33.7629 53.9517 33.7629H53.8022C52.143 33.7375 50.5241 34.2771 49.2115 35.2924V15.9217C49.2115 11.2406 45.567 7.43268 41.134 7.43268C36.7059 7.43268 33.0803 11.2381 33.0779 15.9159L33.0409 54.3484L30.8659 51.7069C28.9586 49.3323 26.1512 47.8579 23.1137 47.6353C20.1386 47.4316 17.212 48.4665 15.0272 50.497L13.1347 52.065C12.5244 52.571 12.3503 53.4334 12.7158 54.1365L31.1156 89.5045C34.48 95.9679 40.881 100 47.8209 100H68.5567V99.982C79.0704 99.982 87.5947 90.8589 87.6054 79.6569C87.6095 74.6448 87.5906 70.9092 87.5939 67.8816C87.6046 59.7811 87.5964 56.7921 87.5758 47.8677C87.5652 43.1973 83.947 39.4403 79.5263 39.4403ZM84.2049 67.8701C84.2016 70.8985 84.1967 74.6489 84.1917 79.661C84.1827 89.0108 77.1246 96.6349 68.4581 96.6349H47.8217C42.141 96.6349 36.8834 93.296 34.1013 87.9504L16.3274 53.7965L17.2046 53.0646C17.2268 53.0466 17.2482 53.0252 17.2695 53.0063C18.7784 51.5861 20.8089 50.8567 22.8763 50.9923C24.9897 51.1541 26.9397 52.1874 28.2613 53.8441L33.4105 60.1096C33.8607 60.6591 34.6081 60.8653 35.2767 60.6263C35.9453 60.3873 36.3922 59.7532 36.3922 59.0435L36.4226 15.9176C36.4242 13.0937 38.5598 10.7962 41.1357 10.7962C43.7115 10.7962 45.8471 13.0961 45.8471 15.9217V41.9242C45.8471 42.0146 45.843 42.1057 45.843 42.1977C45.843 42.2372 45.8471 42.2774 45.8471 42.316V53.4334C45.8471 54.3624 46.6003 55.1156 47.5293 55.1156C48.4583 55.1156 49.2115 54.3624 49.2115 53.4334V41.9809C49.2115 39.2564 51.2929 37.1273 53.8022 37.1273H53.9517C56.5292 37.1273 58.6738 39.3738 58.6738 42.1994V52.3722C58.6738 53.3012 59.427 54.0544 60.356 54.0544C61.285 54.0544 62.0382 53.3012 62.0382 52.3722V44.3908C62.0382 41.5644 64.0802 39.2654 66.6716 39.2654C69.2483 39.2654 71.2903 41.5636 71.2903 44.3908V51.9204C71.2903 52.8494 72.0435 53.6026 72.9725 53.6026C73.9015 53.6026 74.6547 52.8494 74.6547 51.9204V47.8431C74.6547 45.0167 76.8083 42.8047 79.3858 42.8047H79.5263C82.0972 42.8047 84.1926 45.0545 84.1991 47.8718C84.2197 56.7896 84.2156 59.7753 84.2049 67.8701Z" fill="white"/>
<path d="M27.734 16.6478C28.6629 16.6478 29.4161 15.8946 29.4161 14.9656C29.4432 8.54649 34.6549 3.35782 41.0732 3.35782C47.4923 3.35782 52.7032 8.54649 52.7303 14.9656C52.7303 15.8946 53.4835 16.6478 54.4125 16.6478C55.3415 16.6478 56.0947 15.8946 56.0947 14.9656C56.0635 6.69099 49.3478 0 41.0732 0C32.7994 0 26.083 6.69099 26.0518 14.9656C26.0518 15.8946 26.805 16.6478 27.734 16.6478Z" fill="white"/>
</g>
<defs>
<clipPath id="clip0_868_6">
<rect width="100" height="100" fill="white"/>
</clipPath>
</defs>
</svg>
