<svg width="35" height="35" viewBox="0 0 35 35" fill="none" xmlns="http://www.w3.org/2000/svg">
<rect width="35" height="35" rx="5" fill="#6FD943"/>
<path d="M19.8512 9.39816C18.6093 8.63215 17.1375 8.21094 15.6172 8.21094C11.4787 8.21094 8 11.2943 8 15.2422C8 16.6264 8.43 17.9533 9.2468 19.0993L8.10578 22.6815C7.98523 23.0599 8.26867 23.4453 8.66418 23.4453C8.75461 23.4453 8.84562 23.4244 8.92961 23.3817L12.3996 21.6173C12.5401 21.6779 12.6824 21.7341 12.8261 21.7864C12.0227 20.5324 11.5938 19.093 11.5938 17.5859C11.5938 13.0978 15.3702 9.64734 19.8512 9.39816Z" fill="white"/>
<path d="M26.7532 21.443C27.57 20.297 28 18.9701 28 17.5859C28 13.6366 24.5198 10.5547 20.3828 10.5547C16.2443 10.5547 12.7656 13.638 12.7656 17.5859C12.7656 21.5353 16.2458 24.6172 20.3828 24.6172C21.4929 24.6172 22.5989 24.391 23.6002 23.961L27.0704 25.7254C27.281 25.8325 27.5354 25.8026 27.7154 25.6496C27.8954 25.4966 27.966 25.2504 27.8943 25.0253L26.7532 21.443ZM18 18.1719C17.6764 18.1719 17.4141 17.9095 17.4141 17.5859C17.4141 17.2623 17.6764 17 18 17C18.3236 17 18.5859 17.2623 18.5859 17.5859C18.5859 17.9095 18.3236 18.1719 18 18.1719ZM20.3438 18.1719C20.0202 18.1719 19.7578 17.9095 19.7578 17.5859C19.7578 17.2623 20.0202 17 20.3438 17C20.6673 17 20.9297 17.2623 20.9297 17.5859C20.9297 17.9095 20.6673 18.1719 20.3438 18.1719ZM22.6875 18.1719C22.3639 18.1719 22.1016 17.9095 22.1016 17.5859C22.1016 17.2623 22.3639 17 22.6875 17C23.0111 17 23.2734 17.2623 23.2734 17.5859C23.2734 17.9095 23.0111 18.1719 22.6875 18.1719Z" fill="white"/>
</svg>
