<svg width="35" height="35" viewBox="0 0 35 35" fill="none" xmlns="http://www.w3.org/2000/svg">
<rect width="35" height="35" rx="5" fill="#3EC9D6"/>
<g clip-path="url(#clip0_34_421)">
<path d="M18 7C12.4767 7 8 11.4771 8 17C8 22.5229 12.4767 27 18 27C23.5233 27 28 22.5224 28 17C28 11.4776 23.5229 7 18 7ZM18.6053 21.4545V22.6121C18.6053 22.7927 18.4648 22.9241 18.2837 22.9241H17.5122C17.3311 22.9241 17.1853 22.7927 17.1853 22.6121V21.5563C16.4751 21.5241 15.7588 21.3727 15.2166 21.1664C14.9228 21.055 14.7592 20.7404 14.8371 20.4357L14.9629 19.9457C15.0068 19.7738 15.1217 19.6302 15.2788 19.5497C15.4359 19.4679 15.6204 19.4596 15.7854 19.5227C16.3019 19.7225 16.9121 19.8678 17.5635 19.8678C18.393 19.8678 18.9609 19.5475 18.9609 18.9653C18.9609 18.4122 18.4952 18.0627 17.4177 17.6985C15.8602 17.1745 14.7936 16.4469 14.7936 15.0347C14.7936 13.754 15.7001 12.7496 17.2497 12.4437V11.3879C17.2497 11.2073 17.4042 11.0454 17.5853 11.0454H18.3568C18.5379 11.0454 18.6706 11.2073 18.6706 11.3879V12.3414C19.3482 12.3706 19.8373 12.4711 20.2464 12.6042C20.5558 12.7052 20.7386 13.0294 20.6572 13.3454L20.5467 13.784C20.5036 13.9511 20.3931 14.093 20.2416 14.1748C20.0902 14.2566 19.9113 14.2714 19.7477 14.2153C19.376 14.0878 18.8912 13.972 18.2768 13.972C17.3307 13.972 17.0248 14.3798 17.0248 14.7875C17.0248 15.268 17.5344 15.5735 18.7716 16.0396C20.5036 16.651 21.1994 17.4517 21.1994 18.7612C21.199 20.0567 20.2838 21.1638 18.6053 21.4545Z" fill="white"/>
</g>
<defs>
<clipPath id="clip0_34_421">
<rect width="20" height="20" fill="white" transform="translate(8 7)"/>
</clipPath>
</defs>
</svg>
