<svg width="14" height="14" viewBox="0 0 14 14" fill="none" xmlns="http://www.w3.org/2000/svg">
<g clip-path="url(#clip0_3919_476)">
<path d="M1.70117 4.10156L2.42767 12.8717C2.47973 13.5041 3.01846 14 3.65332 14H10.3472C10.9821 14 11.5208 13.5041 11.5729 12.8717L12.2993 4.10156H1.70117ZM4.94909 12.3594C4.73439 12.3594 4.55375 12.1924 4.54014 11.9748L4.12998 5.35765C4.11595 5.13136 4.28778 4.9367 4.5137 4.92267C4.748 4.90623 4.93427 5.08009 4.94868 5.30638L5.35884 11.9236C5.37336 12.1579 5.18794 12.3594 4.94909 12.3594ZM7.41041 11.9492C7.41041 12.1759 7.22696 12.3594 7.00025 12.3594C6.77355 12.3594 6.5901 12.1759 6.5901 11.9492V5.33203C6.5901 5.10532 6.77355 4.92188 7.00025 4.92188C7.22696 4.92188 7.41041 5.10532 7.41041 5.33203V11.9492ZM9.87053 5.35768L9.46037 11.9749C9.44689 12.1902 9.26743 12.3696 9.02539 12.3586C8.79947 12.3446 8.62764 12.1499 8.64167 11.9236L9.05183 5.30641C9.06585 5.08011 9.26412 4.91548 9.48681 4.9227C9.71273 4.93672 9.88456 5.13138 9.87053 5.35768Z" fill="black"/>
<path d="M12.332 1.64062H9.87109V1.23047C9.87109 0.551961 9.31913 0 8.64062 0H5.35938C4.68087 0 4.12891 0.551961 4.12891 1.23047V1.64062H1.66797C1.21491 1.64062 0.847656 2.00788 0.847656 2.46094C0.847656 2.91394 1.21491 3.28125 1.66797 3.28125C5.44048 3.28125 8.55966 3.28125 12.332 3.28125C12.7851 3.28125 13.1523 2.91394 13.1523 2.46094C13.1523 2.00788 12.7851 1.64062 12.332 1.64062ZM9.05078 1.64062H4.94922V1.23047C4.94922 1.00417 5.13308 0.820312 5.35938 0.820312H8.64062C8.86692 0.820312 9.05078 1.00417 9.05078 1.23047V1.64062Z" fill="black"/>
</g>
<defs>
<clipPath id="clip0_3919_476">
<rect width="14" height="14" fill="white"/>
</clipPath>
</defs>
</svg>
