<svg width="35" height="35" viewBox="0 0 35 35" fill="none" xmlns="http://www.w3.org/2000/svg">
<rect width="35" height="35" rx="5" fill="#FF3A6E"/>
<g clip-path="url(#clip0_34_424)">
<path d="M19.4052 8.77805L19.8349 7.81141C19.9643 7.52027 19.8331 7.1793 19.542 7.04992C19.2508 6.92047 18.9099 7.05164 18.7805 7.34281L18.1635 8.73094H15.8365L15.2195 7.34277C15.0901 7.05164 14.7492 6.92047 14.458 7.04988C14.1669 7.17926 14.0358 7.52023 14.1651 7.81137L14.5947 8.77801C13.4463 9.0034 12.577 10.0173 12.577 11.2309V12.1924H21.4231V11.2309C21.423 10.0174 20.5537 9.0034 19.4052 8.77805Z" fill="white"/>
<path d="M26.423 17.1924H22.9615V15.9929C24.703 15.7154 26.0384 14.2032 26.0384 12.3847V11.6155C26.0384 11.2969 25.7801 11.0386 25.4615 11.0386C25.1429 11.0386 24.8846 11.2969 24.8846 11.6155V12.3847C24.8846 13.5647 24.0627 14.5556 22.9615 14.8168V14.3078C22.9615 13.7776 22.5302 13.3463 22 13.3463H17.5769V20.077C17.5769 20.3956 17.3186 20.6539 17 20.6539C16.6814 20.6539 16.4231 20.3956 16.4231 20.077V13.3463H12.0001C11.4699 13.3463 11.0385 13.7776 11.0385 14.3078V14.8168C9.93737 14.5555 9.11549 13.5646 9.11549 12.3847V11.6155C9.11549 11.2969 8.85717 11.0386 8.53858 11.0386C8.21998 11.0386 7.96166 11.2969 7.96166 11.6155V12.3847C7.96166 14.2031 9.29701 15.7154 11.0386 15.9928V17.1923H7.57698C7.25838 17.1923 7.00006 17.4507 7.00006 17.7693C7.00006 18.0879 7.25838 18.3462 7.57698 18.3462H11.0385V19.5457C9.29694 19.8231 7.96158 21.3354 7.96158 23.1538V23.9231C7.96158 24.2416 8.21991 24.5 8.5385 24.5C8.85709 24.5 9.11541 24.2416 9.11541 23.9231V23.1538C9.11541 21.9739 9.93729 20.983 11.0385 20.7218V21.0384C11.0385 24.3257 13.7128 27 17 27C20.2871 27 22.9615 24.3257 22.9615 21.0385V20.7218C24.0626 20.9831 24.8845 21.974 24.8845 23.1539V23.9231C24.8845 24.2417 25.1428 24.5 25.4614 24.5C25.78 24.5 26.0383 24.2417 26.0383 23.9231V23.1539C26.0383 21.3355 24.703 19.8232 22.9614 19.5458V18.3463H26.423C26.7415 18.3463 26.9999 18.0879 26.9999 17.7693C26.9999 17.4507 26.7416 17.1924 26.423 17.1924Z" fill="white"/>
</g>
<defs>
<clipPath id="clip0_34_424">
<rect width="20" height="20" fill="white" transform="translate(7 7)"/>
</clipPath>
</defs>
</svg>
