<svg width="16" height="16" viewBox="0 0 16 16" fill="none" xmlns="http://www.w3.org/2000/svg">
<g clip-path="url(#clip0_21_311)">
<path d="M14.7069 0H9.96719C9.25301 0 8.67406 0.578952 8.67406 1.29313V6.03281C8.67406 6.74699 9.25301 7.32594 9.96719 7.32594H14.7069C15.421 7.32594 16 6.74699 16 6.03281V1.29313C16 0.578952 15.421 0 14.7069 0Z" fill="white"/>
<path d="M6.03281 0H1.29313C0.578952 0 0 0.578952 0 1.29313V6.03281C0 6.74699 0.578952 7.32594 1.29313 7.32594H6.03281C6.74699 7.32594 7.32594 6.74699 7.32594 6.03281V1.29313C7.32594 0.578952 6.74699 0 6.03281 0Z" fill="white"/>
<path d="M14.7069 8.67407H9.96719C9.25301 8.67407 8.67406 9.25302 8.67406 9.9672V14.7069C8.67406 15.4211 9.25301 16 9.96719 16H14.7069C15.421 16 16 15.4211 16 14.7069V9.9672C16 9.25302 15.421 8.67407 14.7069 8.67407Z" fill="white"/>
<path d="M6.03281 8.67407H1.29313C0.578952 8.67407 0 9.25302 0 9.9672V14.7069C0 15.4211 0.578952 16 1.29313 16H6.03281C6.74699 16 7.32594 15.4211 7.32594 14.7069V9.9672C7.32594 9.25302 6.74699 8.67407 6.03281 8.67407Z" fill="white"/>
</g>
<defs>
<clipPath id="clip0_21_311">
<rect width="16" height="16" fill="white"/>
</clipPath>
</defs>
</svg>
