<svg width="21" height="25" viewBox="0 0 21 25" fill="none" xmlns="http://www.w3.org/2000/svg">
<path d="M13.6066 9.0576C13.2832 9.0576 13.0211 9.31969 13.0211 9.64308V20.7086C13.0211 21.0318 13.2832 21.2941 13.6066 21.2941C13.93 21.2941 14.1921 21.0318 14.1921 20.7086V9.64308C14.1921 9.31969 13.93 9.0576 13.6066 9.0576Z" fill="#013D29"/>
<path d="M6.69791 9.0576C6.37452 9.0576 6.11243 9.31969 6.11243 9.64308V20.7086C6.11243 21.0318 6.37452 21.2941 6.69791 21.2941C7.02129 21.2941 7.28338 21.0318 7.28338 20.7086V9.64308C7.28338 9.31969 7.02129 9.0576 6.69791 9.0576Z" fill="#013D29"/>
<path d="M1.66285 7.44274V21.8677C1.66285 22.7203 1.97549 23.521 2.52163 24.0955C3.06526 24.6716 3.82181 24.9986 4.61357 25H15.691C16.483 24.9986 17.2395 24.6716 17.7829 24.0955C18.3291 23.521 18.6417 22.7203 18.6417 21.8677V7.44274C19.7274 7.15458 20.4309 6.10575 20.2856 4.99174C20.1402 3.87796 19.1913 3.04479 18.0679 3.04456H15.0703V2.31272C15.0737 1.69728 14.8304 1.10631 14.3947 0.671547C13.959 0.237013 13.3672 -0.00495453 12.7517 7.6927e-05H7.55286C6.93742 -0.00495453 6.34554 0.237013 5.90986 0.671547C5.47418 1.10631 5.23084 1.69728 5.23427 2.31272V3.04456H2.23667C1.11328 3.04479 0.164395 3.87796 0.0189405 4.99174C-0.126285 6.10575 0.577203 7.15458 1.66285 7.44274ZM15.691 23.829H4.61357C3.61254 23.829 2.83381 22.9691 2.83381 21.8677V7.4942H17.4708V21.8677C17.4708 22.9691 16.692 23.829 15.691 23.829ZM6.40523 2.31272C6.40134 2.00786 6.52118 1.71443 6.73753 1.49922C6.95366 1.28401 7.24777 1.16577 7.55286 1.17103H12.7517C13.0568 1.16577 13.3509 1.28401 13.567 1.49922C13.7834 1.7142 13.9032 2.00786 13.8993 2.31272V3.04456H6.40523V2.31272ZM2.23667 4.21552H18.0679C18.65 4.21552 19.1218 4.68733 19.1218 5.26938C19.1218 5.85143 18.65 6.32324 18.0679 6.32324H2.23667C1.65462 6.32324 1.18281 5.85143 1.18281 5.26938C1.18281 4.68733 1.65462 4.21552 2.23667 4.21552Z" fill="#013D29"/>
<path d="M10.1523 9.0576C9.82887 9.0576 9.56677 9.31969 9.56677 9.64308V20.7086C9.56677 21.0318 9.82887 21.2941 10.1523 21.2941C10.4756 21.2941 10.7377 21.0318 10.7377 20.7086V9.64308C10.7377 9.31969 10.4756 9.0576 10.1523 9.0576Z" fill="#013D29"/>
</svg>
