<svg width="14" height="14" viewBox="0 0 14 14" fill="none" xmlns="http://www.w3.org/2000/svg">
<g clip-path="url(#clip0_3919_474)">
<path d="M8.43435 1.90168L8.94768 1.38835C9.55435 0.781683 10.6102 0.781683 11.2168 1.38835L11.631 1.80252C11.9344 2.10585 12.1035 2.50835 12.1035 2.93418C12.1035 3.36002 11.9344 3.76835 11.631 4.06585L11.1177 4.57918L8.43435 1.89585V1.90168ZM7.81602 2.52002L2.50185 7.83418C2.33268 8.00335 2.22768 8.22502 2.21018 8.46418L2.05268 10.1733C2.03518 10.3892 2.11102 10.5992 2.26268 10.7567C2.40268 10.8967 2.58352 10.9725 2.77602 10.9725H2.84018L4.54935 10.815C4.78852 10.7917 5.01018 10.6867 5.17935 10.5175L10.4935 5.20335L7.81018 2.52002H7.81602ZM13.2702 12.8333C13.2702 12.5942 13.0718 12.3958 12.8327 12.3958H1.16602C0.926849 12.3958 0.728516 12.5942 0.728516 12.8333C0.728516 13.0725 0.926849 13.2708 1.16602 13.2708H12.8327C13.0718 13.2708 13.2702 13.0725 13.2702 12.8333Z" fill="black"/>
</g>
<defs>
<clipPath id="clip0_3919_474">
<rect width="14" height="14" fill="white"/>
</clipPath>
</defs>
</svg>
