<svg width="10" height="10" viewBox="0 0 10 10" fill="none" xmlns="http://www.w3.org/2000/svg">
<g clip-path="url(#clip0_13_4255)">
<path d="M6.02498 1.35866L6.39165 0.991992C6.82498 0.558659 7.57915 0.558659 8.01248 0.991992L8.30831 1.28783C8.52498 1.50449 8.64581 1.79199 8.64581 2.09616C8.64581 2.40033 8.52498 2.69199 8.30831 2.90449L7.94165 3.27116L6.02498 1.35449V1.35866ZM5.58331 1.80033L1.78748 5.59616C1.66665 5.71699 1.59165 5.87533 1.57915 6.04616L1.46665 7.26699C1.45415 7.42116 1.50831 7.57116 1.61665 7.68366C1.71665 7.78366 1.84581 7.83783 1.98331 7.83783H2.02915L3.24998 7.72533C3.42081 7.70866 3.57915 7.63366 3.69998 7.51283L7.49581 3.71699L5.57915 1.80033H5.58331ZM9.47915 9.16699C9.47915 8.99616 9.33748 8.85449 9.16665 8.85449H0.833313C0.66248 8.85449 0.520813 8.99616 0.520813 9.16699C0.520813 9.33783 0.66248 9.47949 0.833313 9.47949H9.16665C9.33748 9.47949 9.47915 9.33783 9.47915 9.16699Z" fill="white"/>
</g>
<defs>
<clipPath id="clip0_13_4255">
<rect width="10" height="10" fill="white"/>
</clipPath>
</defs>
</svg>
