<svg width="24" height="24" viewBox="0 0 24 24" fill="none" xmlns="http://www.w3.org/2000/svg">
<path d="M21.75 1.49999H19.875V1.125C19.875 0.504842 19.3701 0 18.75 0C18.1298 0 17.625 0.504842 17.625 1.125V1.49999H6.37503V1.125C6.37503 0.504842 5.87018 0 5.25003 0C4.62988 0 4.12503 0.504842 4.12503 1.125V1.49999H2.25004C1.42317 1.49999 0.750048 2.17312 0.750048 2.99999V18.7499C0.750048 19.5768 1.42317 20.2499 2.25004 20.2499H4.87503C5.08222 20.2499 5.25003 20.0821 5.25003 19.8749C5.25003 19.6677 5.08222 19.4999 4.87503 19.4999H2.25004C1.83661 19.4999 1.50004 19.1634 1.50004 18.7499V5.99998H22.5V18.7499C22.5 19.1634 22.1634 19.4999 21.75 19.4999H18.375C18.1678 19.4999 18 19.6677 18 19.8749C18 20.0821 18.1678 20.2499 18.375 20.2499H21.75C22.5768 20.2499 23.25 19.5768 23.25 18.7499V2.99999C23.25 2.17312 22.5768 1.49999 21.75 1.49999ZM18.375 1.125C18.375 0.918278 18.5433 0.749997 18.75 0.749997C18.9567 0.749997 19.125 0.918278 19.125 1.125V2.99999C19.125 3.20671 18.9567 3.37499 18.75 3.37499C18.5433 3.37499 18.375 3.20671 18.375 2.99999V1.125ZM4.87503 1.125C4.87503 0.918278 5.04331 0.749997 5.25003 0.749997C5.45675 0.749997 5.62503 0.918278 5.62503 1.125V2.99999C5.62503 3.20671 5.45675 3.37499 5.25003 3.37499C5.04331 3.37499 4.87503 3.20671 4.87503 2.99999V1.125ZM22.5 5.24998H1.50004V2.99999C1.50004 2.58655 1.83661 2.24999 2.25004 2.24999H4.12503V2.99999C4.12503 3.62014 4.62988 4.12498 5.25003 4.12498C5.87018 4.12498 6.37503 3.62014 6.37503 2.99999V2.24999H17.625V2.99999C17.625 3.62014 18.1298 4.12498 18.75 4.12498C19.3701 4.12498 19.875 3.62014 19.875 2.99999V2.24999H21.75C22.1634 2.24999 22.5 2.58655 22.5 2.99999V5.24998Z" fill="black"/>
<path d="M17.2045 16.4999C16.8918 16.4999 16.5979 16.6217 16.3768 16.8427L13.7197 19.4999H12.3434L13.0744 15.3546L14.921 15.6802C14.9211 15.6802 14.9212 15.6802 14.9214 15.6803L17.8755 16.2012C17.8971 16.205 17.9189 16.2068 17.9406 16.2068C18.0171 16.2068 18.0922 16.1834 18.1557 16.139C18.2372 16.082 18.2927 15.9949 18.31 15.8969C18.7578 13.3572 16.838 10.8688 13.9842 10.1953L14.0512 9.81512C14.0872 9.61117 13.9511 9.41669 13.7471 9.38069C13.5434 9.34478 13.3487 9.48081 13.3127 9.68481L13.2456 10.065C10.3334 9.72194 7.67871 11.4038 7.23086 13.9433C7.21361 14.0413 7.23593 14.1421 7.29297 14.2236C7.35007 14.305 7.43711 14.3605 7.53503 14.3778L12.3358 15.2243L11.5817 19.4999H6.93752C6.21382 19.4999 5.62503 20.0887 5.62503 20.8124C5.62503 21.5361 6.21382 22.1249 6.93752 22.1249H7.41757L7.13229 23.5514C7.09169 23.7545 7.22336 23.9521 7.42643 23.9926C7.45127 23.9976 7.47602 24 7.50039 24C7.67547 24 7.83203 23.8767 7.86771 23.6985L8.18247 22.1249H11.1344L10.9302 23.5726C10.9013 23.7776 11.0441 23.9673 11.2492 23.9963C11.267 23.9987 11.2846 24 11.302 24C11.4859 24 11.6465 23.8646 11.6729 23.6773L11.8918 22.1249H14.3176L14.6323 23.6985C14.668 23.8767 14.8245 24 14.9996 24C15.024 24 15.0487 23.9976 15.0736 23.9926C15.2766 23.9521 15.4084 23.7545 15.3677 23.5514L15.0308 21.8666L16.6259 20.1795C16.6302 20.175 16.6342 20.1705 16.6382 20.1658L18.0934 18.4674C18.275 18.2554 18.375 17.985 18.375 17.7058V17.6705C18.375 17.025 17.8499 16.4999 17.2045 16.4999ZM10.9968 14.2267C11.2128 13.2471 11.5837 12.3721 12.0572 11.7337C12.527 11.1004 13.0478 10.781 13.4854 10.8577C13.4857 10.8578 13.486 10.8579 13.4864 10.8579C13.4868 10.858 13.4873 10.858 13.4877 10.8581C13.9255 10.936 14.3054 11.4139 14.5303 12.1697C14.7569 12.9316 14.8062 13.8806 14.6741 14.875L12.8355 14.5508L10.9968 14.2267ZM17.6167 15.3939L15.4126 15.0053C15.5633 13.8959 15.5076 12.825 15.2491 11.9559C15.185 11.7405 15.1096 11.5422 15.0243 11.3613C16.6767 12.1832 17.7284 13.7527 17.6167 15.3939ZM11.8693 10.8052C11.7273 10.9459 11.5887 11.1064 11.4548 11.2869C10.9147 12.0151 10.4961 13.0024 10.2583 14.0964L8.05417 13.7078C8.5105 12.1274 10.0357 11.0124 11.8693 10.8052ZM17.625 17.7058C17.625 17.8061 17.589 17.9032 17.5238 17.9794L16.0746 19.6708L14.4635 21.3749H7.87333C7.8731 21.3749 7.87286 21.3749 7.87263 21.3749H6.93752C6.62735 21.3749 6.37502 21.1226 6.37502 20.8124C6.37502 20.5023 6.62735 20.2499 6.93752 20.2499H11.8958C11.8961 20.2499 11.8965 20.25 11.8968 20.25C11.8972 20.25 11.8975 20.2499 11.8979 20.2499H13.8749C13.9744 20.2499 14.0698 20.2104 14.1401 20.1401L16.9071 17.3731C16.9865 17.2937 17.0921 17.2499 17.2044 17.2499C17.4363 17.2499 17.6249 17.4386 17.6249 17.6705V17.7058H17.625Z" fill="black"/>
</svg>
