<svg width="24" height="26" viewBox="0 0 24 26" fill="none" xmlns="http://www.w3.org/2000/svg">
<path d="M9.21048 22.155H19.9554C20.834 22.155 21.6765 21.806 22.2978 21.1847C22.919 20.5635 23.268 19.7209 23.268 18.8423V3.31265C23.268 2.43408 22.919 1.59149 22.2978 0.970252C21.6765 0.34901 20.834 0 19.9554 0H7.23482C6.35625 0 5.51367 0.34901 4.89242 0.970252C4.27118 1.59149 3.92217 2.43408 3.92217 3.31265V15.9272C3.92217 16.1029 3.99197 16.2714 4.11622 16.3957C4.24047 16.5199 4.40899 16.5897 4.5847 16.5897C4.76042 16.5897 4.92893 16.5199 5.05318 16.3957C5.17743 16.2714 5.24723 16.1029 5.24723 15.9272V3.31265C5.24439 3.05084 5.29386 2.79111 5.39275 2.54868C5.49163 2.30626 5.63792 2.08602 5.82306 1.90088C6.00819 1.71575 6.22843 1.56945 6.47086 1.47057C6.71328 1.37169 6.97302 1.32222 7.23482 1.32506H19.9554C20.2172 1.32222 20.4769 1.37169 20.7193 1.47057C20.9618 1.56945 21.182 1.71575 21.3671 1.90088C21.5523 2.08602 21.6986 2.30626 21.7975 2.54868C21.8963 2.79111 21.9458 3.05084 21.943 3.31265V18.8423C21.9458 19.1041 21.8963 19.3639 21.7975 19.6063C21.6986 19.8487 21.5523 20.069 21.3671 20.2541C21.182 20.4392 20.9618 20.5855 20.7193 20.6844C20.4769 20.7833 20.2172 20.8328 19.9554 20.8299H9.21048C9.03477 20.8299 8.86625 20.8997 8.742 21.024C8.61775 21.1482 8.54795 21.3167 8.54795 21.4924C8.54795 21.6682 8.61775 21.8367 8.742 21.9609C8.86625 22.0852 9.03477 22.155 9.21048 22.155Z" fill="black"/>
<path d="M8.89776 6.10191H18.2938C18.4695 6.10191 18.638 6.03211 18.7622 5.90786C18.8865 5.78362 18.9563 5.6151 18.9563 5.43938C18.9563 5.26367 18.8865 5.09515 18.7622 4.97091C18.638 4.84666 18.4695 4.77686 18.2938 4.77686H8.89776C8.72205 4.77686 8.55353 4.84666 8.42928 4.97091C8.30504 5.09515 8.23523 5.26367 8.23523 5.43938C8.23523 5.6151 8.30504 5.78362 8.42928 5.90786C8.55353 6.03211 8.72205 6.10191 8.89776 6.10191Z" fill="black"/>
<path d="M8.89776 9.86241H18.2938C18.4695 9.86241 18.638 9.79261 18.7622 9.66836C18.8865 9.54411 18.9563 9.3756 18.9563 9.19988C18.9563 9.02417 18.8865 8.85565 18.7622 8.7314C18.638 8.60716 18.4695 8.53735 18.2938 8.53735H8.89776C8.72205 8.53735 8.55353 8.60716 8.42928 8.7314C8.30504 8.85565 8.23523 9.02417 8.23523 9.19988C8.23523 9.3756 8.30504 9.54411 8.42928 9.66836C8.55353 9.79261 8.72205 9.86241 8.89776 9.86241Z" fill="black"/>
<path d="M8.89776 13.6203H18.2938C18.4695 13.6203 18.638 13.5505 18.7622 13.4262C18.8865 13.302 18.9563 13.1335 18.9563 12.9578C18.9563 12.782 18.8865 12.6135 18.7622 12.4893C18.638 12.365 18.4695 12.2952 18.2938 12.2952H8.89776C8.72205 12.2952 8.55353 12.365 8.42928 12.4893C8.30504 12.6135 8.23523 12.782 8.23523 12.9578C8.23523 13.1335 8.30504 13.302 8.42928 13.4262C8.55353 13.5505 8.72205 13.6203 8.89776 13.6203Z" fill="black"/>
<path d="M11.0523 17.3848H18.2991C18.4748 17.3848 18.6433 17.3149 18.7675 17.1907C18.8918 17.0665 18.9616 16.8979 18.9616 16.7222C18.9616 16.5465 18.8918 16.378 18.7675 16.2537C18.6433 16.1295 18.4748 16.0597 18.2991 16.0597H11.0523C10.8766 16.0597 10.7081 16.1295 10.5838 16.2537C10.4596 16.378 10.3898 16.5465 10.3898 16.7222C10.3898 16.8979 10.4596 17.0665 10.5838 17.1907C10.7081 17.3149 10.8766 17.3848 11.0523 17.3848Z" fill="black"/>
<path d="M5.00872 25.2901C5.99967 25.2903 6.96844 24.9967 7.79252 24.4464C8.61659 23.896 9.25894 23.1136 9.63835 22.1982C10.0177 21.2827 10.1172 20.2753 9.92399 19.3034C9.73082 18.3315 9.25377 17.4386 8.55315 16.7378C7.85254 16.037 6.95984 15.5597 5.98795 15.3663C5.01606 15.1729 4.00863 15.272 3.09309 15.6512C2.17755 16.0304 1.39501 16.6725 0.844437 17.4964C0.293867 18.3204 -9.10656e-07 19.2891 -9.45315e-07 20.28C0.00140142 21.6081 0.529514 22.8814 1.46849 23.8206C2.40747 24.7599 3.68064 25.2883 5.00872 25.2901ZM5.00872 16.5963C5.73766 16.5961 6.45029 16.812 7.05649 17.2168C7.66269 17.6216 8.13521 18.1971 8.41428 18.8705C8.69335 19.5439 8.76644 20.285 8.62429 20.9999C8.48215 21.7149 8.13116 22.3716 7.61573 22.887C7.10029 23.4024 6.44357 23.7534 5.72863 23.8956C5.01369 24.0377 4.27265 23.9646 3.59925 23.6856C2.92585 23.4065 2.35035 22.934 1.94554 22.3278C1.54073 21.7216 1.3248 21.0089 1.32506 20.28C1.32611 19.3034 1.71455 18.367 2.40514 17.6764C3.09573 16.9858 4.03208 16.5974 5.00872 16.5963Z" fill="black"/>
<path d="M6.22513 21.4182C6.37974 21.4185 6.52956 21.3646 6.64866 21.266C6.76775 21.1675 6.84861 21.0303 6.87723 20.8784C6.90586 20.7264 6.88044 20.5693 6.8054 20.4341C6.73035 20.2989 6.61039 20.1943 6.46629 20.1382L5.67126 19.8282V18.2938C5.67126 18.118 5.60146 17.9495 5.47721 17.8253C5.35296 17.701 5.18444 17.6312 5.00873 17.6312C4.83302 17.6312 4.6645 17.701 4.54025 17.8253C4.416 17.9495 4.3462 18.118 4.3462 18.2938V20.2813C4.34612 20.4147 4.3863 20.545 4.46148 20.6552C4.53666 20.7654 4.64334 20.8503 4.76757 20.8988L5.98397 21.3745C6.06099 21.4038 6.14274 21.4186 6.22513 21.4182Z" fill="black"/>
</svg>
