<svg width="20" height="17" viewBox="0 0 20 17" fill="none" xmlns="http://www.w3.org/2000/svg">
<path d="M9.96875 4.125C11.1078 4.125 12.0312 3.20159 12.0312 2.0625C12.0312 0.923413 11.1078 0 9.96875 0C8.82966 0 7.90625 0.923413 7.90625 2.0625C7.90625 3.20159 8.82966 4.125 9.96875 4.125Z" fill="white"/>
<path d="M16.9675 1.91117L12.375 6.53117V8.24992H12.1103C11.8537 7.92823 11.5279 7.66847 11.1572 7.48994C10.7864 7.31142 10.3802 7.21871 9.96872 7.21871C9.55723 7.21871 9.15102 7.31142 8.78027 7.48994C8.40952 7.66847 8.08375 7.92823 7.82716 8.24992H7.56247V6.53117L2.96997 1.91117C2.82899 1.7683 2.74994 1.57565 2.74994 1.37492C2.74994 1.1742 2.82899 0.981548 2.96997 0.838673C3.10389 0.703915 3.28363 0.624499 3.47343 0.616219C3.66324 0.607938 3.8492 0.671402 3.99435 0.793986L6.34904 2.79461C6.84993 3.22101 7.42257 3.55505 8.04029 3.78117C8.65762 4.00925 9.31061 4.12565 9.96872 4.12492C11.295 4.1253 12.5781 3.65374 13.5884 2.79461L15.9431 0.793986C16.0781 0.678335 16.25 0.614913 16.4278 0.615236C16.5781 0.614923 16.7251 0.659186 16.8502 0.742425C16.9753 0.825665 17.0729 0.94414 17.1307 1.08287C17.1884 1.22159 17.2038 1.37434 17.1747 1.52178C17.1457 1.66922 17.0736 1.80473 16.9675 1.91117Z" fill="white"/>
<path d="M13.4062 15.8125V14.4375C13.4062 13.8905 13.189 13.3659 12.8022 12.9791C12.4154 12.5923 11.8908 12.375 11.3438 12.375H8.59375C8.04674 12.375 7.52214 12.5923 7.13534 12.9791C6.74855 13.3659 6.53125 13.8905 6.53125 14.4375V15.8125C6.53125 15.8125 7.21875 16.5 9.96875 16.5C12.7188 16.5 13.4062 15.8125 13.4062 15.8125Z" fill="white"/>
<path d="M9.96875 12.0312C11.1078 12.0312 12.0312 11.1078 12.0312 9.96875C12.0312 8.82966 11.1078 7.90625 9.96875 7.90625C8.82966 7.90625 7.90625 8.82966 7.90625 9.96875C7.90625 11.1078 8.82966 12.0312 9.96875 12.0312Z" fill="white"/>
<path d="M19.9375 13.4062V14.7812C19.9375 14.7812 19.25 15.4688 16.5 15.4688C15.6909 15.486 14.8828 15.404 14.0937 15.2247V14.4375C14.0935 14.0749 14.0214 13.716 13.8815 13.3814C13.7417 13.0469 13.5369 12.7434 13.2791 12.4884C13.4498 12.1448 13.713 11.8556 14.0391 11.6534C14.3652 11.4512 14.7413 11.344 15.125 11.3438H17.875C18.422 11.3438 18.9466 11.561 19.3334 11.9478C19.7202 12.3346 19.9375 12.8592 19.9375 13.4062Z" fill="white"/>
<path d="M16.5 11C17.6391 11 18.5625 10.0766 18.5625 8.9375C18.5625 7.79841 17.6391 6.875 16.5 6.875C15.3609 6.875 14.4375 7.79841 14.4375 8.9375C14.4375 10.0766 15.3609 11 16.5 11Z" fill="white"/>
<path d="M6.65844 12.4884C6.40058 12.7434 6.19581 13.0469 6.05598 13.3814C5.91614 13.716 5.84401 14.0749 5.84375 14.4375V15.2247C5.05465 15.404 4.24654 15.486 3.4375 15.4688C0.6875 15.4688 0 14.7812 0 14.7812V13.4062C0 12.8592 0.217299 12.3346 0.604092 11.9478C0.990886 11.561 1.51549 11.3438 2.0625 11.3438H4.8125C5.19621 11.344 5.57226 11.4512 5.89836 11.6534C6.22446 11.8556 6.48769 12.1448 6.65844 12.4884Z" fill="white"/>
<path d="M3.4375 11C4.57659 11 5.5 10.0766 5.5 8.9375C5.5 7.79841 4.57659 6.875 3.4375 6.875C2.29841 6.875 1.375 7.79841 1.375 8.9375C1.375 10.0766 2.29841 11 3.4375 11Z" fill="white"/>
</svg>
