<svg width="16" height="21" viewBox="0 0 16 21" fill="none" xmlns="http://www.w3.org/2000/svg">
<path d="M3.04998 20.4989H13.2499C14.6559 20.4989 15.7999 19.3553 15.7999 17.949V11.574C15.7999 10.1676 14.6559 9.02404 13.2499 9.02404V5.19907C13.2499 2.38702 10.962 0.0991211 8.14993 0.0991211C5.33788 0.0991211 3.04998 2.38702 3.04998 5.19907V9.02404C1.64392 9.02404 0.5 10.1676 0.5 11.574V17.949C0.5 19.3553 1.64392 20.4989 3.04998 20.4989ZM4.32496 5.19907C4.32496 3.08986 6.04072 1.37411 8.14993 1.37411C10.2591 1.37411 11.9749 3.08986 11.9749 5.19907V9.02404H4.32496V5.19907ZM1.77499 11.574C1.77499 10.8712 2.34682 10.299 3.04998 10.299H13.2499C13.953 10.299 14.5249 10.8712 14.5249 11.574V17.949C14.5249 18.6518 13.953 19.2239 13.2499 19.2239H3.04998C2.34682 19.2239 1.77499 18.6518 1.77499 17.949V11.574Z" fill="#002333"/>
<path d="M11.7899 15.2092C12.0277 14.9715 12.0436 14.5791 11.7899 14.3103C11.5474 14.0743 11.1269 14.0743 10.8847 14.3103C10.6494 14.5462 10.6282 14.9457 10.8847 15.2154C11.1424 15.4605 11.5357 15.4641 11.7899 15.2092Z" fill="#002333"/>
<path d="M8.60245 15.2154C8.84183 14.963 8.85541 14.5783 8.60245 14.3103C8.36652 14.0743 7.9329 14.0743 7.69728 14.3103C7.44477 14.5771 7.45732 14.9632 7.69728 15.2154C7.95533 15.4609 8.34382 15.4614 8.60245 15.2154Z" fill="#002333"/>
<path d="M5.41516 15.2092C5.65294 14.9715 5.66882 14.5791 5.41516 14.3103C5.17265 14.0743 4.75216 14.0743 4.50998 14.3103C4.26206 14.5723 4.26646 14.9594 4.50998 15.2154C4.76765 15.4605 5.16099 15.4641 5.41516 15.2092Z" fill="#002333"/>
</svg>
