<svg width="25" height="25" viewBox="0 0 25 25" fill="none" xmlns="http://www.w3.org/2000/svg">
<path d="M6.21484 3.87059C4.67258 5.41297 3.64645 7.39558 3.27778 9.54537C2.9091 11.6952 3.21601 13.9064 4.15625 15.8745L3.17969 16.8511C3.10705 16.9236 3.04943 17.0098 3.01011 17.1046C2.97079 17.1995 2.95056 17.3011 2.95056 17.4038C2.95056 17.5065 2.97079 17.6081 3.01011 17.703C3.04943 17.7978 3.10705 17.884 3.17969 17.9565L3.73047 18.5073L0.695312 21.5347L3.44922 24.3081L6.48828 21.269L7.03125 21.8237C7.10381 21.8964 7.18997 21.954 7.28481 21.9933C7.37965 22.0326 7.48132 22.0528 7.58398 22.0528C7.68665 22.0528 7.78831 22.0326 7.88316 21.9933C7.978 21.954 8.06416 21.8964 8.13672 21.8237L9.11328 20.8472C10.8574 21.682 12.7975 22.0213 14.7214 21.828C16.6454 21.6347 18.4791 20.9162 20.0223 19.751C21.5655 18.5859 22.7586 17.0189 23.4713 15.2214C24.184 13.4239 24.3888 11.465 24.0634 9.55898C23.738 7.65293 22.8948 5.87302 21.6261 4.41381C20.3574 2.9546 18.7119 1.87227 16.8696 1.28511C15.0273 0.697952 13.059 0.628574 11.1799 1.08456C9.30075 1.54054 7.58316 2.50434 6.21484 3.87059ZM19.75 17.4058C18.548 18.6072 17.0167 19.4253 15.3498 19.7565C13.6829 20.0878 11.9552 19.9174 10.3851 19.2668C8.81504 18.6163 7.47312 17.5148 6.52901 16.1016C5.58489 14.6885 5.08098 13.0271 5.08098 11.3276C5.08098 9.62811 5.58489 7.96676 6.52901 6.55361C7.47312 5.14046 8.81504 4.03898 10.3851 3.38842C11.9552 2.73786 13.6829 2.56744 15.3498 2.89871C17.0167 3.22997 18.548 4.04804 19.75 5.2495C20.5484 6.04755 21.1818 6.9951 21.6139 8.03801C22.0461 9.08091 22.2685 10.1987 22.2685 11.3276C22.2685 12.4565 22.0461 13.5743 21.6139 14.6172C21.1818 15.6601 20.5484 16.6077 19.75 17.4058Z" fill="white"/>
</svg>
