<svg width="29" height="27" viewBox="0 0 29 27" fill="none" xmlns="http://www.w3.org/2000/svg">
<path d="M18.297 22.221C14.3255 22.221 10.9504 19.6311 9.76451 16.0527H4.98601V14.2905H9.37248C9.33158 13.9432 9.30814 13.5909 9.30814 13.2327C9.30814 12.7534 9.34685 12.2829 9.41937 11.8233H4.98601V10.061H9.88773C10.2285 9.16084 10.71 8.32989 11.3048 7.59382H4.98601V5.8316H13.2055V5.83051C14.6537 4.83108 16.4077 4.2444 18.2964 4.2444C19.4447 4.2444 20.5423 4.46304 21.5526 4.85725V0.367188H0.0515747V22.926C0.0515747 24.8649 1.63768 26.451 3.57656 26.451H18.0282C19.9671 26.451 21.5532 24.8649 21.5532 22.926V21.6082C20.5428 22.0024 19.4453 22.221 18.297 22.221Z" fill="#172C4E"/>
<path d="M24.3082 17.2409C25.0743 16.0937 25.5219 14.7159 25.5219 13.2334C25.5219 9.24273 22.287 6.00781 18.2958 6.00781C14.3041 6.00781 11.0698 9.24273 11.0698 13.2334C11.0698 17.224 14.3036 20.4594 18.2958 20.4594C19.9125 20.4594 21.3999 19.9224 22.6033 19.0255L27.0246 23.4468L28.7688 21.702L24.3082 17.2409ZM18.2964 18.6972C15.2839 18.6972 12.8331 16.2464 12.8331 13.2334C12.8331 10.2209 15.2839 7.77003 18.2964 7.77003C21.3089 7.77003 23.7597 10.2209 23.7597 13.2334C23.7597 16.2458 21.3094 18.6972 18.2964 18.6972Z" fill="#172C4E"/>
</svg>
