<svg width="20" height="20" viewBox="0 0 20 20" fill="none" xmlns="http://www.w3.org/2000/svg">
<circle cx="10" cy="10" r="10" fill="#3EC9D6"/>
<path fill-rule="evenodd" clip-rule="evenodd" d="M10.0797 11.5119V12.4241C10.0797 12.4499 10.0925 12.4721 10.1148 12.485L10.8288 12.8972C10.8758 12.9244 10.9342 12.8906 10.9342 12.8363V11.6182L13.881 9.91691L14.8099 10.4532C14.8844 10.4962 14.9271 10.5701 14.9271 10.6562V13.7882C14.9271 13.8742 14.8844 13.9481 14.8099 13.9911L12.0975 15.5571C12.023 15.6001 11.9377 15.6001 11.8631 15.5571L9.15075 13.9911C9.07622 13.9481 9.03356 13.8742 9.03356 13.7882V10.9539L9.87049 11.4371C9.9367 11.4753 10.0075 11.5003 10.0797 11.5119ZM10.2924 4.44243C10.2178 4.3994 10.1325 4.3994 10.058 4.44243L7.34561 6.00843C7.27108 6.05146 7.22843 6.12536 7.22843 6.2114V9.34337C7.22843 9.42944 7.27108 9.50331 7.34561 9.54634L10.058 11.1123C10.1325 11.1554 10.2178 11.1554 10.2924 11.1123L13.0047 9.54634C13.0793 9.50331 13.1219 9.42944 13.1219 9.34337V6.2114C13.1219 6.12534 13.0793 6.05146 13.0047 6.00843L12.0758 5.47213L9.12909 7.17344V8.39153C9.12909 8.44584 9.07066 8.47956 9.02362 8.45242L8.30969 8.04023C8.28733 8.02731 8.27454 8.00516 8.27454 7.97934V6.68005L11.2213 4.97875L10.2924 4.44243ZM6.85343 8.41422L6.11908 8.8382V10.1375C6.11908 10.1633 6.13188 10.1855 6.15424 10.1984L6.86817 10.6106C6.91519 10.6377 6.97364 10.604 6.97364 10.5497V9.70806C7.02227 9.77298 7.08447 9.8286 7.15809 9.87109L8.65854 10.7374V12.9693L8.13689 13.2705C8.06236 13.3135 7.97704 13.3135 7.90251 13.2705L5.19019 11.7045C5.11565 11.6615 5.073 11.5876 5.073 11.5015V8.36955C5.073 8.28348 5.11565 8.20961 5.19019 8.16658L6.85343 7.20632V8.41422Z" fill="white"/>
</svg>
