<svg width="18" height="18" viewBox="0 0 18 18" fill="none" xmlns="http://www.w3.org/2000/svg">
<path fill-rule="evenodd" clip-rule="evenodd" d="M13.7316 9.59775L14.0076 10.2623C14.1148 10.3163 14.2191 10.3763 14.3188 10.4423L15.0328 10.3485C15.2196 10.3245 15.4056 10.395 15.5293 10.5368C15.8646 10.9208 16.1226 11.367 16.2876 11.8493C16.3483 12.0278 16.3161 12.2243 16.2021 12.3735C16.2021 12.3735 15.7641 12.9458 15.7641 12.945C15.7708 13.065 15.7708 13.1858 15.7641 13.3043L16.2021 13.8765C16.3161 14.0258 16.3483 14.2223 16.2876 14.4008C16.1226 14.883 15.8646 15.3293 15.5293 15.7133C15.4056 15.855 15.2196 15.9255 15.0328 15.9015L14.3188 15.8078C14.2183 15.8738 14.1141 15.9338 14.0076 15.9878L13.7316 16.6523C13.6596 16.8263 13.5051 16.9523 13.3206 16.989C12.8196 17.0873 12.3051 17.0873 11.8041 16.989C11.6196 16.9523 11.4651 16.8263 11.3931 16.6523L11.1171 15.9878C11.0098 15.9338 10.9056 15.8738 10.8058 15.8078L10.0918 15.9015C9.90505 15.9255 9.71905 15.855 9.5953 15.7133C9.26005 15.3293 9.00205 14.883 8.83705 14.4008C8.7763 14.2223 8.80855 14.0258 8.92255 13.8765C8.92255 13.8765 9.36055 13.3043 9.36055 13.305C9.3538 13.185 9.3538 13.0643 9.36055 12.9458L8.92255 12.3735C8.80855 12.2243 8.7763 12.0278 8.83705 11.8493C9.00205 11.367 9.26005 10.9208 9.5953 10.5368C9.71905 10.395 9.90505 10.3245 10.0918 10.3485L10.8058 10.4423C10.9063 10.3763 11.0106 10.3163 11.1171 10.2623L11.3931 9.59775C11.4651 9.42375 11.6196 9.29775 11.8041 9.261C12.3051 9.16275 12.8196 9.16275 13.3206 9.261C13.5051 9.29775 13.6596 9.42375 13.7316 9.59775ZM12.5623 12.1875C12.0448 12.1875 11.6248 12.6075 11.6248 13.125C11.6248 13.6425 12.0448 14.0625 12.5623 14.0625C13.0798 14.0625 13.4998 13.6425 13.4998 13.125C13.4998 12.6075 13.0798 12.1875 12.5623 12.1875Z" fill="white"/>
<path fill-rule="evenodd" clip-rule="evenodd" d="M10.7586 17.0625H3.74463C3.19713 17.0625 2.67288 16.845 2.28588 16.4587C1.89888 16.0717 1.68213 15.5468 1.68213 15V3C1.68213 2.45325 1.89888 1.92825 2.28588 1.54125C2.67288 1.155 3.19713 0.9375 3.74463 0.9375H10.1834C10.5321 0.9375 10.8659 1.0755 11.1119 1.32225L14.4224 4.63275C14.6684 4.87875 14.8071 5.2125 14.8071 5.5605V9.62175L14.5671 9.65325C14.4966 9.483 14.4246 9.30975 14.4246 9.30975C14.2559 8.904 13.8959 8.61 13.4646 8.52525C12.8691 8.40825 12.2556 8.40825 11.6601 8.52525C11.2289 8.61 10.8689 8.904 10.7001 9.30975L10.5576 9.65325C10.3754 9.62925 10.1894 9.60525 10.1894 9.60525C9.75363 9.54825 9.31863 9.7125 9.02988 10.0433C8.63088 10.5015 8.32413 11.0317 8.12763 11.607C7.98513 12.0217 8.06013 12.4815 8.32713 12.8295L8.55363 13.125C8.44188 13.2712 8.32713 13.4205 8.32713 13.4205C8.06013 13.7685 7.98513 14.2283 8.12763 14.643C8.32413 15.2183 8.63088 15.7485 9.02988 16.2067C9.31863 16.5375 9.75363 16.7018 10.1894 16.6448L10.5576 16.5968C10.6281 16.767 10.7001 16.9403 10.7001 16.9403C10.7181 16.9823 10.7376 17.0228 10.7586 17.0625ZM10.1196 1.9425V4.875C10.1196 5.289 10.4549 5.625 10.8696 5.625H13.8021C13.7654 5.544 13.7136 5.46975 13.6499 5.40525L10.3394 2.09475C10.2749 2.03025 10.2006 1.97925 10.1196 1.9425ZM4.49463 5.79825H7.86963C8.18013 5.79825 8.43213 5.54625 8.43213 5.23575C8.43213 4.92525 8.18013 4.67325 7.86963 4.67325H4.49463C4.18413 4.67325 3.93213 4.92525 3.93213 5.23575C3.93213 5.54625 4.18413 5.79825 4.49463 5.79825ZM4.49463 13.6875H7.11963C7.43013 13.6875 7.68213 13.4355 7.68213 13.125C7.68213 12.8145 7.43013 12.5625 7.11963 12.5625H4.49463C4.18413 12.5625 3.93213 12.8145 3.93213 13.125C3.93213 13.4355 4.18413 13.6875 4.49463 13.6875ZM4.49463 11.0625H7.11963C7.43013 11.0625 7.68213 10.8105 7.68213 10.5C7.68213 10.1895 7.43013 9.9375 7.11963 9.9375H4.49463C4.18413 9.9375 3.93213 10.1895 3.93213 10.5C3.93213 10.8105 4.18413 11.0625 4.49463 11.0625ZM4.49463 8.4375H9.74463C10.0551 8.4375 10.3071 8.1855 10.3071 7.875C10.3071 7.5645 10.0551 7.3125 9.74463 7.3125H4.49463C4.18413 7.3125 3.93213 7.5645 3.93213 7.875C3.93213 8.1855 4.18413 8.4375 4.49463 8.4375Z" fill="white"/>
</svg>
