<svg width="14" height="16" viewBox="0 0 14 16" fill="none" xmlns="http://www.w3.org/2000/svg">
<path d="M11.1127 0.488305C11.1973 0.286908 11.3906 0.152424 11.6089 0.143318C11.8271 0.134144 12.0311 0.25192 12.1322 0.445437C12.2335 0.639023 12.2137 0.873735 12.0814 1.04762L11.2806 2.43465L10.3119 1.87533L11.1127 0.488305ZM6.36892 1.993L8.43718 1.43881L9.54785 2.08006L8.18774 4.43584C8.18104 4.44743 8.17772 4.46002 8.17126 4.47175C8.16474 4.48359 8.15585 4.49107 8.14957 4.50195C7.84069 5.03694 8.02402 5.72114 8.55901 6.03002C9.09412 6.33897 9.7782 6.15557 10.0871 5.62057C10.396 5.08546 10.2127 4.40145 9.67764 4.0925C9.50657 3.995 9.31252 3.94493 9.11556 3.94742L10.0322 2.35971L12.5961 3.83999L13.1502 5.90819L7.47517 15.7377L0.693868 11.8225L6.36892 1.993ZM8.65503 4.75247C8.82392 4.49899 9.16453 4.42712 9.42136 4.59101C9.67814 4.75472 9.75665 5.09395 9.59796 5.35379C9.43932 5.61381 9.10182 5.69915 8.83867 5.54564C8.57777 5.37104 8.49735 5.02393 8.65503 4.75247Z" fill="white"/>
</svg>
