<svg width="18" height="24" viewBox="0 0 18 24" fill="none" xmlns="http://www.w3.org/2000/svg">
<path d="M9.14043 0C5.51324 0 2.61149 2.90175 2.61149 6.52893V9.43068C1.37825 9.43068 0.435181 10.3738 0.435181 11.607V21.0377C0.435181 22.2709 1.37825 23.214 2.61149 23.214H15.6694C16.9026 23.214 17.8457 22.2709 17.8457 21.0377V11.607C17.8457 10.3738 16.9026 9.43068 15.6694 9.43068V6.52893C15.6694 2.90175 12.7676 0 9.14043 0ZM16.3948 11.607V21.0377C16.3948 21.4729 16.1046 21.7631 15.6694 21.7631H2.61149C2.17623 21.7631 1.88606 21.4729 1.88606 21.0377V11.607C1.88606 11.1717 2.17623 10.8816 2.61149 10.8816H3.33693H14.9439H15.6694C16.1046 10.8816 16.3948 11.1717 16.3948 11.607ZM4.06237 9.43068V6.52893C4.06237 3.69973 6.31122 1.45087 9.14043 1.45087C11.9696 1.45087 14.2185 3.69973 14.2185 6.52893V9.43068H4.06237Z" fill="black"/>
<path d="M9.1403 13.0581C7.90706 13.0581 6.96399 14.0012 6.96399 15.2344C6.96399 16.1775 7.54434 16.9755 8.41486 17.2656V18.8616C8.41486 19.2969 8.70504 19.587 9.1403 19.587C9.57556 19.587 9.86574 19.2969 9.86574 18.8616V17.2656C10.7363 16.9755 11.3166 16.1775 11.3166 15.2344C11.3166 14.0012 10.3735 13.0581 9.1403 13.0581ZM9.1403 15.9599C8.70504 15.9599 8.41486 15.6697 8.41486 15.2344C8.41486 14.7992 8.70504 14.509 9.1403 14.509C9.57556 14.509 9.86574 14.7992 9.86574 15.2344C9.86574 15.6697 9.57556 15.9599 9.1403 15.9599Z" fill="black"/>
</svg>
