<svg width="23" height="23" viewBox="0 0 23 23" fill="none" xmlns="http://www.w3.org/2000/svg">
<g clip-path="url(#clip0_17_478)">
<path d="M13.9306 21.3027L10.827 21.3026V18.2593H4.65589V16.9134H12.1126L13.8099 15.216H4.65589V13.8701H15.1558L16.8532 12.1728H4.65589V10.8269H18.1991L19.9568 9.06919V0.848664C19.9568 0.380713 19.5761 0 19.1081 0C18.6402 0 18.2594 0.380713 18.2594 0.848664C18.2594 1.31653 18.6401 1.69715 19.108 1.69715H19.1081V3.04305L3.04324 3.04319V23H19.9568V15.2766L13.9306 21.3027ZM4.65589 7.7837H12.2577V9.12961H4.65589V7.7837Z" fill="white"/>
<path d="M0.848484 1.69728L17.0842 1.69715C16.9743 1.43597 16.9135 1.14928 16.9135 0.848664C16.9135 0.548002 16.9744 0.261176 17.0843 3.97498e-09H0.848664C0.380713 -4.49179e-05 0 0.380668 0 0.848619C0 1.31662 0.380668 1.69728 0.848484 1.69728Z" fill="white"/>
<path d="M23 9.97919C23 9.75247 22.9117 9.53936 22.7514 9.37903C22.4205 9.04814 21.8821 9.04814 21.5511 9.37903L20.951 9.9791L22.1514 11.1794L22.7514 10.5793C22.9117 10.4191 23 10.2059 23 9.97919Z" fill="white"/>
<path d="M14.0164 19.3136L12.8161 18.1133L12.1729 18.7564V19.9567L13.3732 19.9568L14.0164 19.3136Z" fill="white"/>
<path d="M13.7649 17.1611L19.9956 10.9304L21.1957 12.1305L14.965 18.3612L13.7649 17.1611Z" fill="white"/>
</g>
<defs>
<clipPath id="clip0_17_478">
<rect width="23" height="23" fill="white"/>
</clipPath>
</defs>
</svg>
