<svg width="21" height="24" viewBox="0 0 21 24" fill="none" xmlns="http://www.w3.org/2000/svg">
<path opacity="0.963" fill-rule="evenodd" clip-rule="evenodd" d="M8.13185 0.00305244C11.973 -0.0050872 15.8142 0.00305244 19.6553 0.0274665C20.065 0.241758 20.1708 0.559141 19.9727 0.979615C19.8769 1.10829 19.7548 1.19781 19.6065 1.24817C17.865 1.27258 16.1235 1.28072 14.3818 1.27258C14.39 6.46467 14.3818 11.6567 14.3574 16.8488C14.141 17.2954 13.8073 17.4175 13.3565 17.215C13.2116 17.1124 13.1221 16.974 13.0879 16.7999C13.0635 11.6242 13.0553 6.44841 13.0635 1.27258C11.8265 1.27258 10.5895 1.27258 9.35255 1.27258C9.36071 6.49724 9.35255 11.7218 9.32814 16.9464C9.00441 17.3908 8.63009 17.4396 8.20509 17.0929C8.17252 17.0278 8.14 16.9627 8.10743 16.8976C8.09118 14.9445 8.07487 12.9913 8.05861 11.0382C6.02081 10.7084 4.55597 9.61794 3.66408 7.76672C2.72965 5.24651 3.24235 3.07367 5.20216 1.24817C6.06959 0.571275 7.04616 0.156236 8.13185 0.00305244ZM7.98536 1.37024C8.05045 2.74518 8.08302 4.13678 8.08302 5.54504C8.06676 6.93665 8.05045 8.32825 8.03419 9.71985C5.84435 9.197 4.67247 7.81355 4.51857 5.56946C4.5942 3.66366 5.50563 2.33717 7.25294 1.58997C7.50084 1.50794 7.74498 1.43469 7.98536 1.37024Z" fill="#013D29"/>
<path opacity="0.971" fill-rule="evenodd" clip-rule="evenodd" d="M4.4209 16.3605C5.03823 16.3348 5.30679 16.6278 5.22656 17.2394C4.57148 17.9434 3.89604 18.6351 3.2002 19.3146C8.47363 19.3308 13.7471 19.3471 19.0205 19.3634C19.37 19.5645 19.4921 19.8655 19.3867 20.2667C19.3135 20.4376 19.1914 20.5597 19.0205 20.6329C13.7471 20.6492 8.47363 20.6655 3.2002 20.6818C3.82822 21.3261 4.47114 21.9528 5.12891 22.5616C5.36958 23.0212 5.26377 23.3711 4.81152 23.6114C4.60459 23.6516 4.40928 23.6191 4.22559 23.5138C3.12695 22.4152 2.02832 21.3165 0.929688 20.2179C0.832031 20.0714 0.832031 19.9249 0.929688 19.7784C2.07342 18.6102 3.23716 17.4709 4.4209 16.3605Z" fill="#013D29"/>
</svg>
