<svg width="14" height="13" viewBox="0 0 14 13" fill="none" xmlns="http://www.w3.org/2000/svg">
<path fill-rule="evenodd" clip-rule="evenodd" d="M8.50633 3.28421C8.50633 2.13463 8.50633 1.55984 8.27455 1.12076C8.07066 0.734527 7.74534 0.420516 7.34519 0.223723C6.89027 8.15643e-08 6.29483 0 5.1038 0H3.40253C2.2115 0 1.61606 8.15643e-08 1.16111 0.223723C0.760962 0.420516 0.435666 0.734527 0.231797 1.12076C0 1.55984 0 2.13463 0 3.28421V9.71579C0 10.8654 0 11.4401 0.231797 11.8793C0.435666 12.2655 0.760962 12.5795 1.16111 12.7763C1.61606 13 2.2115 13 3.40253 13H5.1038C6.29483 13 6.89027 13 7.34519 12.7763C7.74534 12.5795 8.07066 12.2655 8.27455 11.8793C8.50633 11.4401 8.50633 10.8654 8.50633 9.71579V8.72368H5.67089C4.39855 8.72368 3.36709 7.72809 3.36709 6.5C3.36709 5.27191 4.39855 4.27632 5.67089 4.27632H8.50633V3.28421ZM10.3608 5.05213C10.0148 4.71813 10.0148 4.17661 10.3608 3.84261C10.7068 3.5086 11.2679 3.5086 11.6139 3.84261L13.7405 5.89523C14.0865 6.22926 14.0865 6.77074 13.7405 7.10477L11.6139 9.1574C11.2679 9.49137 10.7068 9.49137 10.3608 9.1574C10.0148 8.82337 10.0148 8.28189 10.3608 7.94786L10.9747 7.35526H5.67089C5.18149 7.35526 4.78481 6.97238 4.78481 6.5C4.78481 6.02762 5.18149 5.64474 5.67089 5.64474H10.9747L10.3608 5.05213Z" fill="white"/>
</svg>
