<svg width="20" height="23" viewBox="0 0 20 23" fill="none" xmlns="http://www.w3.org/2000/svg">
<path fill-rule="evenodd" clip-rule="evenodd" d="M12.6339 2.90248C9.61843 7.3483 4.02909 8.78991 4.02909 8.78991C3.60037 8.89969 3.16364 8.64086 3.05386 8.21215C2.94408 7.78343 3.20291 7.3467 3.63162 7.23692C3.63162 7.23692 8.95412 5.88827 11.5561 1.61633L9.97983 1.60271C9.53749 1.5987 9.1817 1.2365 9.18571 0.79416C9.18971 0.351821 9.55192 -0.00397318 9.99426 3.35108e-05L13.424 0.0304844C13.8615 0.0336898 14.2149 0.38708 14.2181 0.82461L14.2478 4.175C14.2518 4.61734 13.896 4.97955 13.4536 4.98355C13.0113 4.98756 12.6491 4.63177 12.6451 4.18943L12.6339 2.90248ZM5.82168 22.4375H2.22768C1.3422 22.4375 0.625 21.7203 0.625 20.8348V13.6228C0.625 12.7373 1.3422 12.0201 2.22768 12.0201H5.82168V22.4375ZM7.42436 11.2468C7.42436 10.3461 8.15438 9.61609 9.05509 9.61609H11.3605C12.2612 9.61609 12.9913 10.3461 12.9913 11.2468V22.4375H7.42436V11.2468ZM14.5939 8.04146C14.5939 7.14076 15.324 6.41074 16.2239 6.41074H18.2545C19.1399 6.41074 19.8571 7.12794 19.8571 8.01341V20.8348C19.8571 21.7203 19.1399 22.4375 18.2545 22.4375H14.5939V8.04146Z" fill="white"/>
</svg>
