<svg width="37" height="37" viewBox="0 0 37 37" fill="none" xmlns="http://www.w3.org/2000/svg">
<rect width="36.8367" height="36.8367" rx="5.26239" fill="#FFA21D"/>
<g clip-path="url(#clip0_6_2011)">
<path d="M17.8575 17.6341C19.181 17.6341 20.3271 17.1594 21.2635 16.2228C22.2 15.2863 22.6747 14.1406 22.6747 12.8169C22.6747 11.4936 22.2 10.3477 21.2634 9.41097C20.3268 8.4747 19.1809 8 17.8575 8C16.5338 8 15.388 8.4747 14.4516 9.41113C13.5151 10.3476 13.0403 11.4935 13.0403 12.8169C13.0403 14.1406 13.5151 15.2865 14.4517 16.2229C15.3883 17.1592 16.5342 17.6341 17.8575 17.6341Z" fill="white"/>
<path d="M26.2863 23.3789C26.2593 22.9891 26.2047 22.564 26.1242 22.1151C26.0431 21.6629 25.9385 21.2353 25.8134 20.8445C25.6842 20.4406 25.5084 20.0418 25.2911 19.6595C25.0656 19.2628 24.8007 18.9174 24.5034 18.6331C24.1926 18.3357 23.8121 18.0966 23.372 17.9222C22.9335 17.7487 22.4475 17.6608 21.9276 17.6608C21.7234 17.6608 21.526 17.7446 21.1447 17.9928C20.91 18.1459 20.6355 18.3229 20.3291 18.5186C20.0671 18.6856 19.7122 18.842 19.2738 18.9836C18.8461 19.122 18.4118 19.1922 17.9832 19.1922C17.5546 19.1922 17.1205 19.122 16.6923 18.9836C16.2544 18.8421 15.8995 18.6857 15.6378 18.5188C15.3343 18.3249 15.0596 18.1479 14.8214 17.9927C14.4406 17.7444 14.243 17.6606 14.0388 17.6606C13.5188 17.6606 13.033 17.7487 12.5946 17.9223C12.1548 18.0964 11.7741 18.3355 11.463 18.6332C11.1659 18.9177 10.9008 19.263 10.6756 19.6595C10.4585 20.0418 10.2827 20.4405 10.1533 20.8447C10.0284 21.2355 9.92383 21.6629 9.84265 22.1151C9.76224 22.5634 9.70761 22.9887 9.6806 23.3793C9.65405 23.762 9.64062 24.1592 9.64062 24.5603C9.64062 25.6043 9.9725 26.4495 10.627 27.0728C11.2733 27.6879 12.1286 28 13.1686 28H22.7987C23.8388 28 24.6937 27.6881 25.3402 27.0728C25.9948 26.45 26.3267 25.6046 26.3267 24.5602C26.3266 24.1572 26.313 23.7597 26.2863 23.3789Z" fill="white"/>
</g>
<defs>
<clipPath id="clip0_6_2011">
<rect width="20" height="20" fill="white" transform="translate(8 8)"/>
</clipPath>
</defs>
</svg>
