<svg width="35" height="35" viewBox="0 0 35 35" fill="none" xmlns="http://www.w3.org/2000/svg">
<rect width="35" height="35" rx="5" fill="#FF3A6E"/>
<path d="M22.19 7H13.81C10.17 7 8 9.17 8 12.81V21.19C8 24.83 10.17 27 13.81 27H22.19C25.83 27 28 24.83 28 21.19V12.81C28 9.17 25.83 7 22.19 7ZM15.97 19.9L13.72 22.15C13.57 22.3 13.38 22.37 13.19 22.37C13 22.37 12.8 22.3 12.66 22.15L11.91 21.4C11.61 21.11 11.61 20.63 11.91 20.34C12.2 20.05 12.67 20.05 12.97 20.34L13.19 20.56L14.91 18.84C15.2 18.55 15.67 18.55 15.97 18.84C16.26 19.13 16.26 19.61 15.97 19.9ZM15.97 12.9L13.72 15.15C13.57 15.3 13.38 15.37 13.19 15.37C13 15.37 12.8 15.3 12.66 15.15L11.91 14.4C11.61 14.11 11.61 13.63 11.91 13.34C12.2 13.05 12.67 13.05 12.97 13.34L13.19 13.56L14.91 11.84C15.2 11.55 15.67 11.55 15.97 11.84C16.26 12.13 16.26 12.61 15.97 12.9ZM23.56 21.62H18.31C17.9 21.62 17.56 21.28 17.56 20.87C17.56 20.46 17.9 20.12 18.31 20.12H23.56C23.98 20.12 24.31 20.46 24.31 20.87C24.31 21.28 23.98 21.62 23.56 21.62ZM23.56 14.62H18.31C17.9 14.62 17.56 14.28 17.56 13.87C17.56 13.46 17.9 13.12 18.31 13.12H23.56C23.98 13.12 24.31 13.46 24.31 13.87C24.31 14.28 23.98 14.62 23.56 14.62Z" fill="white"/>
</svg>
