<svg width="35" height="35" viewBox="0 0 35 35" fill="none" xmlns="http://www.w3.org/2000/svg">
<rect width="35" height="35" rx="5" fill="#0CAF60"/>
<path fill-rule="evenodd" clip-rule="evenodd" d="M7 25C7 24.4477 7.44772 24 8 24H9.5C10.0523 24 10.5 24.4477 10.5 25C10.5 25.5523 10.0523 26 9.5 26H8C7.44772 26 7 25.5523 7 25Z" fill="white"/>
<path fill-rule="evenodd" clip-rule="evenodd" d="M12.5 25C12.5 24.4477 12.9477 24 13.5 24H26C26.5523 24 27 24.4477 27 25C27 25.5523 26.5523 26 26 26H13.5C12.9477 26 12.5 25.5523 12.5 25Z" fill="white"/>
<path fill-rule="evenodd" clip-rule="evenodd" d="M7 19C7 18.4477 7.44772 18 8 18H9.5C10.0523 18 10.5 18.4477 10.5 19C10.5 19.5523 10.0523 20 9.5 20H8C7.44772 20 7 19.5523 7 19Z" fill="white"/>
<path fill-rule="evenodd" clip-rule="evenodd" d="M12.5 19C12.5 18.4477 12.9477 18 13.5 18H26C26.5523 18 27 18.4477 27 19C27 19.5523 26.5523 20 26 20H13.5C12.9477 20 12.5 19.5523 12.5 19Z" fill="white"/>
<path fill-rule="evenodd" clip-rule="evenodd" d="M15.5 13C15.5 12.4477 15.9477 12 16.5 12H26C26.5523 12 27 12.4477 27 13C27 13.5523 26.5523 14 26 14H16.5C15.9477 14 15.5 13.5523 15.5 13Z" fill="white"/>
<path fill-rule="evenodd" clip-rule="evenodd" d="M15.7071 9.29289C16.0976 9.68342 16.0976 10.3166 15.7071 10.7071L10.7071 15.7071C10.3166 16.0976 9.68342 16.0976 9.29289 15.7071L7.29289 13.7071C6.90237 13.3166 6.90237 12.6834 7.29289 12.2929C7.68342 11.9024 8.31658 11.9024 8.70711 12.2929L10 13.5858L14.2929 9.29289C14.6834 8.90237 15.3166 8.90237 15.7071 9.29289Z" fill="white"/>
</svg>
