<svg width="42" height="42" viewBox="0 0 42 42" fill="none" xmlns="http://www.w3.org/2000/svg">
<g clip-path="url(#clip0_1_59)">
<path d="M14.0175 21.8702C12.9069 20.674 14.5631 19.0195 15.758 20.1297L18.9489 23.3206L26.201 16.0686C26.6816 15.5879 27.4608 15.5879 27.9414 16.0686C28.4221 16.5492 28.4221 17.3284 27.9414 17.809L19.8191 25.9313C19.3385 26.4119 18.5593 26.4119 18.0787 25.9313L14.0175 21.8702ZM15.2965 8.51056C15.9762 8.51056 16.5272 7.95953 16.5272 7.27985C16.4669 5.64907 14.1258 5.64956 14.0658 7.27985C14.0658 7.95953 14.6168 8.51056 15.2965 8.51056ZM10.4786 11.7296C11.1583 11.7296 11.7093 11.1786 11.7093 10.4989C11.649 8.86813 9.30791 8.86862 9.24785 10.4989C9.24785 11.1786 9.79888 11.7296 10.4786 11.7296ZM41.9838 20.9999C42.0158 39.6055 19.2594 49.0312 6.12716 35.8519C-2.02018 28.0337 -2.02157 13.9659 6.12749 6.14767C19.2608 -7.03109 42.017 2.39505 41.9838 20.9999ZM39.5223 20.9999C39.5223 10.7753 31.2041 2.45708 20.9795 2.45708C-3.58622 3.38931 -3.5795 38.6142 20.9798 39.5427C31.2041 39.5427 39.5223 31.2244 39.5223 20.9999ZM20.9795 4.91851C19.3467 4.97882 19.353 7.323 20.9795 7.37994C28.4895 7.37994 34.5995 13.4898 34.5995 20.9999C33.9148 39.0434 8.04183 39.0392 7.3596 20.9997C7.3596 20.3202 6.80857 19.7692 6.12889 19.7692C5.4492 19.7692 4.89817 20.3202 4.89817 20.9999C4.89817 29.8672 12.1122 37.0812 20.9795 37.0812C42.284 36.2728 42.279 5.72397 20.9795 4.91851ZM7.25934 16.5475C7.93902 16.5475 8.49006 15.9964 8.49006 15.3168C8.42975 13.686 6.08868 13.6865 6.02862 15.3168C6.02862 15.9964 6.57966 16.5475 7.25934 16.5475Z" fill="#013D29"/>
</g>
<defs>
<clipPath id="clip0_1_59">
<rect width="42" height="42" fill="white"/>
</clipPath>
</defs>
</svg>
