<svg width="20" height="20" viewBox="0 0 20 20" fill="none" xmlns="http://www.w3.org/2000/svg">
<circle cx="10" cy="10" r="10" fill="#6FD943"/>
<path d="M6.70223 8.02369H5.89275C5.55803 8.02369 5.28564 7.7513 5.28564 7.41658V6.60711C5.28564 6.27239 5.55803 6 5.89275 6H6.70223C7.03694 6 7.30933 6.27239 7.30933 6.60711V7.41658C7.30933 7.7513 7.03694 8.02369 6.70223 8.02369ZM5.89275 6.40474C5.78145 6.40474 5.69038 6.4958 5.69038 6.60711V7.41658C5.69038 7.52788 5.78145 7.61895 5.89275 7.61895H6.70223C6.81353 7.61895 6.9046 7.52788 6.9046 7.41658V6.60711C6.9046 6.4958 6.81353 6.40474 6.70223 6.40474H5.89275Z" fill="white"/>
<path d="M6.70223 11.262H5.89275C5.55803 11.262 5.28564 10.9896 5.28564 10.6549V9.84539C5.28564 9.51067 5.55803 9.23828 5.89275 9.23828H6.70223C7.03694 9.23828 7.30933 9.51067 7.30933 9.84539V10.6549C7.30933 10.9896 7.03694 11.262 6.70223 11.262ZM5.89275 9.64302C5.78145 9.64302 5.69038 9.73408 5.69038 9.84539V10.6549C5.69038 10.7662 5.78145 10.8572 5.89275 10.8572H6.70223C6.81353 10.8572 6.9046 10.7662 6.9046 10.6549V9.84539C6.9046 9.73408 6.81353 9.64302 6.70223 9.64302H5.89275Z" fill="white"/>
<path d="M6.70223 14.4998H5.89275C5.55803 14.4998 5.28564 14.2274 5.28564 13.8927V13.0832C5.28564 12.7485 5.55803 12.4761 5.89275 12.4761H6.70223C7.03694 12.4761 7.30933 12.7485 7.30933 13.0832V13.8927C7.30933 14.2274 7.03694 14.4998 6.70223 14.4998ZM5.89275 12.8808C5.78145 12.8808 5.69038 12.9719 5.69038 13.0832V13.8927C5.69038 14.004 5.78145 14.095 5.89275 14.095H6.70223C6.81353 14.095 6.9046 14.004 6.9046 13.8927V13.0832C6.9046 12.9719 6.81353 12.8808 6.70223 12.8808H5.89275Z" fill="white"/>
<path d="M14.797 7.2148H8.3212C8.2095 7.2148 8.11884 7.12413 8.11884 7.01243C8.11884 6.90072 8.2095 6.81006 8.3212 6.81006H14.797C14.9087 6.81006 14.9994 6.90072 14.9994 7.01243C14.9994 7.12413 14.9087 7.2148 14.797 7.2148Z" fill="white"/>
<path d="M14.797 10.4521H8.3212C8.2095 10.4521 8.11884 10.3614 8.11884 10.2497C8.11884 10.138 8.2095 10.0474 8.3212 10.0474H14.797C14.9087 10.0474 14.9994 10.138 14.9994 10.2497C14.9994 10.3614 14.9087 10.4521 14.797 10.4521Z" fill="white"/>
<path d="M14.797 13.6899H8.3212C8.2095 13.6899 8.11884 13.5992 8.11884 13.4875C8.11884 13.3758 8.2095 13.2852 8.3212 13.2852H14.797C14.9087 13.2852 14.9994 13.3758 14.9994 13.4875C14.9994 13.5992 14.9087 13.6899 14.797 13.6899Z" fill="white"/>
</svg>
