<svg width="35" height="35" viewBox="0 0 35 35" fill="none" xmlns="http://www.w3.org/2000/svg">
<rect width="35" height="35" rx="5" fill="#3EC9D6"/>
<g clip-path="url(#clip0_34_423)">
<path d="M9.58338 8.00031H16.1642C16.5996 8.00031 17.208 8.25251 17.5156 8.55986L26.5379 17.5822C27.154 18.1975 27.154 19.2064 26.5379 19.821L19.8201 26.5387C19.2054 27.154 18.1975 27.154 17.5819 26.538L8.55954 17.5171C8.25223 17.2098 7.99998 16.6003 7.99998 16.1659V9.5837C7.99998 8.71303 8.71276 8.00031 9.58338 8.00031ZM12.7502 14.3337C13.6247 14.3337 14.3336 13.624 14.3336 12.7503C14.3336 11.8751 13.6247 11.1669 12.7502 11.1669C11.8757 11.1669 11.1666 11.8751 11.1666 12.7503C11.1665 13.624 11.8757 14.3337 12.7502 14.3337Z" fill="white"/>
</g>
<defs>
<clipPath id="clip0_34_423">
<rect width="19" height="19" fill="white" transform="matrix(-1 0 0 1 27 8)"/>
</clipPath>
</defs>
</svg>
