<svg width="37" height="37" viewBox="0 0 37 37" fill="none" xmlns="http://www.w3.org/2000/svg">
<rect width="36.8367" height="36.8367" rx="5.26239" fill="#3EC9D6"/>
<path d="M27.5219 8.64577C27.5047 8.56843 27.4445 8.50827 27.3715 8.48679C24.8535 7.87233 19.0398 10.0637 15.8902 13.2133C15.3273 13.7719 14.816 14.3778 14.3605 15.0223C13.3894 14.9364 12.4184 15.0094 11.5891 15.3704C9.25155 16.3973 8.57265 19.0829 8.37929 20.2344C8.34062 20.4579 8.49101 20.6727 8.71874 20.7114C8.75741 20.7157 8.79608 20.72 8.83476 20.7157L12.5859 20.3032C12.5902 20.5868 12.6074 20.8704 12.6375 21.1497C12.6547 21.343 12.7449 21.5278 12.8824 21.6653L14.3348 23.1134C14.4723 23.2509 14.657 23.3411 14.8504 23.3583C15.1297 23.3884 15.409 23.4055 15.6926 23.4098L15.2801 27.1567C15.2543 27.3844 15.4219 27.5907 15.6496 27.6122C15.6883 27.6165 15.7269 27.6165 15.7613 27.6079C16.9129 27.4231 19.6027 26.7442 20.6254 24.4067C20.9863 23.5774 21.0594 22.6106 20.9777 21.6438C21.6266 21.1884 22.2324 20.6727 22.791 20.1141C25.9492 16.9731 28.1277 11.2883 27.5219 8.64577ZM22.5504 16.363C21.7469 17.1665 20.4406 17.1708 19.6371 16.363C18.8293 15.5594 18.8293 14.2532 19.6371 13.4454C20.4406 12.6376 21.7469 12.6376 22.5547 13.4454C23.3582 14.2532 23.3582 15.5594 22.5504 16.363Z" fill="white"/>
<path d="M14.2359 24.1616C13.9996 24.398 13.6215 24.4882 13.166 24.5698C12.1434 24.7417 11.241 23.8609 11.4258 22.8296C11.4945 22.4386 11.7051 21.8886 11.834 21.7597C11.907 21.6866 11.9113 21.5663 11.8383 21.4933C11.7953 21.4503 11.7395 21.4288 11.6793 21.4374C11.1078 21.5062 10.575 21.7683 10.1711 22.1722C9.15703 23.1862 9.0625 26.9374 9.0625 26.9374C9.0625 26.9374 12.818 26.8429 13.8277 25.8288C14.2359 25.4206 14.4938 24.8921 14.5625 24.3163C14.5797 24.1401 14.3605 24.0327 14.2359 24.1616Z" fill="white"/>
</svg>
