<svg width="22" height="23" viewBox="0 0 22 23" fill="none" xmlns="http://www.w3.org/2000/svg">
<path d="M10.5 11.9792C7.19788 11.9792 4.51038 9.29167 4.51038 5.98958C4.51038 2.6875 7.19788 0 10.5 0C13.802 0 16.4895 2.6875 16.4895 5.98958C16.4895 9.29167 13.802 11.9792 10.5 11.9792ZM10.5 1.5625C8.06246 1.5625 6.07288 3.55208 6.07288 5.98958C6.07288 8.42708 8.06246 10.4167 10.5 10.4167C12.9375 10.4167 14.927 8.42708 14.927 5.98958C14.927 3.55208 12.9375 1.5625 10.5 1.5625Z" fill="#013D29"/>
<path d="M14.4788 22.3957C14.0829 22.3957 13.7079 22.2499 13.4371 21.9791C13.1142 21.6561 12.9683 21.1874 13.0413 20.6978L13.2392 19.2916C13.2913 18.927 13.51 18.4999 13.7704 18.2291L17.4579 14.5416C18.9371 13.0624 20.2392 13.9061 20.8746 14.5416C21.4163 15.0832 21.6975 15.6666 21.6975 16.2499C21.6975 16.8436 21.4267 17.3957 20.8746 17.9478L17.187 21.6353C16.9266 21.8957 16.4892 22.1145 16.1246 22.1666L14.7182 22.3644C14.6349 22.3852 14.5621 22.3957 14.4788 22.3957ZM19.1558 15.2811C18.9683 15.2811 18.8017 15.4061 18.5621 15.6457L14.8746 19.3332C14.8433 19.3645 14.7913 19.4686 14.7913 19.5103L14.6038 20.8124L15.9058 20.6249C15.9475 20.6145 16.0516 20.5624 16.0828 20.5311L19.7704 16.8436C19.9371 16.677 20.135 16.4374 20.135 16.2499C20.135 16.0936 20.01 15.8749 19.7704 15.6457C19.5204 15.3957 19.3329 15.2811 19.1558 15.2811Z" fill="#013D29"/>
<path d="M19.7923 18.7185C19.7194 18.7185 19.6464 18.7082 19.5839 18.6874C18.2089 18.302 17.1152 17.2082 16.7298 15.8332C16.6152 15.4166 16.8548 14.9895 17.2714 14.8749C17.6881 14.7603 18.1152 14.9999 18.2298 15.4166C18.4694 16.2707 19.1464 16.9478 20.0006 17.1874C20.4173 17.302 20.6569 17.7395 20.5423 18.1457C20.4485 18.4895 20.136 18.7185 19.7923 18.7185Z" fill="#013D29"/>
<path d="M1.55225 22.3958C1.12516 22.3958 0.770996 22.0417 0.770996 21.6146C0.770996 17.1667 5.1356 13.5417 10.5002 13.5417C11.6356 13.5417 12.7606 13.7083 13.8127 14.0208C14.2294 14.1458 14.4585 14.5833 14.3335 14.9896C14.2085 15.4063 13.771 15.6354 13.3648 15.5104C12.4481 15.2396 11.4898 15.0938 10.5002 15.0938C6.00018 15.0938 2.3335 18.0104 2.3335 21.6042C2.3335 22.0417 1.97933 22.3958 1.55225 22.3958Z" fill="#013D29"/>
</svg>
