<svg width="20" height="22" viewBox="0 0 20 22" fill="none" xmlns="http://www.w3.org/2000/svg">
<path d="M9.97302 0C6.83451 0 4.28113 2.55338 4.28113 5.69189C4.28113 8.8304 6.83451 11.3838 9.97302 11.3838C13.1115 11.3838 15.6649 8.8304 15.6649 5.69189C15.6649 2.55338 13.1115 0 9.97302 0ZM9.97302 10.1189C7.53196 10.1189 5.54599 8.13295 5.54599 5.69189C5.54599 3.25083 7.53196 1.26486 9.97302 1.26486C12.4141 1.26486 14.4 3.25083 14.4 5.69189C14.4 8.13295 12.4141 10.1189 9.97302 10.1189Z" fill="black"/>
<path d="M17.0547 15.1026C15.4964 13.5203 13.4306 12.6489 11.2378 12.6489H8.70807C6.5153 12.6489 4.44944 13.5203 2.89113 15.1026C1.34044 16.6771 0.48645 18.7554 0.48645 20.9549C0.48645 21.3041 0.769611 21.5873 1.11888 21.5873H18.827C19.1763 21.5873 19.4594 21.3041 19.4594 20.9549C19.4594 18.7554 18.6054 16.6771 17.0547 15.1026ZM1.77914 20.3224C2.09599 16.735 5.08259 13.9138 8.70807 13.9138H11.2378C14.8633 13.9138 17.8499 16.735 18.1667 20.3224H1.77914Z" fill="black"/>
</svg>
