<svg width="14" height="14" viewBox="0 0 14 14" fill="none" xmlns="http://www.w3.org/2000/svg">
<path fill-rule="evenodd" clip-rule="evenodd" d="M13.7495 1.3751C13.7486 1.07701 13.6298 0.791363 13.419 0.580558C13.2083 0.369753 12.9227 0.250916 12.6246 0.25H11.4996C11.2015 0.250907 10.9159 0.36974 10.7051 0.580546C10.4944 0.791352 10.3756 1.077 10.3747 1.3751V12.625C10.3756 12.9231 10.4944 13.2087 10.7052 13.4195C10.9159 13.6303 11.2016 13.7492 11.4996 13.7501H12.6246C12.9226 13.7492 13.2082 13.6303 13.419 13.4195C13.6298 13.2087 13.7486 12.9231 13.7495 12.625V1.3751ZM8.68734 4.7501C8.68728 4.45176 8.56875 4.16564 8.35781 3.95466C8.14687 3.74369 7.86077 3.62511 7.56243 3.62501H6.43752C6.13918 3.62512 5.85309 3.7437 5.64215 3.95467C5.43121 4.16565 5.31268 4.45176 5.31262 4.7501V12.625C5.31268 12.9233 5.43121 13.2095 5.64215 13.4204C5.85309 13.6314 6.13918 13.75 6.43752 13.7501H7.56243C7.86078 13.75 8.14687 13.6314 8.35781 13.4204C8.56875 13.2095 8.68728 12.9233 8.68734 12.625V4.7501ZM3.62524 8.1251C3.62517 7.82677 3.50663 7.54067 3.29568 7.32971C3.08473 7.11875 2.79864 7.00019 2.5003 7.0001H1.37539C1.07706 7.0002 0.790979 7.11876 0.580037 7.32972C0.369094 7.54068 0.250558 7.82677 0.250488 8.1251V12.625C0.250548 12.9233 0.369077 13.2094 0.580019 13.4204C0.790961 13.6314 1.07705 13.75 1.37539 13.7501H2.5003C2.79865 13.75 3.08475 13.6314 3.2957 13.4204C3.50665 13.2095 3.62518 12.9233 3.62524 12.625V8.1251Z" fill="white"/>
</svg>
