<?xml version="1.0" encoding="UTF-8"?>
<!DOCTYPE svg PUBLIC "-//W3C//DTD SVG 1.1//EN" "http://www.w3.org/Graphics/SVG/1.1/DTD/svg11.dtd">
<svg xmlns="http://www.w3.org/2000/svg" version="1.1" width="500px" height="500px" style="shape-rendering:geometricPrecision; text-rendering:geometricPrecision; image-rendering:optimizeQuality; fill-rule:evenodd; clip-rule:evenodd" xmlns:xlink="http://www.w3.org/1999/xlink">
<g><path style="opacity:0.993" fill="#b8ecf9" d="M 190.5,55.5 C 189.962,57.1172 189.629,58.7839 189.5,60.5C 182.833,60.5 176.167,60.5 169.5,60.5C 169.8,57.756 168.633,56.0894 166,55.5C 162.918,55.7485 161.418,57.4151 161.5,60.5C 154.833,60.5 148.167,60.5 141.5,60.5C 140.661,55.3323 138.161,54.3323 134,57.5C 133.517,58.448 133.351,59.448 133.5,60.5C 125.493,60.3336 117.493,60.5003 109.5,61C 108.263,61.2321 107.263,61.7321 106.5,62.5C 98.8333,65.5 93.5,70.8333 90.5,78.5C 89.5066,148.125 89.1733,217.792 89.5,287.5C 88.5386,285.735 88.2053,283.735 88.5,281.5C 88.5,280.833 88.5,280.167 88.5,279.5C 88.5,277.5 88.5,275.5 88.5,273.5C 88.5,272.833 88.5,272.167 88.5,271.5C 88.5,268.833 88.5,266.167 88.5,263.5C 88.5,248.833 88.5,234.167 88.5,219.5C 88.833,199.822 88.4996,180.155 87.5,160.5C 86.8933,160.624 86.56,160.957 86.5,161.5C 69.8906,148.582 61.5572,131.415 61.5,110C 64.3937,74.5415 82.0604,49.5415 114.5,35C 129.557,30.2662 144.89,29.2662 160.5,32C 173.946,35.6314 183.946,43.4648 190.5,55.5 Z"/></g>
<g><path style="opacity:0.994" fill="#baeefb" d="M 423.5,201.5 C 421.983,201.511 420.816,202.177 420,203.5C 417.812,206.567 415.645,209.567 413.5,212.5C 413.667,168.165 413.5,123.832 413,79.5C 412.667,78.5 412.333,77.5 412,76.5C 411.31,75.2617 410.81,75.2617 410.5,76.5C 405.999,67.9982 398.999,62.9982 389.5,61.5C 382.352,60.5084 375.019,60.175 367.5,60.5C 366.661,55.3323 364.161,54.3323 360,57.5C 359.517,58.448 359.351,59.448 359.5,60.5C 352.833,60.5 346.167,60.5 339.5,60.5C 338.661,55.3323 336.161,54.3323 332,57.5C 331.517,58.448 331.351,59.448 331.5,60.5C 324.8,60.83 318.134,60.4967 311.5,59.5C 308.5,54.1667 305.5,54.1667 302.5,59.5C 295.866,60.4967 289.2,60.83 282.5,60.5C 281.856,55.4257 279.523,54.4257 275.5,57.5C 274.614,58.325 274.281,59.325 274.5,60.5C 267.833,60.5 261.167,60.5 254.5,60.5C 254.5,59.5 254.5,58.5 254.5,57.5C 279.23,40.0571 306.897,31.3904 337.5,31.5C 371.75,31.1926 402.084,41.6926 428.5,63C 457.049,90.4326 463.882,122.599 449,159.5C 441.863,174.439 433.363,188.439 423.5,201.5 Z"/></g>
<g><path style="opacity:0.502" fill="#56a9ce" d="M 227.5,59.5 C 227.44,60.0431 227.107,60.3764 226.5,60.5C 223.522,54.1525 220.522,54.1525 217.5,60.5C 216.833,60.5 216.5,60.1667 216.5,59.5C 217.786,54.9215 220.786,53.4215 225.5,55C 226.582,56.3297 227.249,57.8297 227.5,59.5 Z"/></g>
<g><path style="opacity:0.992" fill="#179df4" d="M 254.5,57.5 C 254.5,58.5 254.5,59.5 254.5,60.5C 261.167,60.5 267.833,60.5 274.5,60.5C 274.281,59.325 274.614,58.325 275.5,57.5C 279.523,54.4257 281.856,55.4257 282.5,60.5C 289.2,60.83 295.866,60.4967 302.5,59.5C 305.5,54.1667 308.5,54.1667 311.5,59.5C 318.134,60.4967 324.8,60.83 331.5,60.5C 331.351,59.448 331.517,58.448 332,57.5C 336.161,54.3323 338.661,55.3323 339.5,60.5C 346.167,60.5 352.833,60.5 359.5,60.5C 359.351,59.448 359.517,58.448 360,57.5C 364.161,54.3323 366.661,55.3323 367.5,60.5C 375.019,60.175 382.352,60.5084 389.5,61.5C 382.167,61.5 374.833,61.5 367.5,61.5C 367.5,64.8333 367.5,68.1667 367.5,71.5C 367.5,71.8333 367.5,72.1667 367.5,72.5C 366.872,75.9549 364.872,77.1215 361.5,76C 360.177,75.1841 359.511,74.0174 359.5,72.5C 359.5,68.8333 359.5,65.1667 359.5,61.5C 352.833,61.5 346.167,61.5 339.5,61.5C 339.5,63.5 339.5,65.5 339.5,67.5C 339.5,69.1667 339.5,70.8333 339.5,72.5C 338.258,76.3924 335.758,77.3924 332,75.5C 331.517,74.552 331.351,73.552 331.5,72.5C 331.5,68.8333 331.5,65.1667 331.5,61.5C 324.833,61.5 318.167,61.5 311.5,61.5C 311.5,63.5 311.5,65.5 311.5,67.5C 311.5,69.1667 311.5,70.8333 311.5,72.5C 310.538,76.1461 308.205,77.3128 304.5,76C 303.177,75.1841 302.511,74.0174 302.5,72.5C 302.5,70.8333 302.5,69.1667 302.5,67.5C 302.5,65.5 302.5,63.5 302.5,61.5C 295.833,61.5 289.167,61.5 282.5,61.5C 282.5,65.1667 282.5,68.8333 282.5,72.5C 282.22,76.2253 280.22,77.392 276.5,76C 275.177,75.1841 274.511,74.0174 274.5,72.5C 274.5,70.5 274.5,68.5 274.5,66.5C 274.5,64.8333 274.5,63.1667 274.5,61.5C 267.833,61.5 261.167,61.5 254.5,61.5C 254.5,63.1667 254.5,64.8333 254.5,66.5C 254.5,68.5 254.5,70.5 254.5,72.5C 253.872,75.9549 251.872,77.1215 248.5,76C 247.177,75.1841 246.511,74.0174 246.5,72.5C 246.5,70.5 246.5,68.5 246.5,66.5C 246.5,64.8333 246.5,63.1667 246.5,61.5C 239.833,61.5 233.167,61.5 226.5,61.5C 226.5,63.5 226.5,65.5 226.5,67.5C 226.5,69.1667 226.5,70.8333 226.5,72.5C 225.258,76.3924 222.758,77.3924 219,75.5C 218.517,74.552 218.351,73.552 218.5,72.5C 218.763,68.3998 218.43,64.3998 217.5,60.5C 220.522,54.1525 223.522,54.1525 226.5,60.5C 227.107,60.3764 227.44,60.0431 227.5,59.5C 233.5,59.5 239.5,59.5 245.5,59.5C 246.174,54.8486 248.841,53.3486 253.5,55C 254.252,55.6708 254.586,56.5041 254.5,57.5 Z"/></g>
<g><path style="opacity:0.992" fill="#189ef5" d="M 199.5,59.5 C 197.742,64.2716 197.075,69.2716 197.5,74.5C 195.989,76.4411 193.989,76.9411 191.5,76C 190.177,75.1841 189.511,74.0174 189.5,72.5C 189.5,70.8333 189.5,69.1667 189.5,67.5C 189.5,65.5 189.5,63.5 189.5,61.5C 182.833,61.5 176.167,61.5 169.5,61.5C 169.5,65.1667 169.5,68.8333 169.5,72.5C 169.22,76.2253 167.22,77.392 163.5,76C 162.177,75.1841 161.511,74.0174 161.5,72.5C 161.5,70.8333 161.5,69.1667 161.5,67.5C 161.5,65.5 161.5,63.5 161.5,61.5C 154.833,61.5 148.167,61.5 141.5,61.5C 141.5,64.8333 141.5,68.1667 141.5,71.5C 141.5,71.8333 141.5,72.1667 141.5,72.5C 140.872,75.9549 138.872,77.1215 135.5,76C 134.177,75.1841 133.511,74.0174 133.5,72.5C 133.5,70.8333 133.5,69.1667 133.5,67.5C 133.5,65.5 133.5,63.5 133.5,61.5C 124.467,61.2841 115.467,61.6175 106.5,62.5C 107.263,61.7321 108.263,61.2321 109.5,61C 117.493,60.5003 125.493,60.3336 133.5,60.5C 133.351,59.448 133.517,58.448 134,57.5C 138.161,54.3323 140.661,55.3323 141.5,60.5C 148.167,60.5 154.833,60.5 161.5,60.5C 161.418,57.4151 162.918,55.7485 166,55.5C 168.633,56.0894 169.8,57.756 169.5,60.5C 176.167,60.5 182.833,60.5 189.5,60.5C 189.629,58.7839 189.962,57.1172 190.5,55.5C 195.113,53.4111 198.113,54.7444 199.5,59.5 Z"/></g>
<g><path style="opacity:0.996" fill="#0276f0" d="M 161.5,67.5 C 155.167,67.5 148.833,67.5 142.5,67.5C 142.768,69.099 142.434,70.4324 141.5,71.5C 141.5,68.1667 141.5,64.8333 141.5,61.5C 148.167,61.5 154.833,61.5 161.5,61.5C 161.5,63.5 161.5,65.5 161.5,67.5 Z"/></g>
<g><path style="opacity:0.996" fill="#0276f0" d="M 189.5,67.5 C 183.167,67.5 176.833,67.5 170.5,67.5C 170.5,69.1667 170.5,70.8333 170.5,72.5C 170.167,72.5 169.833,72.5 169.5,72.5C 169.5,68.8333 169.5,65.1667 169.5,61.5C 176.167,61.5 182.833,61.5 189.5,61.5C 189.5,63.5 189.5,65.5 189.5,67.5 Z"/></g>
<g><path style="opacity:0.988" fill="#097aef" d="M 199.5,59.5 C 205.167,59.5 210.833,59.5 216.5,59.5C 216.5,60.1667 216.833,60.5 217.5,60.5C 218.43,64.3998 218.763,68.3998 218.5,72.5C 218.167,72.5 217.833,72.5 217.5,72.5C 217.5,70.5 217.5,68.5 217.5,66.5C 211.167,66.5 204.833,66.5 198.5,66.5C 198.5,68.5 198.5,70.5 198.5,72.5C 198.672,73.4916 198.338,74.1583 197.5,74.5C 197.075,69.2716 197.742,64.2716 199.5,59.5 Z"/></g>
<g><path style="opacity:0.988" fill="#0279f3" d="M 246.5,66.5 C 239.745,66.2066 233.078,66.5399 226.5,67.5C 226.5,65.5 226.5,63.5 226.5,61.5C 233.167,61.5 239.833,61.5 246.5,61.5C 246.5,63.1667 246.5,64.8333 246.5,66.5 Z"/></g>
<g><path style="opacity:0.995" fill="#0178f4" d="M 274.5,66.5 C 267.833,66.5 261.167,66.5 254.5,66.5C 254.5,64.8333 254.5,63.1667 254.5,61.5C 261.167,61.5 267.833,61.5 274.5,61.5C 274.5,63.1667 274.5,64.8333 274.5,66.5 Z"/></g>
<g><path style="opacity:0.996" fill="#0276f0" d="M 302.5,67.5 C 296.167,67.5 289.833,67.5 283.5,67.5C 283.5,69.1667 283.5,70.8333 283.5,72.5C 283.167,72.5 282.833,72.5 282.5,72.5C 282.5,68.8333 282.5,65.1667 282.5,61.5C 289.167,61.5 295.833,61.5 302.5,61.5C 302.5,63.5 302.5,65.5 302.5,67.5 Z"/></g>
<g><path style="opacity:0.996" fill="#0375ef" d="M 331.5,72.5 C 331.167,72.5 330.833,72.5 330.5,72.5C 330.5,70.8333 330.5,69.1667 330.5,67.5C 324.167,67.5 317.833,67.5 311.5,67.5C 311.5,65.5 311.5,63.5 311.5,61.5C 318.167,61.5 324.833,61.5 331.5,61.5C 331.5,65.1667 331.5,68.8333 331.5,72.5 Z"/></g>
<g><path style="opacity:0.996" fill="#0276f0" d="M 359.5,72.5 C 359.167,72.5 358.833,72.5 358.5,72.5C 358.5,70.8333 358.5,69.1667 358.5,67.5C 352.167,67.5 345.833,67.5 339.5,67.5C 339.5,65.5 339.5,63.5 339.5,61.5C 346.167,61.5 352.833,61.5 359.5,61.5C 359.5,65.1667 359.5,68.8333 359.5,72.5 Z"/></g>
<g><path style="opacity:0.996" fill="#0355ca" d="M 217.5,72.5 C 214.704,76.3748 215.371,79.8748 219.5,83C 226.156,83.3416 228.989,80.1749 228,73.5C 227.617,72.944 227.117,72.6107 226.5,72.5C 226.5,70.8333 226.5,69.1667 226.5,67.5C 233.078,66.5399 239.745,66.2066 246.5,66.5C 246.5,68.5 246.5,70.5 246.5,72.5C 243.823,76.0126 244.157,79.5126 247.5,83C 254.177,83.9865 257.344,81.1532 257,74.5C 256.583,73.244 255.75,72.5774 254.5,72.5C 254.5,70.5 254.5,68.5 254.5,66.5C 261.167,66.5 267.833,66.5 274.5,66.5C 274.5,68.5 274.5,70.5 274.5,72.5C 271.783,75.8859 272.117,79.2193 275.5,82.5C 282.596,83.9089 285.762,80.9089 285,73.5C 284.617,72.944 284.117,72.6107 283.5,72.5C 283.5,70.8333 283.5,69.1667 283.5,67.5C 289.833,67.5 296.167,67.5 302.5,67.5C 302.5,69.1667 302.5,70.8333 302.5,72.5C 300.193,74.5717 299.859,77.0717 301.5,80C 305.363,84.5975 309.196,84.4308 313,79.5C 313.667,77.5 313.667,75.5 313,73.5C 312.617,72.944 312.117,72.6107 311.5,72.5C 311.5,70.8333 311.5,69.1667 311.5,67.5C 317.833,67.5 324.167,67.5 330.5,67.5C 330.5,69.1667 330.5,70.8333 330.5,72.5C 327.704,76.3748 328.371,79.8748 332.5,83C 339.156,83.3416 341.989,80.1749 341,73.5C 340.617,72.944 340.117,72.6107 339.5,72.5C 339.5,70.8333 339.5,69.1667 339.5,67.5C 345.833,67.5 352.167,67.5 358.5,67.5C 358.5,69.1667 358.5,70.8333 358.5,72.5C 355.893,80.1205 358.559,83.2871 366.5,82C 368.815,80.7043 369.815,78.7043 369.5,76C 369.392,74.3189 368.725,73.1522 367.5,72.5C 367.5,72.1667 367.5,71.8333 367.5,71.5C 368.451,70.0813 368.784,68.4147 368.5,66.5C 378.15,65.6115 387.484,66.7782 396.5,70C 399.704,72.8688 402.537,76.0354 405,79.5C 405.5,91.8288 405.667,104.162 405.5,116.5C 302.167,116.5 198.833,116.5 95.5,116.5C 95.3335,104.495 95.5001,92.4954 96,80.5C 98.8585,74.9748 103.025,70.8081 108.5,68C 116.827,67.5003 125.16,67.3336 133.5,67.5C 133.5,69.1667 133.5,70.8333 133.5,72.5C 132.504,72.4142 131.671,72.7476 131,73.5C 130.164,77.3541 131.331,80.5208 134.5,83C 140.315,84.2609 143.315,81.9276 143.5,76C 143.392,74.3189 142.725,73.1522 141.5,72.5C 141.5,72.1667 141.5,71.8333 141.5,71.5C 142.434,70.4324 142.768,69.099 142.5,67.5C 148.833,67.5 155.167,67.5 161.5,67.5C 161.5,69.1667 161.5,70.8333 161.5,72.5C 160.883,72.6107 160.383,72.944 160,73.5C 158.68,78.4729 160.347,81.8062 165,83.5C 168.401,83.3017 170.734,81.6351 172,78.5C 172.941,76.0106 172.441,74.0106 170.5,72.5C 170.5,70.8333 170.5,69.1667 170.5,67.5C 176.833,67.5 183.167,67.5 189.5,67.5C 189.5,69.1667 189.5,70.8333 189.5,72.5C 186.734,75.9621 187.068,79.2954 190.5,82.5C 194.526,84.3257 197.693,83.3257 200,79.5C 200.667,77.5 200.667,75.5 200,73.5C 199.617,72.944 199.117,72.6107 198.5,72.5C 198.5,70.5 198.5,68.5 198.5,66.5C 204.833,66.5 211.167,66.5 217.5,66.5C 217.5,68.5 217.5,70.5 217.5,72.5 Z"/></g>
<g><path style="opacity:0.996" fill="#041b51" d="M 161.5,72.5 C 161.511,74.0174 162.177,75.1841 163.5,76C 167.22,77.392 169.22,76.2253 169.5,72.5C 169.833,72.5 170.167,72.5 170.5,72.5C 172.441,74.0106 172.941,76.0106 172,78.5C 170.734,81.6351 168.401,83.3017 165,83.5C 160.347,81.8062 158.68,78.4729 160,73.5C 160.383,72.944 160.883,72.6107 161.5,72.5 Z"/></g>
<g><path style="opacity:0.996" fill="#041a4f" d="M 358.5,72.5 C 358.833,72.5 359.167,72.5 359.5,72.5C 359.511,74.0174 360.177,75.1841 361.5,76C 364.872,77.1215 366.872,75.9549 367.5,72.5C 368.725,73.1522 369.392,74.3189 369.5,76C 369.815,78.7043 368.815,80.7043 366.5,82C 358.559,83.2871 355.893,80.1205 358.5,72.5 Z"/></g>
<g><path style="opacity:0.996" fill="#1b7bee" d="M 133.5,67.5 C 125.16,67.3336 116.827,67.5003 108.5,68C 103.025,70.8081 98.8585,74.9748 96,80.5C 95.5001,92.4954 95.3335,104.495 95.5,116.5C 95.5,116.833 95.5,117.167 95.5,117.5C 95.3333,174.501 95.5,231.501 96,288.5C 98.4413,294.608 102.608,299.108 108.5,302C 117.827,302.5 127.161,302.666 136.5,302.5C 136.795,304.735 136.461,306.735 135.5,308.5C 126.161,308.666 116.827,308.5 107.5,308C 103.304,305.739 99.3037,303.239 95.5,300.5C 93.576,296.983 91.9094,293.316 90.5,289.5C 91.3458,218.96 91.8458,148.294 92,77.5C 91.6174,78.056 91.1174,78.3893 90.5,78.5C 93.5,70.8333 98.8333,65.5 106.5,62.5C 115.467,61.6175 124.467,61.2841 133.5,61.5C 133.5,63.5 133.5,65.5 133.5,67.5 Z"/></g>
<g><path style="opacity:0.996" fill="#031c53" d="M 133.5,72.5 C 133.511,74.0174 134.177,75.1841 135.5,76C 138.872,77.1215 140.872,75.9549 141.5,72.5C 142.725,73.1522 143.392,74.3189 143.5,76C 143.315,81.9276 140.315,84.2609 134.5,83C 131.331,80.5208 130.164,77.3541 131,73.5C 131.671,72.7476 132.504,72.4142 133.5,72.5 Z"/></g>
<g><path style="opacity:0.996" fill="#031b52" d="M 302.5,72.5 C 302.511,74.0174 303.177,75.1841 304.5,76C 308.205,77.3128 310.538,76.1461 311.5,72.5C 312.117,72.6107 312.617,72.944 313,73.5C 313.667,75.5 313.667,77.5 313,79.5C 309.196,84.4308 305.363,84.5975 301.5,80C 299.859,77.0717 300.193,74.5717 302.5,72.5 Z"/></g>
<g><path style="opacity:0.996" fill="#031b53" d="M 189.5,72.5 C 189.511,74.0174 190.177,75.1841 191.5,76C 193.989,76.9411 195.989,76.4411 197.5,74.5C 198.338,74.1583 198.672,73.4916 198.5,72.5C 199.117,72.6107 199.617,72.944 200,73.5C 200.667,75.5 200.667,77.5 200,79.5C 197.693,83.3257 194.526,84.3257 190.5,82.5C 187.068,79.2954 186.734,75.9621 189.5,72.5 Z"/></g>
<g><path style="opacity:0.996" fill="#041b52" d="M 246.5,72.5 C 246.511,74.0174 247.177,75.1841 248.5,76C 251.872,77.1215 253.872,75.9549 254.5,72.5C 255.75,72.5774 256.583,73.244 257,74.5C 257.344,81.1532 254.177,83.9865 247.5,83C 244.157,79.5126 243.823,76.0126 246.5,72.5 Z"/></g>
<g><path style="opacity:0.996" fill="#031a4f" d="M 274.5,72.5 C 274.511,74.0174 275.177,75.1841 276.5,76C 280.22,77.392 282.22,76.2253 282.5,72.5C 282.833,72.5 283.167,72.5 283.5,72.5C 284.117,72.6107 284.617,72.944 285,73.5C 285.762,80.9089 282.596,83.9089 275.5,82.5C 272.117,79.2193 271.783,75.8859 274.5,72.5 Z"/></g>
<g><path style="opacity:0.996" fill="#031a51" d="M 217.5,72.5 C 217.833,72.5 218.167,72.5 218.5,72.5C 218.351,73.552 218.517,74.552 219,75.5C 222.758,77.3924 225.258,76.3924 226.5,72.5C 227.117,72.6107 227.617,72.944 228,73.5C 228.989,80.1749 226.156,83.3416 219.5,83C 215.371,79.8748 214.704,76.3748 217.5,72.5 Z"/></g>
<g><path style="opacity:0.996" fill="#041a50" d="M 330.5,72.5 C 330.833,72.5 331.167,72.5 331.5,72.5C 331.351,73.552 331.517,74.552 332,75.5C 335.758,77.3924 338.258,76.3924 339.5,72.5C 340.117,72.6107 340.617,72.944 341,73.5C 341.989,80.1749 339.156,83.3416 332.5,83C 328.371,79.8748 327.704,76.3748 330.5,72.5 Z"/></g>
<g><path style="opacity:0.996" fill="#56b8d6" d="M 410.5,78.5 C 411.268,79.2625 411.768,80.2625 412,81.5C 412.5,125.832 412.667,170.165 412.5,214.5C 412.5,216.167 412.5,217.833 412.5,219.5C 412.5,234.5 412.5,249.5 412.5,264.5C 412.5,266.833 412.5,269.167 412.5,271.5C 412.5,272.167 412.5,272.833 412.5,273.5C 412.5,275.5 412.5,277.5 412.5,279.5C 412.5,280.167 412.5,280.833 412.5,281.5C 412.784,283.415 412.451,285.081 411.5,286.5C 411.82,217.144 411.487,147.811 410.5,78.5 Z"/></g>
<g><path style="opacity:0.996" fill="#c9fef7" d="M 413.5,212.5 C 413.672,213.492 413.338,214.158 412.5,214.5C 412.667,170.165 412.5,125.832 412,81.5C 411.768,80.2625 411.268,79.2625 410.5,78.5C 410.5,77.8333 410.5,77.1667 410.5,76.5C 410.81,75.2617 411.31,75.2617 412,76.5C 412.333,77.5 412.667,78.5 413,79.5C 413.5,123.832 413.667,168.165 413.5,212.5 Z"/></g>
<g><path style="opacity:0.996" fill="#ebf3f5" d="M 209.5,99.5 C 209.56,100.043 209.893,100.376 210.5,100.5C 212.427,96.6962 213.427,97.1962 213.5,102C 213.431,103.986 212.765,105.486 211.5,106.5C 210.5,106.167 209.833,105.5 209.5,104.5C 209.44,103.957 209.107,103.624 208.5,103.5C 207.614,104.325 207.281,105.325 207.5,106.5C 206.5,106.5 205.5,106.5 204.5,106.5C 204.5,103.5 204.5,100.5 204.5,97.5C 206.554,97.3653 208.221,98.032 209.5,99.5 Z"/></g>
<g><path style="opacity:0.996" fill="#e3eef2" d="M 254.5,99.5 C 248.627,99.5981 248.294,100.598 253.5,102.5C 249.626,104.002 249.959,104.669 254.5,104.5C 252.365,106.369 249.698,107.036 246.5,106.5C 246.5,103.5 246.5,100.5 246.5,97.5C 249.698,96.9644 252.365,97.631 254.5,99.5 Z"/></g>
<g><path style="opacity:0.996" fill="#e0ebf0" d="M 259.5,97.5 C 261.973,97.736 263.64,99.0693 264.5,101.5C 265.509,98.663 267.509,97.3297 270.5,97.5C 270.5,100.833 270.5,104.167 270.5,107.5C 269.5,107.5 268.5,107.5 267.5,107.5C 267.865,102.579 266.865,102.245 264.5,106.5C 263.893,106.376 263.56,106.043 263.5,105.5C 263.44,104.957 263.107,104.624 262.5,104.5C 261.833,105.167 261.167,105.833 260.5,106.5C 259.516,103.572 259.183,100.572 259.5,97.5 Z"/></g>
<g><path style="opacity:0.996" fill="#d5e0ec" d="M 282.5,97.5 C 283.117,97.6107 283.617,97.944 284,98.5C 284.167,99.8333 284.333,101.167 284.5,102.5C 284.415,104.333 283.748,105.666 282.5,106.5C 280.167,106.5 277.833,106.5 275.5,106.5C 275.5,103.5 275.5,100.5 275.5,97.5C 277.833,97.5 280.167,97.5 282.5,97.5 Z"/></g>
<g><path style="opacity:0.996" fill="#eef4f5" d="M 289.5,97.5 C 292.388,96.9898 294.721,97.6565 296.5,99.5C 290.627,99.5981 290.294,100.598 295.5,102.5C 291.626,104.002 291.959,104.669 296.5,104.5C 296.5,105.167 296.5,105.833 296.5,106.5C 294.167,106.5 291.833,106.5 289.5,106.5C 289.5,103.5 289.5,100.5 289.5,97.5 Z"/></g>
<g><path style="opacity:0.996" fill="#e6eff3" d="M 301.5,97.5 C 303.857,97.3367 306.19,97.5034 308.5,98C 311.08,100.12 311.08,102.287 308.5,104.5C 308.624,105.107 308.957,105.44 309.5,105.5C 309.44,106.043 309.107,106.376 308.5,106.5C 307.534,104.604 307.201,102.604 307.5,100.5C 304.282,100.651 303.949,101.484 306.5,103C 305.552,103.483 304.552,103.649 303.5,103.5C 303.719,104.675 303.386,105.675 302.5,106.5C 301.516,103.572 301.183,100.572 301.5,97.5 Z"/></g>
<g><path style="opacity:0.996" fill="#cfdeea" d="M 221.5,96.5 C 229.828,97.0693 231.495,100.569 226.5,107C 220.143,108.481 217.643,105.981 219,99.5C 220.045,98.6266 220.878,97.6266 221.5,96.5 Z"/></g>
<g><path style="opacity:0.996" fill="#5788c1" d="M 254.5,99.5 C 254.5,101.167 254.5,102.833 254.5,104.5C 249.959,104.669 249.626,104.002 253.5,102.5C 248.294,100.598 248.627,99.5981 254.5,99.5 Z"/></g>
<g><path style="opacity:0.996" fill="#77a9cb" d="M 259.5,97.5 C 259.183,100.572 259.516,103.572 260.5,106.5C 261.167,105.833 261.833,105.167 262.5,104.5C 263.107,104.624 263.44,104.957 263.5,105.5C 262.221,106.968 260.554,107.635 258.5,107.5C 258.187,103.958 258.521,100.625 259.5,97.5 Z"/></g>
<g><path style="opacity:0.996" fill="#6d9ad2" d="M 282.5,97.5 C 280.167,97.5 277.833,97.5 275.5,97.5C 275.5,100.5 275.5,103.5 275.5,106.5C 277.833,106.5 280.167,106.5 282.5,106.5C 280.052,107.473 277.385,107.806 274.5,107.5C 274.5,103.833 274.5,100.167 274.5,96.5C 277.385,96.1936 280.052,96.5269 282.5,97.5 Z"/></g>
<g><path style="opacity:0.996" fill="#76a6d2" d="M 211.5,106.5 C 212.765,105.486 213.431,103.986 213.5,102C 213.427,97.1962 212.427,96.6962 210.5,100.5C 209.893,100.376 209.56,100.043 209.5,99.5C 210.404,98.791 210.737,97.791 210.5,96.5C 211.833,96.5 213.167,96.5 214.5,96.5C 214.5,100.167 214.5,103.833 214.5,107.5C 213.209,107.737 212.209,107.404 211.5,106.5 Z"/></g>
<g><path style="opacity:0.996" fill="#2647bb" d="M 221.5,100.5 C 222.833,100.5 224.167,100.5 225.5,100.5C 225.778,102.346 225.111,103.68 223.5,104.5C 221.889,103.68 221.222,102.346 221.5,100.5 Z"/></g>
<g><path style="opacity:0.996" fill="#dce7ef" d="M 232.5,97.5 C 234.981,97.3234 236.814,98.3234 238,100.5C 238.908,98.5614 240.408,97.5614 242.5,97.5C 241.561,100.803 240.561,104.136 239.5,107.5C 238.167,107.5 236.833,107.5 235.5,107.5C 234.901,104.037 233.901,100.704 232.5,97.5 Z"/></g>
<g><path style="opacity:0.996" fill="#5786ba" d="M 296.5,99.5 C 296.5,101.167 296.5,102.833 296.5,104.5C 291.959,104.669 291.626,104.002 295.5,102.5C 290.294,100.598 290.627,99.5981 296.5,99.5 Z"/></g>
<g><path style="opacity:0.996" fill="#a8bedd" d="M 301.5,97.5 C 301.183,100.572 301.516,103.572 302.5,106.5C 303.386,105.675 303.719,104.675 303.5,103.5C 304.552,103.649 305.552,103.483 306.5,103C 303.949,101.484 304.282,100.651 307.5,100.5C 307.201,102.604 307.534,104.604 308.5,106.5C 309.107,106.376 309.44,106.043 309.5,105.5C 310.751,106.472 310.418,107.139 308.5,107.5C 306.971,107.471 305.804,106.804 305,105.5C 303.951,107.107 302.451,107.773 300.5,107.5C 300.187,103.958 300.521,100.625 301.5,97.5 Z"/></g>
<g><path style="opacity:0.996" fill="#6d96cf" d="M 209.5,104.5 C 208.596,105.209 208.263,106.209 208.5,107.5C 206.901,107.768 205.568,107.434 204.5,106.5C 205.5,106.5 206.5,106.5 207.5,106.5C 207.281,105.325 207.614,104.325 208.5,103.5C 209.107,103.624 209.44,103.957 209.5,104.5 Z"/></g>
<g><path style="opacity:0.996" fill="#8db0d9" d="M 289.5,97.5 C 289.5,100.5 289.5,103.5 289.5,106.5C 291.833,106.5 294.167,106.5 296.5,106.5C 294.052,107.473 291.385,107.806 288.5,107.5C 288.187,103.958 288.521,100.625 289.5,97.5 Z"/></g>
<g><path style="opacity:0.996" fill="#f4f6f6" d="M 95.5,117.5 C 198.833,117.5 302.167,117.5 405.5,117.5C 405.5,152.833 405.5,188.167 405.5,223.5C 401.92,219.617 399.253,215.284 397.5,210.5C 396.737,208.632 395.737,206.965 394.5,205.5C 393.105,201.71 391.438,198.043 389.5,194.5C 389.5,188.167 389.5,181.833 389.5,175.5C 381.5,175.5 373.5,175.5 365.5,175.5C 366.69,172.357 368.023,169.357 369.5,166.5C 375.833,166.5 382.167,166.5 388.5,166.5C 389.494,157.014 389.827,147.348 389.5,137.5C 379.833,137.5 370.167,137.5 360.5,137.5C 353.784,135.629 347.451,136.295 341.5,139.5C 334.254,138.536 326.92,138.203 319.5,138.5C 319.5,147.833 319.5,157.167 319.5,166.5C 324.833,166.5 330.167,166.5 335.5,166.5C 337.242,169.145 337.909,172.145 337.5,175.5C 331.167,175.5 324.833,175.5 318.5,175.5C 318.5,185.167 318.5,194.833 318.5,204.5C 321.5,204.5 324.5,204.5 327.5,204.5C 327.167,205.833 326.833,207.167 326.5,208.5C 325.687,210.261 324.687,211.928 323.5,213.5C 321.833,213.5 320.167,213.5 318.5,213.5C 318.176,220.354 318.509,227.021 319.5,233.5C 319.209,239.303 319.875,244.97 321.5,250.5C 320.5,250.5 319.5,250.5 318.5,250.5C 318.5,260.167 318.5,269.833 318.5,279.5C 321.713,279.81 324.713,279.477 327.5,278.5C 328.95,280.61 330.95,281.943 333.5,282.5C 333.231,286.931 333.564,291.265 334.5,295.5C 334.5,297.833 334.5,300.167 334.5,302.5C 289.488,301.838 244.821,302.505 200.5,304.5C 199.059,299.036 198.059,293.369 197.5,287.5C 197.5,285.167 197.5,282.833 197.5,280.5C 206.349,280.826 215.016,280.493 223.5,279.5C 223.5,275.5 223.5,271.5 223.5,267.5C 227.833,267.5 232.167,267.5 236.5,267.5C 236.5,271.5 236.5,275.5 236.5,279.5C 245.833,279.5 255.167,279.5 264.5,279.5C 264.5,275.5 264.5,271.5 264.5,267.5C 268.833,267.5 273.167,267.5 277.5,267.5C 277.5,271.5 277.5,275.5 277.5,279.5C 287.167,279.5 296.833,279.5 306.5,279.5C 306.5,275.167 306.5,270.833 306.5,266.5C 308.903,266.607 310.736,265.607 312,263.5C 312.5,232.168 312.667,200.835 312.5,169.5C 312.665,165.818 312.499,162.152 312,158.5C 311.292,157.619 310.458,156.953 309.5,156.5C 308.791,155.596 307.791,155.263 306.5,155.5C 306.5,149.5 306.5,143.5 306.5,137.5C 296.833,137.5 287.167,137.5 277.5,137.5C 277.5,143.5 277.5,149.5 277.5,155.5C 273.167,155.5 268.833,155.5 264.5,155.5C 264.5,149.833 264.5,144.167 264.5,138.5C 255.167,138.5 245.833,138.5 236.5,138.5C 236.5,144.167 236.5,149.833 236.5,155.5C 235.833,155.5 235.167,155.5 234.5,155.5C 237.073,141.812 232.073,131.979 219.5,126C 204.315,122.816 194.148,128.649 189,143.5C 188.032,150.964 189.865,157.63 194.5,163.5C 189.213,168.45 183.88,173.45 178.5,178.5C 177.824,177.398 177.158,176.398 176.5,175.5C 175.545,172.189 174.212,169.023 172.5,166C 166.309,164.101 159.976,163.435 153.5,164C 149.315,168.569 144.648,172.403 139.5,175.5C 130.167,175.5 120.833,175.5 111.5,175.5C 111.5,185.167 111.5,194.833 111.5,204.5C 117.167,204.5 122.833,204.5 128.5,204.5C 129.344,207.678 131.011,210.345 133.5,212.5C 126.687,213.491 119.687,213.825 112.5,213.5C 112.5,222.833 112.5,232.167 112.5,241.5C 121.833,241.5 131.167,241.5 140.5,241.5C 140.5,236.833 140.5,232.167 140.5,227.5C 140.833,227.5 141.167,227.5 141.5,227.5C 141.471,233.21 141.971,238.877 143,244.5C 143.278,245.416 143.778,246.082 144.5,246.5C 145.055,250.397 146.055,254.063 147.5,257.5C 148.038,259.117 148.371,260.784 148.5,262.5C 150.238,273.235 147.905,282.902 141.5,291.5C 139.574,295.022 137.907,298.688 136.5,302.5C 127.161,302.666 117.827,302.5 108.5,302C 102.608,299.108 98.4413,294.608 96,288.5C 95.5,231.501 95.3333,174.501 95.5,117.5 Z"/></g>
<g><path style="opacity:0.996" fill="#4289d9" d="M 95.5,117.5 C 95.5,117.167 95.5,116.833 95.5,116.5C 198.833,116.5 302.167,116.5 405.5,116.5C 406.498,152.663 406.832,188.996 406.5,225.5C 405.662,225.158 405.328,224.492 405.5,223.5C 405.5,188.167 405.5,152.833 405.5,117.5C 302.167,117.5 198.833,117.5 95.5,117.5 Z"/></g>
<g><path style="opacity:0.996" fill="#3f83d5" d="M 234.5,155.5 C 233.833,155.5 233.167,155.5 232.5,155.5C 235.198,135.696 226.531,126.196 206.5,127C 194.005,131.483 188.839,140.317 191,153.5C 191.424,156.025 192.59,158.025 194.5,159.5C 195.11,160.391 195.443,161.391 195.5,162.5C 195.5,163.167 195.167,163.5 194.5,163.5C 189.865,157.63 188.032,150.964 189,143.5C 194.148,128.649 204.315,122.816 219.5,126C 232.073,131.979 237.073,141.812 234.5,155.5 Z"/></g>
<g><path style="opacity:0.996" fill="#f0f5f5" d="M 232.5,155.5 C 230.833,155.5 229.167,155.5 227.5,155.5C 230.532,138.699 223.532,130.865 206.5,132C 203.405,132.935 201.071,134.769 199.5,137.5C 199.167,137.5 198.833,137.5 198.5,137.5C 197.167,137.5 195.833,137.5 194.5,137.5C 194.5,144.833 194.5,152.167 194.5,159.5C 192.59,158.025 191.424,156.025 191,153.5C 188.839,140.317 194.005,131.483 206.5,127C 226.531,126.196 235.198,135.696 232.5,155.5 Z"/></g>
<g><path style="opacity:0.996" fill="#4185d5" d="M 227.5,155.5 C 226.833,155.5 226.167,155.5 225.5,155.5C 226.54,151.22 226.706,146.887 226,142.5C 225.623,141.058 224.79,140.058 223.5,139.5C 223.5,138.833 223.167,138.5 222.5,138.5C 220.079,134.461 216.413,132.794 211.5,133.5C 209.5,133.667 207.5,133.833 205.5,134C 203.804,135.176 202.138,136.343 200.5,137.5C 200.167,137.5 199.833,137.5 199.5,137.5C 201.071,134.769 203.405,132.935 206.5,132C 223.532,130.865 230.532,138.699 227.5,155.5 Z"/></g>
<g><path style="opacity:0.996" fill="#f1f1f2" d="M 222.5,138.5 C 221.209,138.263 220.209,138.596 219.5,139.5C 214.744,135.949 209.744,135.615 204.5,138.5C 203.167,138.5 201.833,138.5 200.5,138.5C 200.5,138.167 200.5,137.833 200.5,137.5C 202.138,136.343 203.804,135.176 205.5,134C 207.5,133.833 209.5,133.667 211.5,133.5C 216.413,132.794 220.079,134.461 222.5,138.5 Z"/></g>
<g><path style="opacity:0.996" fill="#5772d7" d="M 219.5,139.5 C 221.074,140.984 222.407,142.651 223.5,144.5C 223.5,146.833 223.5,149.167 223.5,151.5C 222.599,152.29 221.932,153.29 221.5,154.5C 220.749,155.573 219.749,155.74 218.5,155C 223.887,146.416 221.72,140.916 212,138.5C 203.192,140.441 200.359,145.774 203.5,154.5C 201.172,152.834 200.172,150.501 200.5,147.5C 200.488,143.861 201.821,140.861 204.5,138.5C 209.744,135.615 214.744,135.949 219.5,139.5 Z"/></g>
<g><path style="opacity:0.996" fill="#a8ddfd" d="M 264.5,155.5 C 255.167,155.5 245.833,155.5 236.5,155.5C 236.5,149.833 236.5,144.167 236.5,138.5C 245.833,138.5 255.167,138.5 264.5,138.5C 264.5,144.167 264.5,149.833 264.5,155.5 Z"/></g>
<g><path style="opacity:0.996" fill="#abdefc" d="M 306.5,155.5 C 296.833,155.5 287.167,155.5 277.5,155.5C 277.5,149.5 277.5,143.5 277.5,137.5C 287.167,137.5 296.833,137.5 306.5,137.5C 306.5,143.5 306.5,149.5 306.5,155.5 Z"/></g>
<g><path style="opacity:0.996" fill="#a8ddfc" d="M 341.5,139.5 C 339.874,142.246 339.207,145.246 339.5,148.5C 341.735,148.205 343.735,148.539 345.5,149.5C 343.833,149.5 342.167,149.5 340.5,149.5C 340.048,153.163 339.548,156.83 339,160.5C 337.053,162.063 335.886,164.063 335.5,166.5C 330.167,166.5 324.833,166.5 319.5,166.5C 319.5,157.167 319.5,147.833 319.5,138.5C 326.92,138.203 334.254,138.536 341.5,139.5 Z"/></g>
<g><path style="opacity:0.996" fill="#f9839f" d="M 219.5,139.5 C 220.209,138.596 221.209,138.263 222.5,138.5C 223.167,138.5 223.5,138.833 223.5,139.5C 223.5,141.167 223.5,142.833 223.5,144.5C 222.407,142.651 221.074,140.984 219.5,139.5 Z"/></g>
<g><path style="opacity:0.996" fill="#0253c9" d="M 364.5,138.5 C 372.5,138.5 380.5,138.5 388.5,138.5C 388.5,147.833 388.5,157.167 388.5,166.5C 382.167,166.5 375.833,166.5 369.5,166.5C 370.128,163.91 371.295,161.577 373,159.5C 374.896,153.641 373.229,149.308 368,146.5C 366.917,143.733 365.75,141.067 364.5,138.5 Z"/></g>
<g><path style="opacity:0.996" fill="#eb8dae" d="M 198.5,137.5 C 195.585,142.385 194.751,147.718 196,153.5C 196.697,155.584 197.864,157.251 199.5,158.5C 198.5,160.167 197.167,161.5 195.5,162.5C 195.443,161.391 195.11,160.391 194.5,159.5C 194.5,152.167 194.5,144.833 194.5,137.5C 195.833,137.5 197.167,137.5 198.5,137.5 Z"/></g>
<g><path style="opacity:0.996" fill="#f7ecf0" d="M 223.5,139.5 C 224.79,140.058 225.623,141.058 226,142.5C 226.706,146.887 226.54,151.22 225.5,155.5C 223.824,154.817 223.157,153.483 223.5,151.5C 223.5,149.167 223.5,146.833 223.5,144.5C 223.5,142.833 223.5,141.167 223.5,139.5 Z"/></g>
<g><path style="opacity:0.996" fill="#5e8fc6" d="M 360.5,137.5 C 370.167,137.5 379.833,137.5 389.5,137.5C 389.827,147.348 389.494,157.014 388.5,166.5C 388.5,157.167 388.5,147.833 388.5,138.5C 380.5,138.5 372.5,138.5 364.5,138.5C 362.901,138.768 361.568,138.434 360.5,137.5 Z"/></g>
<g><path style="opacity:0.996" fill="#f9789f" d="M 200.5,138.5 C 201.833,138.5 203.167,138.5 204.5,138.5C 201.821,140.861 200.488,143.861 200.5,147.5C 200.172,150.501 201.172,152.834 203.5,154.5C 202.833,155.833 201.833,156.833 200.5,157.5C 196.5,151.167 196.5,144.833 200.5,138.5 Z"/></g>
<g><path style="opacity:0.996" fill="#5a6cd5" d="M 198.5,137.5 C 198.833,137.5 199.167,137.5 199.5,137.5C 199.833,137.5 200.167,137.5 200.5,137.5C 200.5,137.833 200.5,138.167 200.5,138.5C 196.5,144.833 196.5,151.167 200.5,157.5C 200.5,158.167 200.167,158.5 199.5,158.5C 197.864,157.251 196.697,155.584 196,153.5C 194.751,147.718 195.585,142.385 198.5,137.5 Z"/></g>
<g><path style="opacity:0.996" fill="#e696bb" d="M 223.5,151.5 C 223.157,153.483 223.824,154.817 225.5,155.5C 226.167,155.5 226.833,155.5 227.5,155.5C 229.167,155.5 230.833,155.5 232.5,155.5C 233.167,155.5 233.833,155.5 234.5,155.5C 235.167,155.5 235.833,155.5 236.5,155.5C 245.833,155.5 255.167,155.5 264.5,155.5C 268.833,155.5 273.167,155.5 277.5,155.5C 287.167,155.5 296.833,155.5 306.5,155.5C 307.791,155.263 308.791,155.596 309.5,156.5C 279.942,157.146 250.609,156.479 221.5,154.5C 221.932,153.29 222.599,152.29 223.5,151.5 Z"/></g>
<g><path style="opacity:0.996" fill="#f9779f" d="M 221.5,154.5 C 250.609,156.479 279.942,157.146 309.5,156.5C 310.458,156.953 311.292,157.619 312,158.5C 312.499,162.152 312.665,165.818 312.5,169.5C 279.167,169.5 245.833,169.5 212.5,169.5C 212.5,168.5 212.5,167.5 212.5,166.5C 211.167,166.5 209.833,166.5 208.5,166.5C 212.138,163.153 212.471,159.319 209.5,155C 210.223,152.447 211.556,150.28 213.5,148.5C 212.277,147.386 210.944,147.219 209.5,148C 207.266,150.063 205.266,152.229 203.5,154.5C 200.359,145.774 203.192,140.441 212,138.5C 221.72,140.916 223.887,146.416 218.5,155C 219.749,155.74 220.749,155.573 221.5,154.5 Z"/></g>
<g><path style="opacity:0.996" fill="#073476" d="M 360.5,137.5 C 361.568,138.434 362.901,138.768 364.5,138.5C 365.75,141.067 366.917,143.733 368,146.5C 373.229,149.308 374.896,153.641 373,159.5C 371.295,161.577 370.128,163.91 369.5,166.5C 368.023,169.357 366.69,172.357 365.5,175.5C 364.508,175.328 363.842,175.662 363.5,176.5C 361.208,176.756 359.041,176.423 357,175.5C 355.536,170.463 353.703,165.63 351.5,161C 349.593,160.868 348.093,161.702 347,163.5C 343.308,159.329 342.808,154.662 345.5,149.5C 343.735,148.539 341.735,148.205 339.5,148.5C 339.207,145.246 339.874,142.246 341.5,139.5C 347.451,136.295 353.784,135.629 360.5,137.5 Z"/></g>
<g><path style="opacity:0.913" fill="#fdfefd" d="M 88.5,219.5 C 85.4744,216.805 82.4744,214.138 79.5,211.5C 78.791,210.596 77.791,210.263 76.5,210.5C 76.7373,211.791 76.404,212.791 75.5,213.5C 74.1436,206.741 72.477,200.075 70.5,193.5C 71.6127,185.994 73.4461,178.66 76,171.5C 77.1411,169.391 78.6411,167.558 80.5,166C 82.3668,165.289 83.8668,165.789 85,167.5C 87.0401,165.719 87.5401,163.719 86.5,161.5C 86.56,160.957 86.8933,160.624 87.5,160.5C 88.4996,180.155 88.833,199.822 88.5,219.5 Z"/></g>
<g><path style="opacity:0.996" fill="#f9f5f8" d="M 218.5,160.5 C 225.5,160.5 232.5,160.5 239.5,160.5C 239.714,162.144 239.38,163.644 238.5,165C 232.167,165.667 225.833,165.667 219.5,165C 218.62,163.644 218.286,162.144 218.5,160.5 Z"/></g>
<g><path style="opacity:0.996" fill="#f8b07a" d="M 345.5,149.5 C 342.808,154.662 343.308,159.329 347,163.5C 348.093,161.702 349.593,160.868 351.5,161C 353.703,165.63 355.536,170.463 357,175.5C 359.041,176.423 361.208,176.756 363.5,176.5C 364.778,176.782 365.778,177.449 366.5,178.5C 366.5,179.5 366.5,180.5 366.5,181.5C 360.408,182.558 354.408,183.892 348.5,185.5C 348.683,183.064 348.016,180.897 346.5,179C 343.774,178.818 341.107,178.318 338.5,177.5C 338.137,176.817 337.804,176.15 337.5,175.5C 337.909,172.145 337.242,169.145 335.5,166.5C 335.886,164.063 337.053,162.063 339,160.5C 339.548,156.83 340.048,153.163 340.5,149.5C 342.167,149.5 343.833,149.5 345.5,149.5 Z"/></g>
<g><path style="opacity:0.992" fill="#0373f2" d="M 90.5,289.5 C 89.6618,289.158 89.3284,288.492 89.5,287.5C 89.1733,217.792 89.5066,148.125 90.5,78.5C 91.1174,78.3893 91.6174,78.056 92,77.5C 91.8458,148.294 91.3458,218.96 90.5,289.5 Z"/></g>
<g><path style="opacity:0.996" fill="#ec7f43" d="M 208.5,166.5 C 206.265,166.205 204.265,166.539 202.5,167.5C 200.122,169.878 198.122,172.545 196.5,175.5C 195.5,175.833 194.833,176.5 194.5,177.5C 187.823,186.17 180.823,194.504 173.5,202.5C 172.277,197.389 173.277,192.722 176.5,188.5C 176.403,184.028 176.403,179.694 176.5,175.5C 177.158,176.398 177.824,177.398 178.5,178.5C 183.88,173.45 189.213,168.45 194.5,163.5C 195.167,163.5 195.5,163.167 195.5,162.5C 197.167,161.5 198.5,160.167 199.5,158.5C 200.167,158.5 200.5,158.167 200.5,157.5C 201.833,156.833 202.833,155.833 203.5,154.5C 205.266,152.229 207.266,150.063 209.5,148C 210.944,147.219 212.277,147.386 213.5,148.5C 211.556,150.28 210.223,152.447 209.5,155C 212.471,159.319 212.138,163.153 208.5,166.5 Z"/></g>
<g><path style="opacity:0.996" fill="#e0dee9" d="M 202.5,167.5 C 204.265,166.539 206.265,166.205 208.5,166.5C 209.833,166.5 211.167,166.5 212.5,166.5C 212.5,167.5 212.5,168.5 212.5,169.5C 208.968,169.69 205.635,169.023 202.5,167.5 Z"/></g>
<g><path style="opacity:0.996" fill="#082c32" d="M 176.5,175.5 C 176.403,179.694 176.403,184.028 176.5,188.5C 173.277,192.722 172.277,197.389 173.5,202.5C 174.091,205.675 173.091,208.009 170.5,209.5C 168.836,210.949 168.002,212.949 168,215.5C 164.541,218.806 160.708,221.473 156.5,223.5C 151.307,222.034 145.973,221.367 140.5,221.5C 137.409,218.932 135.076,215.932 133.5,212.5C 131.011,210.345 129.344,207.678 128.5,204.5C 128.743,198.816 129.243,193.149 130,187.5C 132,184.167 134.667,181.5 138,179.5C 138.41,178.099 138.91,176.766 139.5,175.5C 144.648,172.403 149.315,168.569 153.5,164C 159.976,163.435 166.309,164.101 172.5,166C 174.212,169.023 175.545,172.189 176.5,175.5 Z"/></g>
<g><path style="opacity:0.996" fill="#1054c8" d="M 212.5,169.5 C 245.833,169.5 279.167,169.5 312.5,169.5C 312.667,200.835 312.5,232.168 312,263.5C 310.736,265.607 308.903,266.607 306.5,266.5C 296.833,266.5 287.167,266.5 277.5,266.5C 259.5,266.5 241.5,266.5 223.5,266.5C 218.808,267.488 215.141,266.154 212.5,262.5C 212.5,231.5 212.5,200.5 212.5,169.5 Z"/></g>
<g><path style="opacity:0.996" fill="#f6f4f1" d="M 202.5,167.5 C 203.3,169.741 204.966,170.741 207.5,170.5C 208.209,171.404 209.209,171.737 210.5,171.5C 210.5,172.833 210.5,174.167 210.5,175.5C 205.833,175.5 201.167,175.5 196.5,175.5C 198.122,172.545 200.122,169.878 202.5,167.5 Z"/></g>
<g><path style="opacity:0.996" fill="#abdefb" d="M 139.5,175.5 C 138.91,176.766 138.41,178.099 138,179.5C 134.667,181.5 132,184.167 130,187.5C 129.243,193.149 128.743,198.816 128.5,204.5C 122.833,204.5 117.167,204.5 111.5,204.5C 111.5,194.833 111.5,185.167 111.5,175.5C 120.833,175.5 130.167,175.5 139.5,175.5 Z"/></g>
<g><path style="opacity:0.996" fill="#aadefc" d="M 207.5,170.5 C 208.833,170.5 210.167,170.5 211.5,170.5C 211.5,181.833 211.5,193.167 211.5,204.5C 205.833,204.5 200.167,204.5 194.5,204.5C 194.5,195.5 194.5,186.5 194.5,177.5C 194.833,176.5 195.5,175.833 196.5,175.5C 201.167,175.5 205.833,175.5 210.5,175.5C 210.5,174.167 210.5,172.833 210.5,171.5C 209.209,171.737 208.209,171.404 207.5,170.5 Z"/></g>
<g><path style="opacity:0.996" fill="#acdefb" d="M 337.5,175.5 C 337.804,176.15 338.137,176.817 338.5,177.5C 341.107,178.318 343.774,178.818 346.5,179C 348.016,180.897 348.683,183.064 348.5,185.5C 347.508,185.328 346.842,185.662 346.5,186.5C 341.029,186.303 337.029,188.636 334.5,193.5C 333.542,193.953 332.708,194.619 332,195.5C 330.454,198.592 328.954,201.592 327.5,204.5C 324.5,204.5 321.5,204.5 318.5,204.5C 318.5,194.833 318.5,185.167 318.5,175.5C 324.833,175.5 331.167,175.5 337.5,175.5 Z"/></g>
<g><path style="opacity:0.996" fill="#1753c7" d="M 388.5,193.5 C 383.666,190.248 378.666,187.248 373.5,184.5C 371.97,182.654 369.97,181.654 367.5,181.5C 367.167,181.5 366.833,181.5 366.5,181.5C 366.5,180.5 366.5,179.5 366.5,178.5C 373.424,176.537 380.757,175.87 388.5,176.5C 388.5,182.167 388.5,187.833 388.5,193.5 Z"/></g>
<g><path style="opacity:0.996" fill="#5790d0" d="M 202.5,167.5 C 205.635,169.023 208.968,169.69 212.5,169.5C 212.5,200.5 212.5,231.5 212.5,262.5C 211.518,259.038 211.185,255.371 211.5,251.5C 211.5,251.167 211.5,250.833 211.5,250.5C 211.5,247.833 211.5,245.167 211.5,242.5C 211.5,232.5 211.5,222.5 211.5,212.5C 211.5,209.833 211.5,207.167 211.5,204.5C 211.5,193.167 211.5,181.833 211.5,170.5C 210.167,170.5 208.833,170.5 207.5,170.5C 204.966,170.741 203.3,169.741 202.5,167.5 Z"/></g>
<g><path style="opacity:0.996" fill="#cadbea" d="M 252.5,178.5 C 254.371,178.859 255.871,179.859 257,181.5C 257.483,180.552 257.649,179.552 257.5,178.5C 258.5,178.5 259.5,178.5 260.5,178.5C 260.5,181.5 260.5,184.5 260.5,187.5C 258.857,187.52 257.524,186.853 256.5,185.5C 255.476,186.853 254.143,187.52 252.5,187.5C 252.5,184.5 252.5,181.5 252.5,178.5 Z"/></g>
<g><path style="opacity:0.996" fill="#4f85c2" d="M 245.5,184.5 C 243.686,177.779 242.686,178.113 242.5,185.5C 241.532,183.393 241.198,181.059 241.5,178.5C 242.833,178.5 244.167,178.5 245.5,178.5C 245.5,180.5 245.5,182.5 245.5,184.5 Z"/></g>
<g><path style="opacity:0.996" fill="#ccdae8" d="M 282.5,178.5 C 284.911,178.137 286.411,179.137 287,181.5C 287.965,179.74 289.132,179.406 290.5,180.5C 288.829,182.51 288.162,184.843 288.5,187.5C 287.5,187.5 286.5,187.5 285.5,187.5C 285.336,184.183 284.336,181.183 282.5,178.5 Z"/></g>
<g><path style="opacity:0.996" fill="#477cc3" d="M 363.5,176.5 C 363.842,175.662 364.508,175.328 365.5,175.5C 373.5,175.5 381.5,175.5 389.5,175.5C 389.5,181.833 389.5,188.167 389.5,194.5C 388.833,194.5 388.5,194.167 388.5,193.5C 388.5,187.833 388.5,182.167 388.5,176.5C 380.757,175.87 373.424,176.537 366.5,178.5C 365.778,177.449 364.778,176.782 363.5,176.5 Z"/></g>
<g><path style="opacity:0.996" fill="#dce7ef" d="M 245.5,184.5 C 245.56,185.043 245.893,185.376 246.5,185.5C 247.167,183.5 247.833,181.5 248.5,179.5C 249.647,181.765 249.814,184.098 249,186.5C 246.448,188.02 244.282,187.687 242.5,185.5C 242.686,178.113 243.686,177.779 245.5,184.5 Z"/></g>
<g><path style="opacity:0.996" fill="#73a2d1" d="M 269.5,179.5 C 267.5,179.5 265.5,179.5 263.5,179.5C 263.5,181.833 263.5,184.167 263.5,186.5C 265.5,186.5 267.5,186.5 269.5,186.5C 267.393,187.468 265.059,187.802 262.5,187.5C 262.5,184.5 262.5,181.5 262.5,178.5C 265.059,178.198 267.393,178.532 269.5,179.5 Z"/></g>
<g><path style="opacity:0.996" fill="#d5e2ec" d="M 269.5,179.5 C 270.947,180.134 271.613,181.301 271.5,183C 271.613,184.699 270.947,185.866 269.5,186.5C 267.5,186.5 265.5,186.5 263.5,186.5C 263.5,184.167 263.5,181.833 263.5,179.5C 265.5,179.5 267.5,179.5 269.5,179.5 Z"/></g>
<g><path style="opacity:0.996" fill="#133cbb" d="M 265.5,181.5 C 266.5,181.5 267.5,181.5 268.5,181.5C 268.5,182.5 268.5,183.5 268.5,184.5C 267.5,184.5 266.5,184.5 265.5,184.5C 265.5,183.5 265.5,182.5 265.5,181.5 Z"/></g>
<g><path style="opacity:0.996" fill="#f4f4f5" d="M 194.5,177.5 C 194.5,186.5 194.5,195.5 194.5,204.5C 200.167,204.5 205.833,204.5 211.5,204.5C 211.5,207.167 211.5,209.833 211.5,212.5C 205.833,212.5 200.167,212.5 194.5,212.5C 194.5,222.5 194.5,232.5 194.5,242.5C 200.167,242.5 205.833,242.5 211.5,242.5C 211.5,245.167 211.5,247.833 211.5,250.5C 205.833,250.5 200.167,250.5 194.5,250.5C 194.5,254.833 194.5,259.167 194.5,263.5C 193.778,263.082 193.278,262.416 193,261.5C 192.118,256.161 191.285,250.827 190.5,245.5C 190.5,242.833 190.5,240.167 190.5,237.5C 186.958,237.187 183.625,237.521 180.5,238.5C 178.216,238.975 176.216,239.975 174.5,241.5C 174.05,237.776 175.717,235.609 179.5,235C 182.482,234.502 185.482,234.335 188.5,234.5C 188.818,229.968 188.485,225.634 187.5,221.5C 186.46,215.962 183.127,212.629 177.5,211.5C 175.485,210.076 173.152,209.41 170.5,209.5C 173.091,208.009 174.091,205.675 173.5,202.5C 180.823,194.504 187.823,186.17 194.5,177.5 Z"/></g>
<g><path style="opacity:0.996" fill="#4d7eb5" d="M 234.5,183.5 C 235.756,183.461 236.756,183.961 237.5,185C 235.942,185.21 234.609,185.71 233.5,186.5C 232.957,186.44 232.624,186.107 232.5,185.5C 233.243,184.818 233.909,184.151 234.5,183.5 Z"/></g>
<g><path style="opacity:0.996" fill="#c6d7e7" d="M 276.5,178.5 C 277.5,178.5 278.5,178.5 279.5,178.5C 280.422,181.126 281.422,183.793 282.5,186.5C 282,186.833 281.5,187.167 281,187.5C 278.667,184.833 276.333,184.833 274,187.5C 273.5,187.167 273,186.833 272.5,186.5C 273.847,183.807 275.18,181.14 276.5,178.5 Z"/></g>
<g><path style="opacity:0.996" fill="#c3d3e6" d="M 233.5,186.5 C 234.609,185.71 235.942,185.21 237.5,185C 236.756,183.961 235.756,183.461 234.5,183.5C 232.915,182.998 232.415,181.998 233,180.5C 234.789,178.771 236.956,178.104 239.5,178.5C 238.976,181.239 238.976,183.905 239.5,186.5C 237.357,187.754 235.357,187.754 233.5,186.5 Z"/></g>
<g><path style="opacity:0.996" fill="#fb6549" d="M 373.5,184.5 C 378.666,187.248 383.666,190.248 388.5,193.5C 388.5,194.167 388.833,194.5 389.5,194.5C 391.438,198.043 393.105,201.71 394.5,205.5C 382.887,207.094 375.22,202.427 371.5,191.5C 372.067,189.018 372.734,186.684 373.5,184.5 Z"/></g>
<g><path style="opacity:0.996" fill="#77accd" d="M 238.5,188.5 C 239.496,188.414 240.329,188.748 241,189.5C 241.814,191.902 241.647,194.235 240.5,196.5C 239.619,193.87 238.952,191.203 238.5,188.5 Z"/></g>
<g><path style="opacity:0.996" fill="#96c0d7" d="M 245.5,188.5 C 246.376,188.369 247.043,188.702 247.5,189.5C 246.687,190.814 245.687,191.981 244.5,193C 245.449,193.617 246.282,193.451 247,192.5C 249,193.833 249,195.167 247,196.5C 245.693,195.228 244.193,194.228 242.5,193.5C 243.952,192.06 244.952,190.394 245.5,188.5 Z"/></g>
<g><path style="opacity:0.996" fill="#7ba6cb" d="M 268.5,188.5 C 271.044,188.104 273.211,188.771 275,190.5C 275.308,189.692 275.808,189.025 276.5,188.5C 277.861,190.028 279.028,191.695 280,193.5C 280.941,191.939 282.108,190.605 283.5,189.5C 284.833,191.833 284.833,194.167 283.5,196.5C 282.749,195.624 282.249,194.624 282,193.5C 280.846,195.957 279.512,195.957 278,193.5C 276.623,197.265 275.623,196.932 275,192.5C 272.884,193.69 270.884,195.023 269,196.5C 268.503,193.854 268.336,191.187 268.5,188.5 Z"/></g>
<g><path style="opacity:0.996" fill="#193bbd" d="M 270.5,190.5 C 271.675,190.281 272.675,190.614 273.5,191.5C 271.948,192.798 270.948,192.465 270.5,190.5 Z"/></g>
<g><path style="opacity:0.996" fill="#84b1d0" d="M 257.5,190.5 C 262.767,187.577 264.934,189.244 264,195.5C 261.88,198.08 259.713,198.08 257.5,195.5C 254.897,196.562 252.23,196.728 249.5,196C 251.379,195.04 253.379,194.54 255.5,194.5C 253.665,193.572 253.332,192.406 254.5,191C 250.622,189.935 250.622,189.101 254.5,188.5C 256.03,188.64 257.03,189.307 257.5,190.5 Z"/></g>
<g><path style="opacity:0.996" fill="#1648bf" d="M 259.5,190.5 C 260.5,190.5 261.5,190.5 262.5,190.5C 262.785,192.288 262.452,193.955 261.5,195.5C 259.783,194.332 259.116,192.665 259.5,190.5 Z"/></g>
<g><path style="opacity:0.996" fill="#213cb9" d="M 257.5,190.5 C 257.361,192.337 256.694,192.67 255.5,191.5C 255.957,190.702 256.624,190.369 257.5,190.5 Z"/></g>
<g><path style="opacity:0.996" fill="#fd6549" d="M 334.5,193.5 C 334.33,194.822 334.663,195.989 335.5,197C 339.016,198.256 342.016,200.256 344.5,203C 352.609,205.14 359.442,209.306 365,215.5C 366.753,219 367.92,222.667 368.5,226.5C 367.765,234.035 366.265,241.368 364,248.5C 363.502,253.519 363.668,258.519 364.5,263.5C 362.585,263.216 360.919,263.549 359.5,264.5C 356.15,264.335 352.817,264.502 349.5,265C 348.186,265.985 347.186,267.152 346.5,268.5C 346.5,267.5 346.5,266.5 346.5,265.5C 345.167,265.5 343.833,265.5 342.5,265.5C 342.335,262.482 342.502,259.482 343,256.5C 346.31,251.194 350.31,246.527 355,242.5C 361.688,230.222 358.855,220.889 346.5,214.5C 346.649,213.448 346.483,212.448 346,211.5C 345.066,212.858 344.232,214.192 343.5,215.5C 338.986,214.579 334.652,213.079 330.5,211C 329.299,210.097 328.465,208.931 328,207.5C 327.617,208.056 327.117,208.389 326.5,208.5C 326.833,207.167 327.167,205.833 327.5,204.5C 328.954,201.592 330.454,198.592 332,195.5C 332.708,194.619 333.542,193.953 334.5,193.5 Z"/></g>
<g><path style="opacity:0.996" fill="#fc4b4b" d="M 367.5,181.5 C 369.97,181.654 371.97,182.654 373.5,184.5C 372.734,186.684 372.067,189.018 371.5,191.5C 375.22,202.427 382.887,207.094 394.5,205.5C 395.737,206.965 396.737,208.632 397.5,210.5C 395.473,211.861 393.806,213.527 392.5,215.5C 392.426,213.589 391.426,212.422 389.5,212C 384.44,210.313 379.44,208.647 374.5,207C 365.308,200.446 362.974,191.946 367.5,181.5 Z"/></g>
<g><path style="opacity:0.996" fill="#2574f4" d="M 225.5,201.5 C 232.175,201.334 238.842,201.5 245.5,202C 246.333,202.833 247.167,203.667 248,204.5C 248.667,211.5 248.667,218.5 248,225.5C 247.5,226 247,226.5 246.5,227C 239.167,227.667 231.833,227.667 224.5,227C 224,226.5 223.5,226 223,225.5C 222.333,218.5 222.333,211.5 223,204.5C 224.045,203.627 224.878,202.627 225.5,201.5 Z"/></g>
<g><path style="opacity:0.935" fill="#f4fbf9" d="M 423.5,201.5 C 422.286,204.129 422.286,206.796 423.5,209.5C 422.833,210.5 422.167,211.5 421.5,212.5C 418.214,214.451 415.214,216.785 412.5,219.5C 412.5,217.833 412.5,216.167 412.5,214.5C 413.338,214.158 413.672,213.492 413.5,212.5C 415.645,209.567 417.812,206.567 420,203.5C 420.816,202.177 421.983,201.511 423.5,201.5 Z"/></g>
<g><path style="opacity:0.996" fill="#fc6549" d="M 366.5,181.5 C 366.833,181.5 367.167,181.5 367.5,181.5C 362.974,191.946 365.308,200.446 374.5,207C 379.44,208.647 384.44,210.313 389.5,212C 391.426,212.422 392.426,213.589 392.5,215.5C 388.082,222.306 386.249,221.306 387,212.5C 386.667,213.167 386.333,213.833 386,214.5C 385.606,221.902 384.773,229.235 383.5,236.5C 383.5,237.167 383.5,237.833 383.5,238.5C 382.517,242.298 382.183,246.298 382.5,250.5C 382.5,254.833 382.5,259.167 382.5,263.5C 382.5,264.167 382.167,264.5 381.5,264.5C 382.034,260.522 380.534,257.522 377,255.5C 374.9,248.725 375.233,242.059 378,235.5C 378.667,230.5 378.667,225.5 378,220.5C 377.117,217.898 375.617,215.731 373.5,214C 367.396,209.863 361.563,205.363 356,200.5C 353.517,195.821 353.017,190.988 354.5,186C 351.843,185.825 349.176,185.992 346.5,186.5C 346.842,185.662 347.508,185.328 348.5,185.5C 354.408,183.892 360.408,182.558 366.5,181.5 Z"/></g>
<g><path style="opacity:0.996" fill="#fd4a4a" d="M 381.5,264.5 C 380.041,264.433 378.708,264.766 377.5,265.5C 371.69,264.51 365.69,264.177 359.5,264.5C 360.919,263.549 362.585,263.216 364.5,263.5C 363.668,258.519 363.502,253.519 364,248.5C 366.265,241.368 367.765,234.035 368.5,226.5C 367.92,222.667 366.753,219 365,215.5C 359.442,209.306 352.609,205.14 344.5,203C 342.016,200.256 339.016,198.256 335.5,197C 334.663,195.989 334.33,194.822 334.5,193.5C 337.029,188.636 341.029,186.303 346.5,186.5C 349.176,185.992 351.843,185.825 354.5,186C 353.017,190.988 353.517,195.821 356,200.5C 361.563,205.363 367.396,209.863 373.5,214C 375.617,215.731 377.117,217.898 378,220.5C 378.667,225.5 378.667,230.5 378,235.5C 375.233,242.059 374.9,248.725 377,255.5C 380.534,257.522 382.034,260.522 381.5,264.5 Z"/></g>
<g><path style="opacity:0.996" fill="#e8f2f4" d="M 258.5,207.5 C 273.167,207.5 287.833,207.5 302.5,207.5C 302.5,208.5 302.5,209.5 302.5,210.5C 287.833,210.5 273.167,210.5 258.5,210.5C 258.5,209.5 258.5,208.5 258.5,207.5 Z"/></g>
<g><path style="opacity:0.608" fill="#eaf7f1" d="M 62.5,207.5 C 63.9953,207.415 64.9953,208.081 65.5,209.5C 64.6686,212.672 62.6686,214.338 59.5,214.5C 59.1496,211.547 60.1496,209.213 62.5,207.5 Z"/></g>
<g><path style="opacity:0.996" fill="#fb4c4a" d="M 343.5,215.5 C 343.335,217.827 342.669,219.993 341.5,222C 334.827,222.555 328.494,221.388 322.5,218.5C 322.629,216.784 322.962,215.117 323.5,213.5C 324.687,211.928 325.687,210.261 326.5,208.5C 327.117,208.389 327.617,208.056 328,207.5C 328.465,208.931 329.299,210.097 330.5,211C 334.652,213.079 338.986,214.579 343.5,215.5 Z"/></g>
<g><path style="opacity:0.996" fill="#f8fefc" d="M 259.5,213.5 C 273.849,213.167 288.182,213.501 302.5,214.5C 302.376,215.107 302.043,215.44 301.5,215.5C 287.127,216.149 273.127,215.482 259.5,213.5 Z"/></g>
<g><path style="opacity:0.99" fill="#baeef9" d="M 459.5,213.5 C 456.264,216.201 452.598,218.368 448.5,220C 447.887,222.147 447.221,224.314 446.5,226.5C 444.809,224.744 442.809,224.244 440.5,225C 436.367,228.131 432.534,231.631 429,235.5C 429.565,237.965 430.732,240.298 432.5,242.5C 430.282,243.057 427.949,243.057 425.5,242.5C 425.5,240.167 425.5,237.833 425.5,235.5C 426.488,230.36 426.821,225.026 426.5,219.5C 431.478,217.011 436.478,214.511 441.5,212C 447.681,211.036 453.681,211.536 459.5,213.5 Z"/></g>
<g><path style="opacity:0.992" fill="#84d9af" d="M 72.5,236.5 C 71.6109,238.736 70.2776,240.736 68.5,242.5C 68.8333,242.833 69.1667,243.167 69.5,243.5C 71.1151,242.846 72.7818,242.346 74.5,242C 75.0968,240.938 75.4302,239.772 75.5,238.5C 74.6695,233.534 74.3362,228.534 74.5,223.5C 74.4595,220.119 74.7929,216.786 75.5,213.5C 76.404,212.791 76.7373,211.791 76.5,210.5C 77.791,210.263 78.791,210.596 79.5,211.5C 77.8356,212.949 77.0023,214.949 77,217.5C 76.3333,226.167 76.3333,234.833 77,243.5C 79.0597,251.298 82.893,257.965 88.5,263.5C 88.5,266.167 88.5,268.833 88.5,271.5C 63.6718,249.258 37.6718,229.258 10.5,211.5C 36.2065,232.54 62.2065,253.207 88.5,273.5C 88.5,275.5 88.5,277.5 88.5,279.5C 85.1401,279.384 81.8067,279.051 78.5,278.5C 78.762,277.022 78.4287,275.689 77.5,274.5C 75.4771,275.54 73.4771,276.54 71.5,277.5C 67.7759,275.569 63.7759,274.569 59.5,274.5C 59.6646,271.482 59.498,268.482 59,265.5C 56.6136,269.467 53.447,270.633 49.5,269C 39.4127,262.248 30.5794,254.082 23,244.5C 22.3698,242.097 23.2031,240.263 25.5,239C 23.5,238.667 21.5,238.333 19.5,238C 13.2125,228.755 9.54582,218.921 8.5,208.5C 24.152,207.913 38.8187,211.413 52.5,219C 54.0368,220.11 54.7035,221.61 54.5,223.5C 56.6951,222.392 58.6951,222.559 60.5,224C 64.6175,227.15 68.4508,230.65 72,234.5C 72.4643,235.094 72.631,235.761 72.5,236.5 Z"/></g>
<g><path style="opacity:0.996" fill="#fb4d8e" d="M 177.5,211.5 C 183.127,212.629 186.46,215.962 187.5,221.5C 187.5,224.5 187.5,227.5 187.5,230.5C 183.297,231.298 180.63,229.631 179.5,225.5C 171.214,225.06 168.714,221.06 172,213.5C 173.584,212.139 175.418,211.472 177.5,211.5 Z"/></g>
<g><path style="opacity:0.996" fill="#aadefc" d="M 211.5,212.5 C 211.5,222.5 211.5,232.5 211.5,242.5C 205.833,242.5 200.167,242.5 194.5,242.5C 194.5,232.5 194.5,222.5 194.5,212.5C 200.167,212.5 205.833,212.5 211.5,212.5 Z"/></g>
<g><path style="opacity:0.996" fill="#a8ddfd" d="M 133.5,212.5 C 135.076,215.932 137.409,218.932 140.5,221.5C 140.5,223.5 140.5,225.5 140.5,227.5C 140.5,232.167 140.5,236.833 140.5,241.5C 131.167,241.5 121.833,241.5 112.5,241.5C 112.5,232.167 112.5,222.833 112.5,213.5C 119.687,213.825 126.687,213.491 133.5,212.5 Z"/></g>
<g><path style="opacity:0.996" fill="#adcbe6" d="M 259.5,213.5 C 273.127,215.482 287.127,216.149 301.5,215.5C 287.343,216.496 273.01,216.829 258.5,216.5C 258.263,215.209 258.596,214.209 259.5,213.5 Z"/></g>
<g><path style="opacity:0.992" fill="#50c18b" d="M 79.5,211.5 C 82.4744,214.138 85.4744,216.805 88.5,219.5C 88.5,234.167 88.5,248.833 88.5,263.5C 82.893,257.965 79.0597,251.298 77,243.5C 76.3333,234.833 76.3333,226.167 77,217.5C 77.0023,214.949 77.8356,212.949 79.5,211.5 Z"/></g>
<g><path style="opacity:0.996" fill="#f76646" d="M 232.5,205.5 C 239.99,204.302 242.823,207.302 241,214.5C 239.669,217.834 237.835,220.834 235.5,223.5C 232.684,219.536 230.684,215.202 229.5,210.5C 229.771,208.307 230.771,206.641 232.5,205.5 Z"/></g>
<g><path style="opacity:0.996" fill="#3f72e4" d="M 233.5,208.5 C 238.159,208.015 239.492,209.848 237.5,214C 232.728,214.81 231.395,212.977 233.5,208.5 Z"/></g>
<g><path style="opacity:0.996" fill="#fb769e" d="M 170.5,209.5 C 173.152,209.41 175.485,210.076 177.5,211.5C 175.418,211.472 173.584,212.139 172,213.5C 168.714,221.06 171.214,225.06 179.5,225.5C 180.63,229.631 183.297,231.298 187.5,230.5C 187.5,227.5 187.5,224.5 187.5,221.5C 188.485,225.634 188.818,229.968 188.5,234.5C 185.482,234.335 182.482,234.502 179.5,235C 175.717,235.609 174.05,237.776 174.5,241.5C 174.5,243.167 174.5,244.833 174.5,246.5C 173.778,246.082 173.278,245.416 173,244.5C 166.911,246.892 165.078,251.058 167.5,257C 169.833,257.667 172.167,257.667 174.5,257C 175.056,256.617 175.389,256.117 175.5,255.5C 176.537,256.93 177.204,258.597 177.5,260.5C 175.983,260.511 174.816,261.177 174,262.5C 172.861,268.436 172.195,274.436 172,280.5C 171.308,281.025 170.808,281.692 170.5,282.5C 166.216,283.565 161.883,284.398 157.5,285C 156.5,286 155.5,287 154.5,288C 154.728,288.399 155.062,288.565 155.5,288.5C 150.918,289.333 146.252,290.333 141.5,291.5C 147.905,282.902 150.238,273.235 148.5,262.5C 149.477,265.287 149.81,268.287 149.5,271.5C 149.5,273.5 149.5,275.5 149.5,277.5C 160.308,280.527 164.474,276.527 162,265.5C 160.568,262.77 159.401,259.937 158.5,257C 159.406,252.853 159.573,248.686 159,244.5C 158.535,243.069 157.701,241.903 156.5,241C 153.167,240.333 149.833,240.333 146.5,241C 144.808,242.401 144.141,244.234 144.5,246.5C 143.778,246.082 143.278,245.416 143,244.5C 141.971,238.877 141.471,233.21 141.5,227.5C 144.564,227.144 147.231,227.977 149.5,230C 152.5,233 155.5,236 158.5,239C 164.493,240.668 166.993,238.502 166,232.5C 164.355,230.338 162.188,229.005 159.5,228.5C 158.048,227.06 157.048,225.394 156.5,223.5C 160.708,221.473 164.541,218.806 168,215.5C 168.002,212.949 168.836,210.949 170.5,209.5 Z"/></g>
<g><path style="opacity:0.996" fill="#b2e2f6" d="M 323.5,213.5 C 322.962,215.117 322.629,216.784 322.5,218.5C 321.235,220.357 321.568,222.024 323.5,223.5C 322.12,226.911 320.786,230.244 319.5,233.5C 318.509,227.021 318.176,220.354 318.5,213.5C 320.167,213.5 321.833,213.5 323.5,213.5 Z"/></g>
<g><path style="opacity:0.996" fill="#f8b07b" d="M 397.5,210.5 C 399.253,215.284 401.92,219.617 405.5,223.5C 405.328,224.492 405.662,225.158 406.5,225.5C 408.535,228.026 409.868,230.859 410.5,234C 409.256,238.656 407.589,243.156 405.5,247.5C 401.453,256.578 396.12,264.912 389.5,272.5C 388.417,272.539 387.417,272.873 386.5,273.5C 385.818,272.757 385.151,272.091 384.5,271.5C 384.586,270.504 384.252,269.671 383.5,269C 377.843,268.501 372.176,268.334 366.5,268.5C 370.442,268.125 374.109,267.125 377.5,265.5C 378.708,264.766 380.041,264.433 381.5,264.5C 382.167,264.5 382.5,264.167 382.5,263.5C 386.488,261.888 388.821,258.888 389.5,254.5C 390.844,248.133 392.51,241.8 394.5,235.5C 395.895,237.054 396.561,236.721 396.5,234.5C 395.917,229.897 394.583,225.564 392.5,221.5C 393.75,219.068 395.25,216.734 397,214.5C 397.49,213.207 397.657,211.873 397.5,210.5 Z"/></g>
<g><path style="opacity:0.995" fill="#50c18b" d="M 421.5,212.5 C 423.463,214.967 424.629,217.967 425,221.5C 425.499,226.155 425.666,230.821 425.5,235.5C 424.178,246.48 419.845,256.147 412.5,264.5C 412.5,249.5 412.5,234.5 412.5,219.5C 415.214,216.785 418.214,214.451 421.5,212.5 Z"/></g>
<g><path style="opacity:0.996" fill="#fefefc" d="M 290.5,219.5 C 290.5,220.167 290.5,220.833 290.5,221.5C 249.167,220.833 249.167,220.167 290.5,219.5 Z"/></g>
<g><path style="opacity:0.996" fill="#7fabd1" d="M 290.5,219.5 C 249.167,220.167 249.167,220.833 290.5,221.5C 280.013,222.494 269.346,222.828 258.5,222.5C 258.5,221.167 258.5,219.833 258.5,218.5C 269.346,218.172 280.013,218.506 290.5,219.5 Z"/></g>
<g><path style="opacity:0.996" fill="#fc654a" d="M 343.5,220.5 C 345.441,220.869 347.275,221.536 349,222.5C 351,226.833 351,231.167 349,235.5C 345.515,237.986 342.348,240.819 339.5,244C 338.913,248.648 338.246,253.148 337.5,257.5C 337.751,246.75 338.751,236.084 340.5,225.5C 342.25,224.341 343.25,222.674 343.5,220.5 Z"/></g>
<g><path style="opacity:0.996" fill="#fd4b4a" d="M 346.5,214.5 C 358.855,220.889 361.688,230.222 355,242.5C 350.31,246.527 346.31,251.194 343,256.5C 342.502,259.482 342.335,262.482 342.5,265.5C 339.918,265.975 337.918,265.308 336.5,263.5C 337.461,261.735 337.795,259.735 337.5,257.5C 338.246,253.148 338.913,248.648 339.5,244C 342.348,240.819 345.515,237.986 349,235.5C 351,231.167 351,226.833 349,222.5C 347.275,221.536 345.441,220.869 343.5,220.5C 344.13,218.25 345.13,216.25 346.5,214.5 Z"/></g>
<g><path style="opacity:0.996" fill="#50be8b" d="M 88.5,271.5 C 88.5,272.167 88.5,272.833 88.5,273.5C 62.2065,253.207 36.2065,232.54 10.5,211.5C 37.6718,229.258 63.6718,249.258 88.5,271.5 Z"/></g>
<g><path style="opacity:0.996" fill="#d42719" d="M 346.5,214.5 C 345.13,216.25 344.13,218.25 343.5,220.5C 343.25,222.674 342.25,224.341 340.5,225.5C 339.833,225.5 339.167,225.5 338.5,225.5C 336.833,225.5 335.167,225.5 333.5,225.5C 330.209,224.743 326.876,224.076 323.5,223.5C 321.568,222.024 321.235,220.357 322.5,218.5C 328.494,221.388 334.827,222.555 341.5,222C 342.669,219.993 343.335,217.827 343.5,215.5C 344.232,214.192 345.066,212.858 346,211.5C 346.483,212.448 346.649,213.448 346.5,214.5 Z"/></g>
<g><path style="opacity:0.996" fill="#f98a3e" d="M 392.5,221.5 C 394.583,225.564 395.917,229.897 396.5,234.5C 396.561,236.721 395.895,237.054 394.5,235.5C 393.066,232.953 391.4,230.619 389.5,228.5C 389.5,227.833 389.167,227.5 388.5,227.5C 388.5,227.167 388.5,226.833 388.5,226.5C 389.124,224.246 390.457,222.579 392.5,221.5 Z"/></g>
<g><path style="opacity:0.996" fill="#fcb27b" d="M 323.5,223.5 C 326.876,224.076 330.209,224.743 333.5,225.5C 333.344,229.764 334.011,233.764 335.5,237.5C 333.61,244.352 333.11,251.352 334,258.5C 334.099,260.653 334.933,262.319 336.5,263.5C 337.918,265.308 339.918,265.975 342.5,265.5C 343.833,265.5 345.167,265.5 346.5,265.5C 346.5,266.5 346.5,267.5 346.5,268.5C 344.369,269.314 342.036,269.814 339.5,270C 338.944,270.383 338.611,270.883 338.5,271.5C 336.958,272.301 335.292,272.634 333.5,272.5C 333.5,275.833 333.5,279.167 333.5,282.5C 330.95,281.943 328.95,280.61 327.5,278.5C 326.265,268.992 324.265,259.659 321.5,250.5C 319.875,244.97 319.209,239.303 319.5,233.5C 320.786,230.244 322.12,226.911 323.5,223.5 Z"/></g>
<g><path style="opacity:0.996" fill="#c92920" d="M 397.5,210.5 C 397.657,211.873 397.49,213.207 397,214.5C 395.25,216.734 393.75,219.068 392.5,221.5C 390.457,222.579 389.124,224.246 388.5,226.5C 387.504,226.414 386.671,226.748 386,227.5C 385.34,230.678 384.507,233.678 383.5,236.5C 384.773,229.235 385.606,221.902 386,214.5C 386.333,213.833 386.667,213.167 387,212.5C 386.249,221.306 388.082,222.306 392.5,215.5C 393.806,213.527 395.473,211.861 397.5,210.5 Z"/></g>
<g><path style="opacity:0.996" fill="#f84f8e" d="M 140.5,221.5 C 145.973,221.367 151.307,222.034 156.5,223.5C 157.048,225.394 158.048,227.06 159.5,228.5C 162.188,229.005 164.355,230.338 166,232.5C 166.993,238.502 164.493,240.668 158.5,239C 155.5,236 152.5,233 149.5,230C 147.231,227.977 144.564,227.144 141.5,227.5C 141.167,227.5 140.833,227.5 140.5,227.5C 140.5,225.5 140.5,223.5 140.5,221.5 Z"/></g>
<g><path style="opacity:0.996" fill="#f98c3f" d="M 333.5,225.5 C 335.167,225.5 336.833,225.5 338.5,225.5C 337.5,229.499 336.5,233.499 335.5,237.5C 334.011,233.764 333.344,229.764 333.5,225.5 Z"/></g>
<g><path style="opacity:0.996" fill="#81cdb4" d="M 423.5,209.5 C 425.41,212.452 426.41,215.786 426.5,219.5C 426.821,225.026 426.488,230.36 425.5,235.5C 425.666,230.821 425.499,226.155 425,221.5C 424.629,217.967 423.463,214.967 421.5,212.5C 422.167,211.5 422.833,210.5 423.5,209.5 Z"/></g>
<g><path style="opacity:0.996" fill="#244dbf" d="M 388.5,226.5 C 388.5,226.833 388.5,227.167 388.5,227.5C 388.5,232.167 388.5,236.833 388.5,241.5C 386.833,241.5 385.167,241.5 383.5,241.5C 383.5,240.5 383.5,239.5 383.5,238.5C 383.5,237.833 383.5,237.167 383.5,236.5C 384.507,233.678 385.34,230.678 386,227.5C 386.671,226.748 387.504,226.414 388.5,226.5 Z"/></g>
<g><path style="opacity:0.996" fill="#5b8ecb" d="M 388.5,227.5 C 389.167,227.5 389.5,227.833 389.5,228.5C 389.5,233.167 389.5,237.833 389.5,242.5C 387.265,242.795 385.265,242.461 383.5,241.5C 385.167,241.5 386.833,241.5 388.5,241.5C 388.5,236.833 388.5,232.167 388.5,227.5 Z"/></g>
<g><path style="opacity:0.996" fill="#82daaf" d="M 479.5,238.5 C 477.085,236.621 474.418,236.287 471.5,237.5C 475.977,239.41 477.144,242.41 475,246.5C 467.842,256.162 459.009,263.829 448.5,269.5C 446.167,267.5 443.833,265.5 441.5,263.5C 440.016,267.779 440.35,271.779 442.5,275.5C 440.94,275.481 439.44,275.148 438,274.5C 433.058,276.984 428.225,276.984 423.5,274.5C 422.571,275.689 422.238,277.022 422.5,278.5C 419.098,278.342 415.764,278.676 412.5,279.5C 412.5,277.5 412.5,275.5 412.5,273.5C 437.834,254.157 462.834,234.323 487.5,214C 484.701,214.732 482.034,216.066 479.5,218C 456.427,234.907 434.093,252.74 412.5,271.5C 412.5,269.167 412.5,266.833 412.5,264.5C 419.845,256.147 424.178,246.48 425.5,235.5C 425.5,237.833 425.5,240.167 425.5,242.5C 427.949,243.057 430.282,243.057 432.5,242.5C 430.732,240.298 429.565,237.965 429,235.5C 432.534,231.631 436.367,228.131 440.5,225C 442.809,224.244 444.809,224.744 446.5,226.5C 447.221,224.314 447.887,222.147 448.5,220C 452.598,218.368 456.264,216.201 459.5,213.5C 470.213,210.065 481.213,208.398 492.5,208.5C 491.537,218.201 488.37,227.535 483,236.5C 482.184,237.823 481.017,238.489 479.5,238.5 Z"/></g>
<g><path style="opacity:0.996" fill="#e8ae85" d="M 180.5,238.5 C 183.625,237.521 186.958,237.187 190.5,237.5C 190.5,240.167 190.5,242.833 190.5,245.5C 189.532,243.393 189.198,241.059 189.5,238.5C 186.5,238.5 183.5,238.5 180.5,238.5 Z"/></g>
<g><path style="opacity:0.986" fill="#bcebeb" d="M 74.5,223.5 C 74.3362,228.534 74.6695,233.534 75.5,238.5C 75.4302,239.772 75.0968,240.938 74.5,242C 72.7818,242.346 71.1151,242.846 69.5,243.5C 69.1667,243.167 68.8333,242.833 68.5,242.5C 70.2776,240.736 71.6109,238.736 72.5,236.5C 73.1667,232.167 73.8333,227.833 74.5,223.5 Z"/></g>
<g><path style="opacity:0.996" fill="#f18346" d="M 180.5,238.5 C 183.5,238.5 186.5,238.5 189.5,238.5C 189.198,241.059 189.532,243.393 190.5,245.5C 191.285,250.827 192.118,256.161 193,261.5C 193.278,262.416 193.778,263.082 194.5,263.5C 194.5,263.833 194.5,264.167 194.5,264.5C 195.903,269.387 196.569,274.387 196.5,279.5C 196.194,282.385 196.527,285.052 197.5,287.5C 198.059,293.369 199.059,299.036 200.5,304.5C 200.833,305.833 201.167,307.167 201.5,308.5C 201.5,309.167 201.833,309.5 202.5,309.5C 203.826,312.001 204.326,314.668 204,317.5C 202.03,320.968 199.864,324.301 197.5,327.5C 196.675,328.386 195.675,328.719 194.5,328.5C 194.481,326.94 194.148,325.44 193.5,324C 195.279,321.896 196.612,319.562 197.5,317C 197.167,316.167 196.833,315.333 196.5,314.5C 195.548,316.045 195.215,317.712 195.5,319.5C 194.5,319.5 193.5,319.5 192.5,319.5C 192.5,315.833 192.5,312.167 192.5,308.5C 192.5,306.5 192.5,304.5 192.5,302.5C 192.279,299.933 191.612,297.599 190.5,295.5C 190.539,292.911 189.539,290.911 187.5,289.5C 184.551,279.653 181.218,269.986 177.5,260.5C 177.204,258.597 176.537,256.93 175.5,255.5C 175.632,252.43 175.299,249.43 174.5,246.5C 174.5,244.833 174.5,243.167 174.5,241.5C 176.216,239.975 178.216,238.975 180.5,238.5 Z"/></g>
<g><path style="opacity:0.996" fill="#f96548" d="M 232.5,237.5 C 252.169,237.333 271.836,237.5 291.5,238C 296.224,240.435 297.724,244.269 296,249.5C 294.786,251.049 293.286,252.215 291.5,253C 271.833,253.667 252.167,253.667 232.5,253C 227.291,247.91 227.291,242.743 232.5,237.5 Z"/></g>
<g><path style="opacity:0.994" fill="#fc4d8e" d="M 149.5,271.5 C 152.203,271.048 154.87,270.381 157.5,269.5C 153.737,265.748 150.404,261.748 147.5,257.5C 146.055,254.063 145.055,250.397 144.5,246.5C 144.141,244.234 144.808,242.401 146.5,241C 149.833,240.333 153.167,240.333 156.5,241C 157.701,241.903 158.535,243.069 159,244.5C 159.573,248.686 159.406,252.853 158.5,257C 159.401,259.937 160.568,262.77 162,265.5C 164.474,276.527 160.308,280.527 149.5,277.5C 149.5,275.5 149.5,273.5 149.5,271.5 Z"/></g>
<g><path style="opacity:0.996" fill="#d6dfe4" d="M 338.5,225.5 C 339.167,225.5 339.833,225.5 340.5,225.5C 338.751,236.084 337.751,246.75 337.5,257.5C 337.795,259.735 337.461,261.735 336.5,263.5C 334.933,262.319 334.099,260.653 334,258.5C 333.11,251.352 333.61,244.352 335.5,237.5C 336.5,233.499 337.5,229.499 338.5,225.5 Z"/></g>
<g><path style="opacity:0.992" fill="#b9eef9" d="M 479.5,238.5 C 484.385,256.95 480.051,273.616 466.5,288.5C 466.167,288.5 465.833,288.5 465.5,288.5C 458.559,282.894 450.892,278.561 442.5,275.5C 440.35,271.779 440.016,267.779 441.5,263.5C 443.833,265.5 446.167,267.5 448.5,269.5C 459.009,263.829 467.842,256.162 475,246.5C 477.144,242.41 475.977,239.41 471.5,237.5C 474.418,236.287 477.085,236.621 479.5,238.5 Z"/></g>
<g><path style="opacity:0.996" fill="#e7a994" d="M 265.5,242.5 C 267.017,242.511 268.184,243.177 269,244.5C 269.333,243.833 269.667,243.167 270,242.5C 270.798,244.259 270.631,245.926 269.5,247.5C 268.5,246.167 267.5,246.167 266.5,247.5C 265.548,245.955 265.215,244.288 265.5,242.5 Z"/></g>
<g><path style="opacity:0.996" fill="#e88f78" d="M 272.5,242.5 C 277.567,243.216 282.234,243.549 286.5,243.5C 285.974,245.23 284.974,246.564 283.5,247.5C 282.808,246.975 282.308,246.308 282,245.5C 280.983,248.028 279.816,248.028 278.5,245.5C 275.616,248.486 273.283,248.153 271.5,244.5C 271.863,243.817 272.196,243.15 272.5,242.5 Z"/></g>
<g><path style="opacity:0.996" fill="#e6a28c" d="M 257.5,242.5 C 258.688,243.684 259.855,243.684 261,242.5C 261.273,244.101 261.773,245.601 262.5,247C 260.893,246.981 259.226,246.815 257.5,246.5C 257.5,245.167 257.5,243.833 257.5,242.5 Z"/></g>
<g><path style="opacity:0.996" fill="#e89580" d="M 245.5,241.5 C 247.484,241.383 249.15,242.05 250.5,243.5C 253.235,240.691 255.235,241.191 256.5,245C 255.235,248.809 253.235,249.309 250.5,246.5C 246.475,246.807 242.475,247.141 238.5,247.5C 238.5,245.833 238.5,244.167 238.5,242.5C 240.467,242.261 242.301,242.594 244,243.5C 244.717,242.956 245.217,242.289 245.5,241.5 Z"/></g>
<g><path style="opacity:0.996" fill="#f8f1eb" d="M 389.5,228.5 C 391.4,230.619 393.066,232.953 394.5,235.5C 392.51,241.8 390.844,248.133 389.5,254.5C 389.5,253.167 389.5,251.833 389.5,250.5C 387.167,250.5 384.833,250.5 382.5,250.5C 382.183,246.298 382.517,242.298 383.5,238.5C 383.5,239.5 383.5,240.5 383.5,241.5C 385.265,242.461 387.265,242.795 389.5,242.5C 389.5,237.833 389.5,233.167 389.5,228.5 Z"/></g>
<g><path style="opacity:0.996" fill="#f2cf56" d="M 211.5,250.5 C 211.5,250.833 211.5,251.167 211.5,251.5C 206.167,251.5 200.833,251.5 195.5,251.5C 195.818,256.032 195.485,260.366 194.5,264.5C 194.5,264.167 194.5,263.833 194.5,263.5C 194.5,259.167 194.5,254.833 194.5,250.5C 200.167,250.5 205.833,250.5 211.5,250.5 Z"/></g>
<g><path style="opacity:0.996" fill="#4fbd8a" d="M 412.5,273.5 C 412.5,272.833 412.5,272.167 412.5,271.5C 434.093,252.74 456.427,234.907 479.5,218C 482.034,216.066 484.701,214.732 487.5,214C 462.834,234.323 437.834,254.157 412.5,273.5 Z"/></g>
<g><path style="opacity:0.996" fill="#fb4e8e" d="M 174.5,246.5 C 175.299,249.43 175.632,252.43 175.5,255.5C 175.389,256.117 175.056,256.617 174.5,257C 172.167,257.667 169.833,257.667 167.5,257C 165.078,251.058 166.911,246.892 173,244.5C 173.278,245.416 173.778,246.082 174.5,246.5 Z"/></g>
<g><path style="opacity:0.995" fill="#aadefc" d="M 142.5,264.5 C 141.167,265.5 141.167,266.5 142.5,267.5C 141.838,271.466 141.505,275.466 141.5,279.5C 131.5,279.5 121.5,279.5 111.5,279.5C 111.5,269.833 111.5,260.167 111.5,250.5C 121.5,250.5 131.5,250.5 141.5,250.5C 141.353,255.214 141.686,259.881 142.5,264.5 Z"/></g>
<g><path style="opacity:0.996" fill="#fcb906" d="M 211.5,251.5 C 211.185,255.371 211.518,259.038 212.5,262.5C 215.141,266.154 218.808,267.488 223.5,266.5C 223.5,266.833 223.5,267.167 223.5,267.5C 223.5,271.5 223.5,275.5 223.5,279.5C 214.5,279.5 205.5,279.5 196.5,279.5C 196.569,274.387 195.903,269.387 194.5,264.5C 195.485,260.366 195.818,256.032 195.5,251.5C 200.833,251.5 206.167,251.5 211.5,251.5 Z"/></g>
<g><path style="opacity:0.996" fill="#2555c5" d="M 382.5,250.5 C 384.833,250.5 387.167,250.5 389.5,250.5C 389.5,251.833 389.5,253.167 389.5,254.5C 388.821,258.888 386.488,261.888 382.5,263.5C 382.5,259.167 382.5,254.833 382.5,250.5 Z"/></g>
<g><path style="opacity:0.996" fill="#f4f6f5" d="M 405.5,247.5 C 405.667,261.171 405.5,274.837 405,288.5C 401.963,297.087 396.129,301.421 387.5,301.5C 387.5,298.167 387.5,294.833 387.5,291.5C 388.754,288.146 388.754,284.646 387.5,281C 389.146,278.405 389.813,275.572 389.5,272.5C 396.12,264.912 401.453,256.578 405.5,247.5 Z"/></g>
<g><path style="opacity:0.996" fill="#0f77f1" d="M 389.5,61.5 C 398.999,62.9982 405.999,67.9982 410.5,76.5C 410.5,77.1667 410.5,77.8333 410.5,78.5C 411.487,147.811 411.82,217.144 411.5,286.5C 410.308,291.217 408.308,295.55 405.5,299.5C 401.583,303.962 396.583,306.629 390.5,307.5C 390.5,310.833 390.5,314.167 390.5,317.5C 389.756,314.64 389.089,311.64 388.5,308.5C 388.987,307.554 389.32,306.554 389.5,305.5C 388.775,304.133 388.108,302.8 387.5,301.5C 396.129,301.421 401.963,297.087 405,288.5C 405.5,274.837 405.667,261.171 405.5,247.5C 407.589,243.156 409.256,238.656 410.5,234C 409.868,230.859 408.535,228.026 406.5,225.5C 406.832,188.996 406.498,152.663 405.5,116.5C 405.667,104.162 405.5,91.8288 405,79.5C 402.537,76.0354 399.704,72.8688 396.5,70C 387.484,66.7782 378.15,65.6115 368.5,66.5C 368.784,68.4147 368.451,70.0813 367.5,71.5C 367.5,68.1667 367.5,64.8333 367.5,61.5C 374.833,61.5 382.167,61.5 389.5,61.5 Z"/></g>
<g><path style="opacity:0.996" fill="#b3def5" d="M 321.5,250.5 C 324.265,259.659 326.265,268.992 327.5,278.5C 324.713,279.477 321.713,279.81 318.5,279.5C 318.5,269.833 318.5,260.167 318.5,250.5C 319.5,250.5 320.5,250.5 321.5,250.5 Z"/></g>
<g><path style="opacity:0.996" fill="#f74b89" d="M 177.5,260.5 C 181.218,269.986 184.551,279.653 187.5,289.5C 176.833,289.167 166.167,288.833 155.5,288.5C 155.062,288.565 154.728,288.399 154.5,288C 155.5,287 156.5,286 157.5,285C 161.883,284.398 166.216,283.565 170.5,282.5C 170.808,281.692 171.308,281.025 172,280.5C 172.195,274.436 172.861,268.436 174,262.5C 174.816,261.177 175.983,260.511 177.5,260.5 Z"/></g>
<g><path style="opacity:0.996" fill="#d22564" d="M 147.5,257.5 C 150.404,261.748 153.737,265.748 157.5,269.5C 154.87,270.381 152.203,271.048 149.5,271.5C 149.81,268.287 149.477,265.287 148.5,262.5C 148.371,260.784 148.038,259.117 147.5,257.5 Z"/></g>
<g><path style="opacity:0.996" fill="#a6dcf9" d="M 223.5,267.5 C 223.5,267.167 223.5,266.833 223.5,266.5C 241.5,266.5 259.5,266.5 277.5,266.5C 277.5,266.833 277.5,267.167 277.5,267.5C 273.167,267.5 268.833,267.5 264.5,267.5C 264.5,271.5 264.5,275.5 264.5,279.5C 255.167,279.5 245.833,279.5 236.5,279.5C 236.5,275.5 236.5,271.5 236.5,267.5C 232.167,267.5 227.833,267.5 223.5,267.5 Z"/></g>
<g><path style="opacity:0.996" fill="#08bdef" d="M 277.5,266.5 C 287.167,266.5 296.833,266.5 306.5,266.5C 306.5,270.833 306.5,275.167 306.5,279.5C 296.833,279.5 287.167,279.5 277.5,279.5C 277.5,275.5 277.5,271.5 277.5,267.5C 277.5,267.167 277.5,266.833 277.5,266.5 Z"/></g>
<g><path style="opacity:0.996" fill="#dc1b14" d="M 359.5,264.5 C 365.69,264.177 371.69,264.51 377.5,265.5C 374.109,267.125 370.442,268.125 366.5,268.5C 357.071,268.77 347.738,269.77 338.5,271.5C 338.611,270.883 338.944,270.383 339.5,270C 342.036,269.814 344.369,269.314 346.5,268.5C 347.186,267.152 348.186,265.985 349.5,265C 352.817,264.502 356.15,264.335 359.5,264.5 Z"/></g>
<g><path style="opacity:0.996" fill="#0a75fb" d="M 366.5,268.5 C 372.176,268.334 377.843,268.501 383.5,269C 384.252,269.671 384.586,270.504 384.5,271.5C 385.167,274.5 385.833,277.5 386.5,280.5C 384.5,280.5 382.5,280.5 380.5,280.5C 380.184,283.978 380.684,287.312 382,290.5C 383.699,291.406 385.533,291.739 387.5,291.5C 387.5,294.833 387.5,298.167 387.5,301.5C 388.108,302.8 388.775,304.133 389.5,305.5C 389.32,306.554 388.987,307.554 388.5,308.5C 389.089,311.64 389.756,314.64 390.5,317.5C 393.28,327.242 395.447,337.242 397,347.5C 397.314,355.569 398.147,363.569 399.5,371.5C 399.5,372.833 399.5,374.167 399.5,375.5C 399.418,382.858 399.752,390.191 400.5,397.5C 400.5,401.5 400.5,405.5 400.5,409.5C 398.217,410.029 395.883,410.363 393.5,410.5C 390.795,410.684 388.462,410.017 386.5,408.5C 385.011,396.872 382.678,385.538 379.5,374.5C 378.861,369.304 377.861,364.304 376.5,359.5C 376.672,358.508 376.338,357.842 375.5,357.5C 374.776,347.545 372.776,337.878 369.5,328.5C 369.326,326.139 368.993,323.806 368.5,321.5C 367.607,310.446 369.107,299.779 373,289.5C 373.667,286.833 373.667,284.167 373,281.5C 371.512,289.299 368.846,296.632 365,303.5C 364.503,306.146 364.336,308.813 364.5,311.5C 363.532,313.607 363.198,315.941 363.5,318.5C 361.901,329.961 361.235,341.628 361.5,353.5C 361.5,355.167 361.5,356.833 361.5,358.5C 360.503,375.992 360.17,393.659 360.5,411.5C 355.26,412.449 349.927,412.782 344.5,412.5C 343.951,398.676 342.951,385.009 341.5,371.5C 342.675,352.216 341.009,333.216 336.5,314.5C 336.795,312.265 336.461,310.265 335.5,308.5C 336.125,304.121 335.792,299.787 334.5,295.5C 333.564,291.265 333.231,286.931 333.5,282.5C 333.5,279.167 333.5,275.833 333.5,272.5C 335.292,272.634 336.958,272.301 338.5,271.5C 347.738,269.77 357.071,268.77 366.5,268.5 Z"/></g>
<g><path style="opacity:0.992" fill="#52c08d" d="M 59.5,274.5 C 63.7759,274.569 67.7759,275.569 71.5,277.5C 73.4771,276.54 75.4771,275.54 77.5,274.5C 78.4287,275.689 78.762,277.022 78.5,278.5C 81.8067,279.051 85.1401,279.384 88.5,279.5C 88.5,280.167 88.5,280.833 88.5,281.5C 85.4838,282.343 82.8171,283.843 80.5,286C 77.2711,289.399 73.9378,292.565 70.5,295.5C 66.6076,296.384 62.9409,297.717 59.5,299.5C 49.6787,300.885 40.0121,300.051 30.5,297C 29.572,296.612 28.9054,295.945 28.5,295C 36.5944,284.732 46.9278,277.898 59.5,274.5 Z"/></g>
<g><path style="opacity:0.994" fill="#50c18d" d="M 442.5,275.5 C 450.892,278.561 458.559,282.894 465.5,288.5C 466.203,290.716 467.536,292.549 469.5,294C 468.338,294.827 467.171,295.66 466,296.5C 453.826,299.764 441.66,299.264 429.5,295C 424.802,289.12 419.136,284.62 412.5,281.5C 412.5,280.833 412.5,280.167 412.5,279.5C 415.764,278.676 419.098,278.342 422.5,278.5C 422.238,277.022 422.571,275.689 423.5,274.5C 428.225,276.984 433.058,276.984 438,274.5C 439.44,275.148 440.94,275.481 442.5,275.5 Z"/></g>
<g><path style="opacity:0.996" fill="#f2dba5" d="M 196.5,279.5 C 205.5,279.5 214.5,279.5 223.5,279.5C 215.016,280.493 206.349,280.826 197.5,280.5C 197.5,282.833 197.5,285.167 197.5,287.5C 196.527,285.052 196.194,282.385 196.5,279.5 Z"/></g>
<g><path style="opacity:0.996" fill="#1c49ac" d="M 384.5,271.5 C 385.151,272.091 385.818,272.757 386.5,273.5C 387.417,272.873 388.417,272.539 389.5,272.5C 389.813,275.572 389.146,278.405 387.5,281C 388.754,284.646 388.754,288.146 387.5,291.5C 385.533,291.739 383.699,291.406 382,290.5C 380.684,287.312 380.184,283.978 380.5,280.5C 382.5,280.5 384.5,280.5 386.5,280.5C 385.833,277.5 385.167,274.5 384.5,271.5 Z"/></g>
<g><path style="opacity:0.996" fill="#83daae" d="M 88.5,281.5 C 88.2053,283.735 88.5386,285.735 89.5,287.5C 89.3284,288.492 89.6618,289.158 90.5,289.5C 91.9094,293.316 93.576,296.983 95.5,300.5C 88.5813,314.749 77.5813,324.415 62.5,329.5C 60.6676,317.161 63.6676,306.161 71.5,296.5C 71.3764,295.893 71.0431,295.56 70.5,295.5C 73.9378,292.565 77.2711,289.399 80.5,286C 82.8171,283.843 85.4838,282.343 88.5,281.5 Z"/></g>
<g><path style="opacity:0.996" fill="#0140a5" d="M 360.5,281.5 C 361.5,281.5 362.5,281.5 363.5,281.5C 364.006,286.157 363.173,290.49 361,294.5C 355.967,298.779 351.3,298.446 347,293.5C 345.663,289.974 345.163,286.308 345.5,282.5C 350.695,282.821 355.695,282.487 360.5,281.5 Z"/></g>
<g><path style="opacity:0.994" fill="#82d8ae" d="M 412.5,281.5 C 419.136,284.62 424.802,289.12 429.5,295C 441.66,299.264 453.826,299.764 466,296.5C 467.171,295.66 468.338,294.827 469.5,294C 467.536,292.549 466.203,290.716 465.5,288.5C 465.833,288.5 466.167,288.5 466.5,288.5C 467.812,290.479 469.479,292.145 471.5,293.5C 472.386,294.325 472.719,295.325 472.5,296.5C 459.684,299.962 446.684,301.295 433.5,300.5C 436.097,305.624 438.097,310.958 439.5,316.5C 439.826,320.884 439.492,325.217 438.5,329.5C 423.041,324.373 412.041,314.373 405.5,299.5C 408.308,295.55 410.308,291.217 411.5,286.5C 412.451,285.081 412.784,283.415 412.5,281.5 Z"/></g>
<g><path style="opacity:0.996" fill="#098388" d="M 155.5,288.5 C 166.167,288.833 176.833,289.167 187.5,289.5C 189.539,290.911 190.539,292.911 190.5,295.5C 190.5,297.833 190.5,300.167 190.5,302.5C 189.539,304.265 189.205,306.265 189.5,308.5C 188.099,325.31 185.765,341.976 182.5,358.5C 181.043,363.598 180.376,368.931 180.5,374.5C 179.121,380.617 178.454,386.95 178.5,393.5C 177.507,401.65 177.174,409.983 177.5,418.5C 172.203,419.275 166.87,419.608 161.5,419.5C 161.5,404.833 161.5,390.167 161.5,375.5C 161.829,362.323 161.495,349.323 160.5,336.5C 163.487,325.553 160.654,316.553 152,309.5C 150.073,306.052 148.739,302.385 148,298.5C 147.718,304.617 149.718,309.951 154,314.5C 154.667,317.167 155.333,319.833 156,322.5C 156.14,330.682 156.307,338.682 156.5,346.5C 151.155,355.861 145.821,365.194 140.5,374.5C 132.589,388.339 126.256,403.006 121.5,418.5C 116.705,417.235 112.038,415.568 107.5,413.5C 106.614,412.675 106.281,411.675 106.5,410.5C 110.685,398.465 115.685,386.798 121.5,375.5C 121.833,374.167 122.167,372.833 122.5,371.5C 125.636,365.227 128.803,358.894 132,352.5C 133.314,342.632 134.814,332.799 136.5,323C 135.802,318.189 135.469,313.356 135.5,308.5C 136.461,306.735 136.795,304.735 136.5,302.5C 137.907,298.688 139.574,295.022 141.5,291.5C 146.252,290.333 150.918,289.333 155.5,288.5 Z"/></g>
<g><path style="opacity:0.995" fill="#fdc8cb" d="M 70.5,295.5 C 71.0431,295.56 71.3764,295.893 71.5,296.5C 63.6676,306.161 60.6676,317.161 62.5,329.5C 77.5813,324.415 88.5813,314.749 95.5,300.5C 99.3037,303.239 103.304,305.739 107.5,308C 116.827,308.5 126.161,308.666 135.5,308.5C 135.469,313.356 135.802,318.189 136.5,323C 134.814,332.799 133.314,342.632 132,352.5C 128.803,358.894 125.636,365.227 122.5,371.5C 98.4977,371.667 74.4977,371.5 50.5,371C 49.9558,370.283 49.2891,369.783 48.5,369.5C 48.1271,354.793 48.6271,340.127 50,325.5C 52.2815,316.487 55.4482,307.82 59.5,299.5C 62.9409,297.717 66.6076,296.384 70.5,295.5 Z"/></g>
<g><path style="opacity:0.996" fill="#eee4d4" d="M 190.5,295.5 C 191.612,297.599 192.279,299.933 192.5,302.5C 191.833,302.5 191.167,302.5 190.5,302.5C 190.5,300.167 190.5,297.833 190.5,295.5 Z"/></g>
<g><path style="opacity:0.996" fill="#2679d4" d="M 190.5,302.5 C 191.167,302.5 191.833,302.5 192.5,302.5C 192.5,304.5 192.5,306.5 192.5,308.5C 191.5,308.5 190.5,308.5 189.5,308.5C 189.205,306.265 189.539,304.265 190.5,302.5 Z"/></g>
<g><path style="opacity:0.995" fill="#fcc8cb" d="M 405.5,299.5 C 412.041,314.373 423.041,324.373 438.5,329.5C 439.492,325.217 439.826,320.884 439.5,316.5C 444.733,322.264 448.566,328.93 451,336.5C 452.356,347.785 452.856,359.119 452.5,370.5C 434.88,371.473 417.214,371.806 399.5,371.5C 398.147,363.569 397.314,355.569 397,347.5C 395.447,337.242 393.28,327.242 390.5,317.5C 390.5,314.167 390.5,310.833 390.5,307.5C 396.583,306.629 401.583,303.962 405.5,299.5 Z"/></g>
<g><path style="opacity:0.996" fill="#0e79ed" d="M 334.5,295.5 C 335.792,299.787 336.125,304.121 335.5,308.5C 290.833,308.5 246.167,308.5 201.5,308.5C 201.167,307.167 200.833,305.833 200.5,304.5C 244.821,302.505 289.488,301.838 334.5,302.5C 334.5,300.167 334.5,297.833 334.5,295.5 Z"/></g>
<g><path style="opacity:0.996" fill="#0640a6" d="M 368.5,321.5 C 367.5,319.5 366.5,317.5 365.5,315.5C 365.768,313.901 365.434,312.568 364.5,311.5C 364.336,308.813 364.503,306.146 365,303.5C 368.846,296.632 371.512,289.299 373,281.5C 373.667,284.167 373.667,286.833 373,289.5C 369.107,299.779 367.607,310.446 368.5,321.5 Z"/></g>
<g><path style="opacity:0.996" fill="#c3bbdd" d="M 201.5,308.5 C 246.167,308.5 290.833,308.5 335.5,308.5C 336.461,310.265 336.795,312.265 336.5,314.5C 335.549,313.081 335.216,311.415 335.5,309.5C 291.167,309.5 246.833,309.5 202.5,309.5C 201.833,309.5 201.5,309.167 201.5,308.5 Z"/></g>
<g><path style="opacity:0.996" fill="#fec8ca" d="M 189.5,308.5 C 190.5,308.5 191.5,308.5 192.5,308.5C 192.5,312.167 192.5,315.833 192.5,319.5C 193.5,319.5 194.5,319.5 195.5,319.5C 195.215,317.712 195.548,316.045 196.5,314.5C 196.833,315.333 197.167,316.167 197.5,317C 196.612,319.562 195.279,321.896 193.5,324C 194.148,325.44 194.481,326.94 194.5,328.5C 195.675,328.719 196.675,328.386 197.5,327.5C 199.864,324.301 202.03,320.968 204,317.5C 204.326,314.668 203.826,312.001 202.5,309.5C 246.833,309.5 291.167,309.5 335.5,309.5C 335.216,311.415 335.549,313.081 336.5,314.5C 341.009,333.216 342.675,352.216 341.5,371.5C 288.167,371.5 234.833,371.5 181.5,371.5C 182.08,367.19 182.414,362.857 182.5,358.5C 185.765,341.976 188.099,325.31 189.5,308.5 Z"/></g>
<g><path style="opacity:0.996" fill="#9f9aca" d="M 365.5,315.5 C 366.5,317.5 367.5,319.5 368.5,321.5C 368.993,323.806 369.326,326.139 369.5,328.5C 367.39,324.498 366.057,320.165 365.5,315.5 Z"/></g>
<g><path style="opacity:0.996" fill="#07504d" d="M 160.5,336.5 C 159.164,339.838 157.831,343.171 156.5,346.5C 156.307,338.682 156.14,330.682 156,322.5C 155.333,319.833 154.667,317.167 154,314.5C 149.718,309.951 147.718,304.617 148,298.5C 148.739,302.385 150.073,306.052 152,309.5C 160.654,316.553 163.487,325.553 160.5,336.5 Z"/></g>
<g><path style="opacity:0.996" fill="#efd0d7" d="M 364.5,311.5 C 365.434,312.568 365.768,313.901 365.5,315.5C 366.057,320.165 367.39,324.498 369.5,328.5C 372.776,337.878 374.776,347.545 375.5,357.5C 372.546,348.351 370.213,339.017 368.5,329.5C 367.448,329.649 366.448,329.483 365.5,329C 366.554,327.612 366.72,326.112 366,324.5C 365.667,325.5 365.333,326.5 365,327.5C 364.729,341.884 363.896,356.218 362.5,370.5C 367.5,370.5 372.5,370.5 377.5,370.5C 376.756,366.881 376.423,363.215 376.5,359.5C 377.861,364.304 378.861,369.304 379.5,374.5C 373.766,375.186 367.933,375.852 362,376.5C 361.501,370.509 361.334,364.509 361.5,358.5C 361.5,356.833 361.5,355.167 361.5,353.5C 362.604,342.012 363.271,330.345 363.5,318.5C 363.198,315.941 363.532,313.607 364.5,311.5 Z"/></g>
<g><path style="opacity:0.996" fill="#fec8ca" d="M 375.5,357.5 C 376.338,357.842 376.672,358.508 376.5,359.5C 376.423,363.215 376.756,366.881 377.5,370.5C 372.5,370.5 367.5,370.5 362.5,370.5C 363.896,356.218 364.729,341.884 365,327.5C 365.333,326.5 365.667,325.5 366,324.5C 366.72,326.112 366.554,327.612 365.5,329C 366.448,329.483 367.448,329.649 368.5,329.5C 370.213,339.017 372.546,348.351 375.5,357.5 Z"/></g>
<g><path style="opacity:0.996" fill="#4e86e4" d="M 363.5,318.5 C 363.271,330.345 362.604,342.012 361.5,353.5C 361.235,341.628 361.901,329.961 363.5,318.5 Z"/></g>
<g><path style="opacity:0.996" fill="#facdd1" d="M 160.5,336.5 C 161.495,349.323 161.829,362.323 161.5,375.5C 154.313,375.825 147.313,375.491 140.5,374.5C 145.821,365.194 151.155,355.861 156.5,346.5C 157.831,343.171 159.164,339.838 160.5,336.5 Z"/></g>
<g><path style="opacity:0.995" fill="#fce1ef" d="M 48.5,369.5 C 49.2891,369.783 49.9558,370.283 50.5,371C 74.4977,371.5 98.4977,371.667 122.5,371.5C 122.167,372.833 121.833,374.167 121.5,375.5C 98.5,375.5 75.5,375.5 52.5,375.5C 51.391,375.557 50.391,375.89 49.5,376.5C 46.4816,376.665 43.4816,376.498 40.5,376C 38.3424,374.688 38.0091,373.022 39.5,371C 42.6946,370.819 45.6946,370.319 48.5,369.5 Z"/></g>
<g><path style="opacity:0.943" fill="#fbdfed" d="M 452.5,370.5 C 455.187,370.336 457.854,370.503 460.5,371C 462.037,372.11 462.703,373.61 462.5,375.5C 454.542,376.403 446.542,376.736 438.5,376.5C 425.677,375.505 412.677,375.171 399.5,375.5C 399.5,374.167 399.5,372.833 399.5,371.5C 417.214,371.806 434.88,371.473 452.5,370.5 Z"/></g>
<g><path style="opacity:0.996" fill="#fce0ee" d="M 182.5,358.5 C 182.414,362.857 182.08,367.19 181.5,371.5C 234.833,371.5 288.167,371.5 341.5,371.5C 341.5,372.833 341.5,374.167 341.5,375.5C 287.664,375.832 233.997,375.499 180.5,374.5C 180.376,368.931 181.043,363.598 182.5,358.5 Z"/></g>
<g><path style="opacity:0.995" fill="#baedfb" d="M 341.5,371.5 C 342.951,385.009 343.951,398.676 344.5,412.5C 343.395,413.6 342.062,414.267 340.5,414.5C 329.439,415.485 318.439,416.985 307.5,419C 288.728,425.069 289.061,430.402 308.5,435C 340.354,439.767 372.354,440.767 404.5,438C 412.509,436.497 420.509,434.997 428.5,433.5C 420.859,451.643 408.193,465.143 390.5,474C 374.499,478.064 358.833,477.064 343.5,471C 325.329,460.413 306.995,450.08 288.5,440C 273.092,435.284 257.425,434.284 241.5,437C 227.522,440.075 213.856,443.908 200.5,448.5C 204.78,446.656 209.113,444.489 213.5,442C 214.747,440.506 214.747,439.006 213.5,437.5C 204.43,433.384 194.93,430.718 185,429.5C 183.293,429.508 181.793,429.842 180.5,430.5C 179.626,428.31 177.959,427.31 175.5,427.5C 175.768,425.901 175.434,424.568 174.5,423.5C 174.5,423.167 174.5,422.833 174.5,422.5C 175.833,422.5 177.167,422.5 178.5,422.5C 178.5,412.833 178.5,403.167 178.5,393.5C 178.454,386.95 179.121,380.617 180.5,374.5C 233.997,375.499 287.664,375.832 341.5,375.5C 341.5,374.167 341.5,372.833 341.5,371.5 Z"/></g>
<g><path style="opacity:0.996" fill="#b9eefb" d="M 52.5,375.5 C 75.5,375.5 98.5,375.5 121.5,375.5C 115.685,386.798 110.685,398.465 106.5,410.5C 105.661,411.641 104.994,412.974 104.5,414.5C 106.015,416.082 107.681,417.416 109.5,418.5C 109.167,419.167 108.833,419.833 108.5,420.5C 104.702,423.091 102.702,426.757 102.5,431.5C 101.844,430.722 101.011,430.056 100,429.5C 95.3974,430.179 90.8974,431.179 86.5,432.5C 86.9175,431.778 87.5842,431.278 88.5,431C 75.0113,420.47 64.5113,407.636 57,392.5C 55.0264,386.938 53.5264,381.271 52.5,375.5 Z"/></g>
<g><path style="opacity:0.996" fill="#b8edfa" d="M 140.5,374.5 C 147.313,375.491 154.313,375.825 161.5,375.5C 161.5,390.167 161.5,404.833 161.5,419.5C 161.077,421.781 161.744,423.448 163.5,424.5C 163.573,426.027 162.906,427.027 161.5,427.5C 147.167,427.5 132.833,427.5 118.5,427.5C 118.5,428.833 118.5,430.167 118.5,431.5C 117.118,428.936 116.785,426.269 117.5,423.5C 117.5,422.833 117.5,422.167 117.5,421.5C 119.973,421.912 121.306,420.912 121.5,418.5C 126.256,403.006 132.589,388.339 140.5,374.5 Z"/></g>
<g><path style="opacity:0.996" fill="#b4e9f9" d="M 361.5,358.5 C 361.334,364.509 361.501,370.509 362,376.5C 367.933,375.852 373.766,375.186 379.5,374.5C 382.678,385.538 385.011,396.872 386.5,408.5C 383.482,408.335 380.482,408.502 377.5,409C 375.963,410.11 375.297,411.61 375.5,413.5C 371.366,414.485 367.032,414.818 362.5,414.5C 361.599,413.71 360.932,412.71 360.5,411.5C 360.17,393.659 360.503,375.992 361.5,358.5 Z"/></g>
<g><path style="opacity:0.995" fill="#baeefb" d="M 399.5,375.5 C 412.677,375.171 425.677,375.505 438.5,376.5C 440.844,392.582 439.177,408.249 433.5,423.5C 423.516,418.675 412.849,416.341 401.5,416.5C 401.823,409.978 401.49,403.645 400.5,397.5C 399.752,390.191 399.418,382.858 399.5,375.5 Z"/></g>
<g><path style="opacity:0.896" fill="#fbfefd" d="M 52.5,375.5 C 53.5264,381.271 55.0264,386.938 57,392.5C 64.5113,407.636 75.0113,420.47 88.5,431C 87.5842,431.278 86.9175,431.778 86.5,432.5C 81.1439,433.23 76.3106,435.23 72,438.5C 71.5172,439.448 71.3505,440.448 71.5,441.5C 70.1144,438.607 70.4477,435.774 72.5,433C 69.9816,431.498 67.4816,429.998 65,428.5C 58.2596,411.628 53.0929,394.294 49.5,376.5C 50.391,375.89 51.391,375.557 52.5,375.5 Z"/></g>
<g><path style="opacity:0.996" fill="#063272" d="M 386.5,408.5 C 388.462,410.017 390.795,410.684 393.5,410.5C 395.883,410.363 398.217,410.029 400.5,409.5C 400.797,413.767 400.464,417.934 399.5,422C 394.869,423.261 390.869,422.261 387.5,419C 382.146,419.708 378.146,417.874 375.5,413.5C 375.297,411.61 375.963,410.11 377.5,409C 380.482,408.502 383.482,408.335 386.5,408.5 Z"/></g>
<g><path style="opacity:0.996" fill="#083676" d="M 360.5,411.5 C 360.932,412.71 361.599,413.71 362.5,414.5C 362.666,419.179 362.499,423.845 362,428.5C 359.373,429.916 356.54,430.583 353.5,430.5C 344.845,429.826 336.178,429.326 327.5,429C 324.445,428.481 322.111,426.981 320.5,424.5C 320.529,422.971 321.196,421.804 322.5,421C 329.293,420.648 335.293,418.482 340.5,414.5C 342.062,414.267 343.395,413.6 344.5,412.5C 349.927,412.782 355.26,412.449 360.5,411.5 Z"/></g>
<g><path style="opacity:0.996" fill="#2ab5b5" d="M 106.5,410.5 C 106.281,411.675 106.614,412.675 107.5,413.5C 112.038,415.568 116.705,417.235 121.5,418.5C 121.306,420.912 119.973,421.912 117.5,421.5C 115.11,419.98 112.443,418.98 109.5,418.5C 107.681,417.416 106.015,416.082 104.5,414.5C 104.994,412.974 105.661,411.641 106.5,410.5 Z"/></g>
<g><path style="opacity:0.996" fill="#79d7e9" d="M 400.5,397.5 C 401.49,403.645 401.823,409.978 401.5,416.5C 412.849,416.341 423.516,418.675 433.5,423.5C 438.662,425.986 438.662,428.819 433.5,432C 431.846,432.608 430.179,433.108 428.5,433.5C 420.509,434.997 412.509,436.497 404.5,438C 372.354,440.767 340.354,439.767 308.5,435C 289.061,430.402 288.728,425.069 307.5,419C 318.439,416.985 329.439,415.485 340.5,414.5C 335.293,418.482 329.293,420.648 322.5,421C 321.196,421.804 320.529,422.971 320.5,424.5C 322.111,426.981 324.445,428.481 327.5,429C 336.178,429.326 344.845,429.826 353.5,430.5C 356.54,430.583 359.373,429.916 362,428.5C 362.499,423.845 362.666,419.179 362.5,414.5C 367.032,414.818 371.366,414.485 375.5,413.5C 378.146,417.874 382.146,419.708 387.5,419C 390.869,422.261 394.869,423.261 399.5,422C 400.464,417.934 400.797,413.767 400.5,409.5C 400.5,405.5 400.5,401.5 400.5,397.5 Z"/></g>
<g><path style="opacity:0.996" fill="#38bcbe" d="M 178.5,393.5 C 178.5,403.167 178.5,412.833 178.5,422.5C 177.167,422.5 175.833,422.5 174.5,422.5C 170.922,422.549 167.589,423.215 164.5,424.5C 164.167,424.5 163.833,424.5 163.5,424.5C 161.744,423.448 161.077,421.781 161.5,419.5C 166.87,419.608 172.203,419.275 177.5,418.5C 177.174,409.983 177.507,401.65 178.5,393.5 Z"/></g>
<g><path style="opacity:0.996" fill="#ee8043" d="M 109.5,418.5 C 112.443,418.98 115.11,419.98 117.5,421.5C 117.5,422.167 117.5,422.833 117.5,423.5C 114.33,422.735 111.33,421.735 108.5,420.5C 108.833,419.833 109.167,419.167 109.5,418.5 Z"/></g>
<g><path style="opacity:0.996" fill="#f9faf9" d="M 108.5,420.5 C 111.33,421.735 114.33,422.735 117.5,423.5C 116.785,426.269 117.118,428.936 118.5,431.5C 119.894,433.708 121.894,435.208 124.5,436C 127.528,439.063 126.861,440.896 122.5,441.5C 116.574,441.371 112.574,438.538 110.5,433C 107.986,431.748 105.32,431.248 102.5,431.5C 102.702,426.757 104.702,423.091 108.5,420.5 Z"/></g>
<g><path style="opacity:0.996" fill="#ea8649" d="M 174.5,422.5 C 174.5,422.833 174.5,423.167 174.5,423.5C 174.773,425.451 174.107,426.951 172.5,428C 169.808,428.43 167.141,428.263 164.5,427.5C 164.5,426.5 164.5,425.5 164.5,424.5C 167.589,423.215 170.922,422.549 174.5,422.5 Z"/></g>
<g><path style="opacity:0.996" fill="#fafcfb" d="M 174.5,423.5 C 175.434,424.568 175.768,425.901 175.5,427.5C 177.959,427.31 179.626,428.31 180.5,430.5C 182.493,432.163 184.826,433.33 187.5,434C 188.833,435 188.833,436 187.5,437C 178.919,438.519 170.252,439.353 161.5,439.5C 161.5,435.5 161.5,431.5 161.5,427.5C 162.906,427.027 163.573,426.027 163.5,424.5C 163.833,424.5 164.167,424.5 164.5,424.5C 164.5,425.5 164.5,426.5 164.5,427.5C 167.141,428.263 169.808,428.43 172.5,428C 174.107,426.951 174.773,425.451 174.5,423.5 Z"/></g>
<g><path style="opacity:0.994" fill="#7bd8e9" d="M 161.5,427.5 C 161.5,431.5 161.5,435.5 161.5,439.5C 170.252,439.353 178.919,438.519 187.5,437C 188.833,436 188.833,435 187.5,434C 184.826,433.33 182.493,432.163 180.5,430.5C 181.793,429.842 183.293,429.508 185,429.5C 194.93,430.718 204.43,433.384 213.5,437.5C 214.747,439.006 214.747,440.506 213.5,442C 209.113,444.489 204.78,446.656 200.5,448.5C 196.761,450.102 192.761,451.102 188.5,451.5C 187.036,450.84 185.369,450.507 183.5,450.5C 164.693,451.824 146.026,452.824 127.5,453.5C 111.209,453.464 95.2091,451.297 79.5,447C 76.2444,445.884 73.5777,444.051 71.5,441.5C 71.3505,440.448 71.5172,439.448 72,438.5C 76.3106,435.23 81.1439,433.23 86.5,432.5C 90.8974,431.179 95.3974,430.179 100,429.5C 101.011,430.056 101.844,430.722 102.5,431.5C 104.924,434.938 107.257,438.438 109.5,442C 114.02,442.814 118.354,442.647 122.5,441.5C 126.861,440.896 127.528,439.063 124.5,436C 121.894,435.208 119.894,433.708 118.5,431.5C 118.5,430.167 118.5,428.833 118.5,427.5C 132.833,427.5 147.167,427.5 161.5,427.5 Z"/></g>
<g><path style="opacity:0.996" fill="#929394" d="M 102.5,431.5 C 105.32,431.248 107.986,431.748 110.5,433C 112.574,438.538 116.574,441.371 122.5,441.5C 118.354,442.647 114.02,442.814 109.5,442C 107.257,438.438 104.924,434.938 102.5,431.5 Z"/></g>
<g><path style="opacity:1" fill="#baedf4" d="M 188.5,451.5 C 178.755,454.416 168.755,455.749 158.5,455.5C 148.109,455.288 137.775,454.621 127.5,453.5C 146.026,452.824 164.693,451.824 183.5,450.5C 185.369,450.507 187.036,450.84 188.5,451.5 Z"/></g>
</svg>
