<svg width="20" height="20" viewBox="0 0 20 20" fill="none" xmlns="http://www.w3.org/2000/svg">
    <g clip-path="url(#clip0_311_341)">
        <mask id="mask0_311_341" style="mask-type:luminance" maskUnits="userSpaceOnUse" x="0" y="0" width="20" height="20">
            <path d="M20 0H0V20H20V0Z" fill="white"/>
        </mask>
        <g mask="url(#mask0_311_341)">
            <path d="M15.3269 19.8734C12.3338 19.8738 8.55324 17.4707 5.53008 14.4477C1.43055 10.3484 -1.52938 4.85461 1.09928 1.82222C1.26634 1.62948 1.47995 1.48151 1.73394 1.38184C2.04743 1.2589 2.61537 1.01939 3.42148 0.669685L3.42324 0.669026C3.79798 0.506573 4.15779 0.34895 4.43287 0.227988C5.0796 -0.0556465 5.83808 0.188253 6.19899 0.795915L8.48366 4.64627C8.73258 5.06558 8.74399 5.59311 8.51333 6.02295L7.14452 8.57283L11.405 12.8332L13.9544 11.4645C14.3851 11.2335 14.9124 11.2454 15.3312 11.4941L18.9081 13.6166L19.3817 13.9227C19.8396 14.3177 19.9996 14.9752 19.7496 15.5452C19.6466 15.7787 19.5175 16.0733 19.3817 16.3862L19.5476 16.0052L19.3002 16.5737C18.9603 17.3576 18.7169 17.9347 18.5955 18.2442C18.4961 18.4981 18.3478 18.7117 18.1556 18.8787C17.3595 19.5687 16.3929 19.8734 15.3269 19.8734ZM4.05724 2.06919C3.22149 2.43164 2.62853 2.68191 2.29485 2.81274C2.26763 2.82329 2.25731 2.83207 2.25731 2.83207C0.377682 5.00059 3.02677 9.77099 6.61676 13.361C10.2067 16.9507 14.9763 19.5997 17.1486 17.7178C17.1486 17.7178 17.1556 17.7071 17.165 17.6833C17.2972 17.3466 17.5472 16.7537 17.9088 15.9203L18.2919 15.0376L14.6137 12.855L12.0427 14.2352C11.4938 14.5296 10.83 14.4312 10.3902 13.9915L5.98648 9.58766C5.54654 9.14758 5.44842 8.4835 5.74281 7.93529L7.123 5.36436L4.9391 1.68414C4.68577 1.79544 4.37733 1.93024 4.05724 2.06919Z" fill="#172C4E"/>
        </g>
    </g>
    <defs>
        <clipPath id="clip0_311_341">
            <rect width="20" height="20" fill="white"/>
        </clipPath>
    </defs>
</svg>
